<svg width="70" height="70" viewBox="0 0 70 70" fill="none" xmlns="http://www.w3.org/2000/svg">
<rect width="70" height="70" rx="35" fill="#D67A1D"/>
<path d="M51.0475 46.1368C50.79 45.9417 50.4903 45.8101 50.1725 45.7527C49.8547 45.6952 49.5278 45.7134 49.2184 45.8058L40.9636 48.2366H36.3909L33.1419 46.4316H39.2428C39.4024 46.4316 39.5554 46.3682 39.6683 46.2554C39.7811 46.1425 39.8445 45.9895 39.8445 45.8299V44.0249C39.8433 43.8654 39.7808 43.7125 39.67 43.5977L38.4667 42.3944C38.3823 42.3117 38.2757 42.2552 38.1598 42.2319L29.1349 40.4269C29.0951 40.42 29.0549 40.4159 29.0145 40.4149H25.4045C25.3282 40.4137 25.2525 40.4281 25.1819 40.457L22.9979 41.3294V40.4149C22.9983 40.2717 22.9476 40.1331 22.855 40.0239C22.7624 39.9147 22.6338 39.8422 22.4925 39.8193L18.8825 39.2176C18.7961 39.2054 18.7081 39.2114 18.6242 39.2352C18.5402 39.259 18.4622 39.3002 18.3952 39.356C18.3294 39.4127 18.2767 39.4829 18.2403 39.5618C18.204 39.6407 18.185 39.7264 18.1846 39.8132V51.8466C18.1846 52.0062 18.248 52.1592 18.3608 52.272C18.4736 52.3849 18.6267 52.4483 18.7862 52.4483C18.8184 52.4493 18.8507 52.4472 18.8825 52.4422L22.4925 51.8406C22.6338 51.8177 22.7624 51.7451 22.855 51.6359C22.9476 51.5267 22.9983 51.3881 22.9979 51.2449V50.6433H24.7066L31.8303 53.0198C31.8928 53.0386 31.9576 53.0488 32.0228 53.0499H41.0478C41.1156 53.0502 41.1829 53.0379 41.2464 53.0138L50.4939 49.7528C50.8984 49.6099 51.2487 49.3451 51.4965 48.9949C51.7443 48.6447 51.8775 48.2264 51.8778 47.7974C51.8796 47.4748 51.8054 47.1563 51.6611 46.8678C51.5169 46.5793 51.3066 46.3288 51.0475 46.1368ZM21.7946 50.7335L19.3879 51.1366V40.5232L21.7946 40.9263V50.7335ZM50.0968 48.6156L40.9455 51.8466H32.1191L24.9954 49.47C24.9329 49.4512 24.8681 49.4411 24.8029 49.4399H22.9979V42.629L25.5189 41.6182H28.9544L37.7447 43.3751L38.6411 44.2716V45.2282H30.8195C30.6868 45.2287 30.558 45.2729 30.453 45.3542C30.3481 45.4354 30.273 45.549 30.2393 45.6774C30.2057 45.8058 30.2154 45.9417 30.2671 46.0639C30.3187 46.1862 30.4092 46.2879 30.5247 46.3534L35.9397 49.3617C36.029 49.4141 36.1309 49.4411 36.2345 49.4399H41.0478C41.1049 49.4412 41.1618 49.4331 41.2163 49.4159L49.5614 46.9611C49.6906 46.9218 49.8273 46.9138 49.9601 46.9379C50.093 46.962 50.2182 47.0173 50.3255 47.0994C50.4515 47.1936 50.5496 47.3203 50.6093 47.4658C50.6691 47.6113 50.6882 47.7704 50.6648 47.9259C50.6413 48.0815 50.5761 48.2278 50.4761 48.3493C50.3761 48.4707 50.245 48.5628 50.0968 48.6156Z" fill="white"/>
<path d="M36.235 39.8135C41.5429 39.8135 45.8617 34.1452 45.8617 27.1785V19.9584C45.8616 19.8259 45.8179 19.6971 45.7371 19.592C45.6564 19.4869 45.5433 19.4114 45.4152 19.3772L36.3903 16.9706C36.2886 16.9434 36.1815 16.9434 36.0798 16.9706L27.0548 19.3772C26.9268 19.4114 26.8136 19.4869 26.7329 19.592C26.6522 19.6971 26.6084 19.8259 26.6084 19.9584V27.1785C26.6084 34.1452 30.9271 39.8135 36.235 39.8135ZM27.8117 20.4211L36.235 18.1745L44.6583 20.4211V27.1785C44.6583 33.4821 40.8799 38.6101 36.235 38.6101C31.5902 38.6101 27.8117 33.4821 27.8117 27.1785V20.4211Z" fill="white"/>
<path d="M40.5631 24.5938C40.8129 24.3373 41.2228 24.3191 41.4946 24.5583C41.7665 24.7976 41.8006 25.2065 41.578 25.4869L41.5557 25.5137L35.5883 32.2948C35.4647 32.4353 35.2886 32.5183 35.1016 32.5242C34.9146 32.5301 34.7336 32.4584 34.6014 32.3261L31.7693 29.4913C31.5051 29.2269 31.5053 28.7983 31.7697 28.5341C32.0342 28.2699 32.4628 28.2701 32.727 28.5345L35.0489 30.8587L40.5393 24.6194L40.5631 24.5938Z" fill="white"/>
</svg>
