<svg width="51" height="16" viewBox="0 0 51 16" fill="none" xmlns="http://www.w3.org/2000/svg">
<path d="M1.5 7C0.947715 7 0.5 7.44772 0.5 8C0.5 8.55228 0.947715 9 1.5 9V7ZM50.2071 8.70711C50.5976 8.31658 50.5976 7.68342 50.2071 7.29289L43.8431 0.928932C43.4526 0.538408 42.8195 0.538408 42.4289 0.928932C42.0384 1.31946 42.0384 1.95262 42.4289 2.34315L48.0858 8L42.4289 13.6569C42.0384 14.0474 42.0384 14.6805 42.4289 15.0711C42.8195 15.4616 43.4526 15.4616 43.8431 15.0711L50.2071 8.70711ZM1.5 8V9H3.5V8V7H1.5V8ZM5.5 8V9H9.5V8V7H5.5V8ZM11.5 8V9H15.5V8V7H11.5V8ZM17.5 8V9H21.5V8V7H17.5V8ZM23.5 8V9H27.5V8V7H23.5V8ZM29.5 8V9H33.5V8V7H29.5V8ZM35.5 8V9H39.5V8V7H35.5V8ZM41.5 8V9H45.5V8V7H41.5V8ZM47.5 8V9H49.5V8V7H47.5V8Z" fill="black" fill-opacity="0.5"/>
</svg>
