<svg width="70" height="70" viewBox="0 0 70 70" fill="none" xmlns="http://www.w3.org/2000/svg">
<rect width="70" height="70" rx="35" fill="#D67A1D"/>
<g clip-path="url(#clip0_2_4213)">
<path d="M52.9914 40.5215H53.4434C53.7509 40.5215 54 40.2723 54 39.9649C54 39.6575 53.7509 39.4083 53.4434 39.4083H47.1912C45.3952 39.371 43.7108 40.625 43.2819 42.4174L42.4854 45.6429C42.4854 45.6429 42.4854 45.643 42.4853 45.6431L41.1261 51.1468C40.7695 51.1844 40.4072 51.205 40.0436 51.2107L42.2811 42.1701C42.8323 39.9385 44.8217 38.3795 47.1199 38.3774C47.1203 38.3774 47.1205 38.3775 47.1209 38.3775C47.1219 38.3775 47.1229 38.3773 47.1239 38.3773H47.1246H52.4443H52.4457H53.4434C53.7509 38.3773 54 38.1281 54 37.8207C54 37.5133 53.7509 37.2641 53.4434 37.2641H52.9385C52.512 34.2165 51.0334 31.4142 48.7391 29.3279C46.3027 27.1125 43.1458 25.8924 39.8497 25.8924C32.7347 25.8924 26.9158 31.5437 26.6434 38.5932H23.4447V37.3123C23.4447 36.7531 23.7376 36.2353 24.2097 35.9608C25.6711 35.1092 26.579 33.5303 26.579 31.8402V26.4181L26.9606 24.2055C27.0348 23.7737 26.9154 23.3339 26.633 22.9988C26.3507 22.6638 25.9377 22.4717 25.4999 22.4717H18.1256C17.687 22.4717 17.2736 22.6641 16.9912 22.9995C16.7091 23.3348 16.5903 23.7746 16.6649 24.2056L17.0458 26.4179V31.8402C17.0458 33.53 17.9539 35.1089 19.4162 35.9609C19.8873 36.235 20.1799 36.7528 20.1799 37.3122V38.5931H17.5131C17.0291 38.5931 16.5865 38.8161 16.2984 39.2049C16.0102 39.5938 15.9259 40.0822 16.0668 40.5451L17.6734 45.8253C18.0802 47.1624 18.9781 48.2315 20.136 48.8639V50.4428C20.136 51.4819 20.9814 52.3272 22.0205 52.3272H30.2853C31.3243 52.3272 32.1697 51.4819 32.1697 50.4428V49.8664C34.3631 51.4418 37.1275 52.3353 39.8583 52.327H53.4434C53.7509 52.327 54.0001 52.0778 54.0001 51.7704C54.0001 51.463 53.7509 51.2138 53.4434 51.2138H45.1598C49.4154 49.3393 52.4837 45.2847 52.9914 40.5215ZM44.3627 42.6842C44.6271 41.6134 45.4724 40.8144 46.5146 40.5872C46.1557 42.1968 45.2098 43.6368 43.8861 44.6141L44.3627 42.6842ZM34.6322 45.8254L34.8085 45.2457C36.1867 46.3927 38.0554 47.0799 39.9266 47.0494L38.9051 51.1768C36.5642 50.9942 34.3156 50.1268 32.458 48.6945C33.4761 48.049 34.2598 47.0493 34.6322 45.8254ZM39.8497 27.0057C42.8681 27.0057 45.759 28.1229 47.9902 30.1516C50.0527 32.027 51.3954 34.5337 51.8137 37.2641H47.5731C46.7291 33.7058 43.5539 31.1693 39.8497 31.1693C36.5362 31.1693 33.5408 33.2576 32.3962 36.3657C32.2899 36.6542 32.4378 36.9742 32.7262 37.0804C33.0149 37.1867 33.3347 37.0388 33.4409 36.7505C34.425 34.0781 37.0005 32.2827 39.8497 32.2827C42.9587 32.2827 45.6352 34.3598 46.436 37.3038C43.9209 37.5862 41.8193 39.3974 41.2005 41.903L40.2044 45.928C38.4038 46.0372 36.4822 45.3455 35.1648 44.0756L36.239 40.5452C36.3799 40.0823 36.2955 39.5938 36.0074 39.205C35.7192 38.8162 35.2765 38.5932 34.7926 38.5932H27.7574C28.029 32.1577 33.3486 27.0057 39.8497 27.0057ZM17.8428 23.7165C17.8842 23.6673 17.9757 23.585 18.1254 23.585H25.4997C25.6487 23.585 25.7402 23.6673 25.7816 23.7162C25.823 23.7654 25.8885 23.8696 25.8634 24.0166L25.5534 25.8138H18.0712L17.7617 24.0162C17.7363 23.8694 17.8016 23.7654 17.8428 23.7165ZM19.9761 34.9989C18.8551 34.3458 18.1588 33.1354 18.1588 31.8402V26.927H25.4656V31.8402C25.4656 33.1357 24.7695 34.346 23.6493 34.9987C22.8363 35.4716 22.3313 36.3582 22.3313 37.3123V38.5932H21.293V37.3123C21.293 36.3579 20.7883 35.4714 19.9761 34.9989ZM18.7384 45.5013L17.9144 42.793H21.6591C21.9666 42.793 22.2157 42.5438 22.2157 42.2364C22.2157 41.929 21.9666 41.6798 21.6591 41.6798H17.5756L17.1318 40.2211C17.0947 40.099 17.117 39.9703 17.1928 39.8678C17.2687 39.7653 17.3856 39.7066 17.5131 39.7066H34.7925C34.9201 39.7066 35.0368 39.7653 35.1127 39.8678C35.1887 39.9703 35.2109 40.0991 35.1738 40.2212L34.73 41.6798H24.2733C23.9658 41.6798 23.7166 41.929 23.7166 42.2364C23.7166 42.5438 23.9658 42.793 24.2733 42.793H34.3913L33.5672 45.5013C33.0426 47.2174 31.4972 48.3652 29.6776 48.3834H22.628C20.9337 48.4023 19.2484 47.2431 18.7384 45.5013ZM30.2853 51.214H22.0204C21.5952 51.214 21.2492 50.8681 21.2492 50.4429V49.3123C21.6897 49.4324 22.1521 49.4967 22.6279 49.4967H29.6776C30.1534 49.4967 30.6157 49.4324 31.0563 49.3123V50.4429C31.0564 50.8681 30.7104 51.214 30.2853 51.214ZM42.3187 50.9609L43.5042 46.1606C45.6773 45.0306 47.2293 42.9197 47.6638 40.5215H51.8713C51.27 45.6801 47.3868 49.9095 42.3187 50.9609Z" fill="white"/>
<path d="M35.293 22.2198H35.938V22.8649C35.938 23.1723 36.1872 23.4216 36.4946 23.4216C36.8021 23.4216 37.0513 23.1723 37.0513 22.8649V22.2198H37.6963C38.0038 22.2198 38.253 21.9706 38.253 21.6632C38.253 21.3558 38.0038 21.1065 37.6963 21.1065H37.0513V20.4614C37.0513 20.154 36.8021 19.9048 36.4946 19.9048C36.1872 19.9048 35.938 20.154 35.938 20.4614V21.1065H35.293C34.9855 21.1065 34.7363 21.3558 34.7363 21.6632C34.7363 21.9706 34.9856 22.2198 35.293 22.2198Z" fill="white"/>
<path d="M48.3359 18.9879H48.981V19.6329C48.981 19.9403 49.2301 20.1896 49.5376 20.1896C49.8451 20.1896 50.0943 19.9403 50.0943 19.6329V18.9879H50.7393C51.0468 18.9879 51.2959 18.7387 51.2959 18.4312C51.2959 18.1238 51.0468 17.8746 50.7393 17.8746H50.0943V17.2295C50.0943 16.9221 49.8451 16.6729 49.5376 16.6729C49.2301 16.6729 48.981 16.9221 48.981 17.2295V17.8746H48.3359C48.0284 17.8746 47.7793 18.1238 47.7793 18.4312C47.7793 18.7387 48.0284 18.9879 48.3359 18.9879Z" fill="white"/>
<path d="M44.6972 23.6708C44.989 23.6708 45.2255 23.4343 45.2255 23.1425C45.2255 22.8508 44.989 22.6143 44.6972 22.6143C44.4055 22.6143 44.1689 22.8508 44.1689 23.1425C44.1689 23.4343 44.4055 23.6708 44.6972 23.6708Z" fill="white"/>
</g>
<defs>
<clipPath id="clip0_2_4213">
<rect width="38" height="38" fill="white" transform="translate(16 16)"/>
</clipPath>
</defs>
</svg>
