<svg width="71" height="70" viewBox="0 0 71 70" fill="none" xmlns="http://www.w3.org/2000/svg">
<rect x="0.5" width="70" height="70" rx="35" fill="#D67A1D"/>
<g clip-path="url(#clip0_2_4224)">
<path d="M44.5226 33.701C44.5226 33.2311 44.2615 32.8087 43.8413 32.5985L42.8919 32.1238L43.8413 31.6491C44.2616 31.4389 44.5226 31.0166 44.5226 30.5467C44.5226 30.0768 44.2615 29.6544 43.8413 29.4442L39.0958 27.0715C38.4705 26.7588 37.724 26.7587 37.0987 27.0715L32.3532 29.4442C31.9329 29.6544 31.6719 30.0768 31.6719 30.5467C31.6719 31.0166 31.933 31.4389 32.3532 31.6491L33.3027 32.1238L32.3532 32.5985C31.9329 32.8087 31.6719 33.2311 31.6719 33.701C31.6719 34.1708 31.933 34.5932 32.3532 34.8034L33.3027 35.2781L32.3532 35.7528C31.9329 35.963 31.6719 36.3854 31.6719 36.8553C31.6719 37.3251 31.933 37.7475 32.3532 37.9577L37.0987 40.3305C37.4114 40.4868 37.7543 40.565 38.0973 40.565C38.4402 40.565 38.7832 40.4869 39.0958 40.3305L43.8413 37.9577C44.2616 37.7475 44.5226 37.3251 44.5226 36.8553C44.5226 36.3854 44.2615 35.963 43.8413 35.7528L42.8919 35.2781L43.8413 34.8034C44.2615 34.5932 44.5226 34.1708 44.5226 33.701ZM32.7851 30.5467C32.7851 30.4978 32.8073 30.4618 32.851 30.44L37.5966 28.0672C37.7534 27.9889 37.9253 27.9497 38.0972 27.9497C38.2692 27.9497 38.4411 27.9889 38.5978 28.0672L43.3434 30.4401C43.3871 30.4619 43.4093 30.4978 43.4093 30.5467C43.4093 30.5957 43.3871 30.6316 43.3434 30.6535L38.5977 33.0262C38.2843 33.183 37.91 33.1829 37.5965 33.0262L32.851 30.6534C32.8073 30.6315 32.7851 30.5956 32.7851 30.5467ZM43.3434 36.7486C43.3872 36.7704 43.4093 36.8064 43.4093 36.8553C43.4093 36.9042 43.3872 36.9401 43.3434 36.962L38.5978 39.3348C38.2843 39.4915 37.9101 39.4914 37.5966 39.3348L32.8511 36.9619C32.8073 36.9401 32.7852 36.9042 32.7852 36.8553C32.7852 36.8064 32.8073 36.7704 32.8511 36.7485L34.5473 35.9004L37.0987 37.1761C37.4114 37.3324 37.7543 37.4106 38.0973 37.4106C38.4402 37.4106 38.7832 37.3325 39.0958 37.1761L41.6472 35.9004L43.3434 36.7486ZM43.3434 33.8077L38.5978 36.1805C38.2843 36.3372 37.9101 36.3371 37.5966 36.1805L32.8511 33.8076C32.8073 33.7858 32.7852 33.7499 32.7852 33.701C32.7852 33.6521 32.8073 33.6161 32.8511 33.5942L34.5473 32.7461L37.0987 34.0218C37.4114 34.1781 37.7543 34.2563 38.0973 34.2563C38.4402 34.2563 38.7832 34.1782 39.0958 34.0218L41.6472 32.7461L43.3435 33.5942C43.3872 33.6161 43.4094 33.652 43.4094 33.7009C43.4094 33.7498 43.3872 33.7858 43.3434 33.8077Z" fill="white"/>
<path d="M50.9004 20.3484H47.574C44.8401 20.3484 42.2578 19.2952 40.3028 17.3826L40.2304 17.3117C39.0344 16.1417 37.1487 16.1534 35.9374 17.3385C34.8336 18.4183 33.4792 19.257 32.0204 19.7638C31.73 19.8647 31.5764 20.1819 31.6773 20.4723C31.7782 20.7628 32.0954 20.9163 32.3858 20.8155C33.9984 20.2552 35.4958 19.328 36.7159 18.1343C37.4907 17.3764 38.6924 17.3647 39.4518 18.1075L39.5241 18.1783C41.6885 20.2957 44.5473 21.4617 47.5739 21.4617H50.9004C52.0258 21.4617 52.9414 22.3772 52.9414 23.5027V28.8958C52.9414 38.6284 47.6263 47.5559 39.0702 52.1947C38.4613 52.5249 37.7341 52.5247 37.1252 52.1945C35.7163 51.4302 34.3745 50.5346 33.128 49.5303C33.4544 49.0337 33.6445 48.44 33.6445 47.8026C33.6445 46.7264 33.1027 45.7744 32.2777 45.2049C33.1028 44.6354 33.6445 43.6834 33.6445 42.6073C33.6445 41.0433 32.5002 39.7415 31.0049 39.4949C30.7584 37.9996 29.4566 36.8553 27.8926 36.8553C27.8567 36.8553 27.8213 36.8575 27.7856 36.8587C26.991 34.5912 26.588 32.2232 26.588 29.8131V25.2553C26.588 24.846 26.921 24.5131 27.3302 24.5131H30.6221H30.6223C33.0579 24.5131 35.3584 23.575 37.0994 21.8717C37.6592 21.324 38.5266 21.3149 39.0744 21.8507L39.1311 21.9062C40.8495 23.5873 43.1198 24.5131 45.5238 24.5131H48.8652C49.2744 24.5131 49.6074 24.846 49.6074 25.2553V29.8183C49.6074 37.6457 45.3327 44.8256 38.4515 48.5563C38.23 48.6764 37.9655 48.6764 37.7439 48.5562C37.123 48.2194 36.5125 47.8478 35.9293 47.4518C35.6749 47.279 35.3288 47.3452 35.1561 47.5996C34.9834 47.8539 35.0495 48.2001 35.3038 48.3728C35.9176 48.7895 36.5598 49.1804 37.2131 49.5348C37.4901 49.6851 37.7939 49.7602 38.0978 49.7602C38.4015 49.7602 38.7054 49.6851 38.9822 49.535C46.2228 45.6095 50.7206 38.0545 50.7206 29.8184V25.2554C50.7206 24.2323 49.8883 23.3999 48.8652 23.3999H45.5238C43.4125 23.3999 41.4187 22.5868 39.9096 21.1105L39.853 21.055C38.8686 20.092 37.3172 20.1013 36.3209 21.076C34.7891 22.5746 32.7652 23.3999 30.6221 23.3999H27.3302C26.3071 23.3999 25.4748 24.2323 25.4748 25.2554V29.8132C25.4748 32.3026 25.8838 34.7491 26.6896 37.0951C26.1233 37.3298 25.639 37.7237 25.2949 38.2221C25.134 37.989 24.9416 37.7796 24.7255 37.5975C23.7497 34.793 23.2539 31.8642 23.2539 28.8892V23.5027C23.2539 22.3772 24.1695 21.4617 25.2949 21.4617L28.5565 21.4617C28.9413 21.4617 29.3305 21.4424 29.7132 21.4043C30.0192 21.3738 30.2424 21.1012 30.2119 20.7952C30.1814 20.4892 29.9091 20.2659 29.6028 20.2965C29.2566 20.331 28.9046 20.3485 28.5564 20.3485L25.2949 20.3484C23.5556 20.3484 22.1406 21.7634 22.1406 23.5027V28.8892C22.1406 31.6224 22.542 34.3183 23.3338 36.921C23.128 36.8786 22.9154 36.8553 22.6973 36.8553C21.1333 36.8553 19.8315 37.9996 19.5849 39.4949C18.0896 39.7415 16.9453 41.0433 16.9453 42.6073C16.9453 43.6834 17.487 44.6354 18.3121 45.2049C17.487 45.7744 16.9453 46.7264 16.9453 47.8026C16.9453 49.3666 18.0896 50.6684 19.5849 50.9149C19.8315 52.4102 21.1333 53.5545 22.6973 53.5545C23.7734 53.5545 24.7254 53.0128 25.2949 52.1878C25.8644 53.0128 26.8164 53.5545 27.8926 53.5545C29.4566 53.5545 30.7584 52.4102 31.0049 50.9149C31.5063 50.8323 31.9679 50.6305 32.3604 50.3405C33.6788 51.4099 35.1003 52.3624 36.5945 53.173C37.0652 53.4283 37.5816 53.556 38.098 53.556C38.6142 53.556 39.1304 53.4284 39.601 53.1733C48.5163 48.3398 54.0547 39.0371 54.0547 28.8957V23.5026C54.0547 21.7634 52.6397 20.3484 50.9004 20.3484ZM24.7383 42.8028C24.1877 42.3343 23.4752 42.0506 22.6973 42.0506C22.3899 42.0506 22.1406 42.2998 22.1406 42.6073C22.1406 42.9147 22.3899 43.1639 22.6973 43.1639C23.8227 43.1639 24.7383 44.0795 24.7383 45.2049V47.9971C24.1878 47.5288 23.475 47.2459 22.6973 47.2459C22.3899 47.2459 22.1406 47.4952 22.1406 47.8026C22.1406 48.11 22.3899 48.3592 22.6973 48.3592C23.8227 48.3592 24.7383 49.2748 24.7383 50.4002C24.7383 51.5257 23.8227 52.4412 22.6973 52.4412C21.5718 52.4412 20.6562 51.5257 20.6562 50.4002C20.6562 50.0928 20.407 49.8436 20.0996 49.8436C18.9742 49.8436 18.0586 48.928 18.0586 47.8026C18.0586 46.6771 18.9742 45.7616 20.0996 45.7616C20.407 45.7616 20.6562 45.5123 20.6562 45.2049C20.6562 44.8975 20.407 44.6483 20.0996 44.6483C18.9742 44.6483 18.0586 43.7327 18.0586 42.6073C18.0586 41.4818 18.9742 40.5662 20.0996 40.5662C20.407 40.5662 20.6562 40.317 20.6562 40.0096C20.6562 38.8842 21.5718 37.9686 22.6973 37.9686C23.8227 37.9686 24.7383 38.8842 24.7383 40.0096V42.8028ZM30.4902 49.8436C30.1828 49.8436 29.9336 50.0928 29.9336 50.4002C29.9336 51.5257 29.018 52.4412 27.8926 52.4412C26.7671 52.4412 25.8516 51.5257 25.8516 50.4002V47.607C26.4021 48.0756 27.1147 48.3591 27.8926 48.3591C28.2 48.3591 28.4492 48.1099 28.4492 47.8025C28.4492 47.4951 28.2 47.2459 27.8926 47.2459C26.7671 47.2459 25.8516 46.3303 25.8516 45.2048V42.4127C26.402 42.881 27.1148 43.1638 27.8926 43.1638C28.2 43.1638 28.4492 42.9146 28.4492 42.6072C28.4492 42.2998 28.2 42.0505 27.8926 42.0505C26.7671 42.0505 25.8516 41.135 25.8516 40.0095C25.8516 38.8841 26.7671 37.9685 27.8926 37.9685C29.018 37.9685 29.9336 38.8841 29.9336 40.0095C29.9336 40.3169 30.1828 40.5662 30.4902 40.5662C31.6157 40.5662 32.5312 41.4817 32.5312 42.6072C32.5312 43.7326 31.6157 44.6483 30.4902 44.6483C30.1828 44.6483 29.9336 44.8975 29.9336 45.2049C29.9336 45.5123 30.1828 45.7616 30.4902 45.7616C31.6157 45.7616 32.5312 46.6771 32.5312 47.8026C32.5312 48.928 31.6157 49.8436 30.4902 49.8436Z" fill="white"/>
<path d="M22.6973 50.7715C23.0047 50.7715 23.2539 50.5223 23.2539 50.2148C23.2539 49.9074 23.0047 49.6582 22.6973 49.6582C22.3898 49.6582 22.1406 49.9074 22.1406 50.2148C22.1406 50.5223 22.3898 50.7715 22.6973 50.7715Z" fill="white"/>
<path d="M27.8926 40.752C28.2 40.752 28.4492 40.5027 28.4492 40.1953C28.4492 39.8879 28.2 39.6387 27.8926 39.6387C27.5852 39.6387 27.3359 39.8879 27.3359 40.1953C27.3359 40.5027 27.5852 40.752 27.8926 40.752Z" fill="white"/>
<path d="M20.0996 43.1641C20.407 43.1641 20.6562 42.9148 20.6562 42.6074C20.6562 42.3 20.407 42.0508 20.0996 42.0508C19.7922 42.0508 19.543 42.3 19.543 42.6074C19.543 42.9148 19.7922 43.1641 20.0996 43.1641Z" fill="white"/>
<path d="M30.4902 48.3594C30.7977 48.3594 31.0469 48.1102 31.0469 47.8027C31.0469 47.4953 30.7977 47.2461 30.4902 47.2461C30.1828 47.2461 29.9336 47.4953 29.9336 47.8027C29.9336 48.1102 30.1828 48.3594 30.4902 48.3594Z" fill="white"/>
</g>
<defs>
<clipPath id="clip0_2_4224">
<rect width="38" height="38" fill="white" transform="translate(16.5 16)"/>
</clipPath>
</defs>
</svg>
