<svg width="43" height="43" viewBox="0 0 43 43" fill="none" xmlns="http://www.w3.org/2000/svg">
<circle cx="21.5" cy="21.5" r="20.5" fill="black" stroke="black"/>
<path d="M21.5 15.8393C23.25 15.875 24.6964 16.4821 25.8393 17.6607C27.0179 18.8036 27.625 20.25 27.6607 22C27.625 23.75 27.0179 25.1964 25.8393 26.3393C24.6964 27.5179 23.25 28.125 21.5 28.1607C19.75 28.125 18.3036 27.5179 17.1607 26.3393C15.9821 25.1964 15.375 23.75 15.3393 22C15.375 20.25 15.9821 18.8036 17.1607 17.6607C18.3036 16.4821 19.75 15.875 21.5 15.8393ZM21.5 26.0179C22.6429 25.9821 23.5893 25.5893 24.3393 24.8393C25.0893 24.0893 25.4821 23.1429 25.5179 22C25.4821 20.8571 25.0893 19.9107 24.3393 19.1607C23.5893 18.4107 22.6429 18.0179 21.5 17.9821C20.3571 18.0179 19.4107 18.4107 18.6607 19.1607C17.9107 19.9107 17.5179 20.8571 17.4821 22C17.5179 23.1429 17.9107 24.0893 18.6607 24.8393C19.4107 25.5893 20.3571 25.9821 21.5 26.0179ZM29.375 15.5714C29.3393 15.1786 29.1964 14.8393 28.9464 14.5536C28.6607 14.3036 28.3214 14.1786 27.9286 14.1786C27.5 14.1786 27.1607 14.3036 26.9107 14.5536C26.625 14.8393 26.4821 15.1786 26.4821 15.5714C26.5536 16.4643 27.0357 16.9464 27.9286 17.0179C28.7857 16.9464 29.2679 16.4643 29.375 15.5714ZM33.4464 17.0714V17.0179C33.4821 17.7321 33.5 18.75 33.5 20.0714C33.5 21.3571 33.5 22.6429 33.5 23.9286C33.5 25.2143 33.4821 26.2143 33.4464 26.9286C33.4464 28.8929 32.7857 30.5714 31.4643 31.9643C30.0714 33.2857 28.4107 33.9286 26.4821 33.8929C25.7679 33.9286 24.75 33.9643 23.4286 34C22.1429 34 20.8571 34 19.5714 34C18.25 33.9643 17.25 33.9286 16.5714 33.8929C14.6071 33.9286 12.9286 33.2857 11.5357 31.9643C10.2143 30.5714 9.57143 28.8929 9.60714 26.9286C9.53571 26.2143 9.5 25.2143 9.5 23.9286C9.5 22.6429 9.5 21.3571 9.5 20.0714C9.5 18.75 9.53571 17.7321 9.60714 17.0179C9.57143 15.0893 10.2143 13.4286 11.5357 12.0357C12.9643 10.7143 14.6429 10.0536 16.5714 10.0536C17.25 10.0179 18.25 10 19.5714 10C20.8571 10 22.1429 10 23.4286 10C24.75 10 25.7679 10.0179 26.4821 10.0536C28.4107 10.0536 30.0714 10.7143 31.4643 12.0357C32.7857 13.4286 33.4464 15.1071 33.4464 17.0714ZM30.875 29.0714C31.125 28.3571 31.2679 27.3929 31.3036 26.1786C31.375 24.9643 31.3929 23.8571 31.3571 22.8571C31.3571 22.5357 31.3571 22.25 31.3571 22C31.3571 21.75 31.3571 21.4643 31.3571 21.1429C31.3929 20.1429 31.375 19.0357 31.3036 17.8214C31.2679 16.6071 31.125 15.6429 30.875 14.9286C30.4107 13.8571 29.6429 13.0893 28.5714 12.625C27.8571 12.375 26.8929 12.2321 25.6786 12.1964C24.4643 12.1607 23.3571 12.1429 22.3571 12.1429C22.0357 12.1429 21.75 12.1429 21.5 12.1429C21.25 12.1429 20.9643 12.1429 20.6429 12.1429C19.6429 12.1071 18.5357 12.125 17.3214 12.1964C16.1429 12.2321 15.1786 12.375 14.4286 12.625C13.3571 13.0893 12.5893 13.8571 12.125 14.9286C11.875 15.6429 11.7321 16.6071 11.6964 17.8214C11.6607 19.0357 11.6429 20.1429 11.6429 21.1429C11.6429 21.4643 11.6429 21.75 11.6429 22C11.6429 22.25 11.6429 22.5357 11.6429 22.8571C11.6429 23.8571 11.6607 24.9643 11.6964 26.1786C11.7321 27.3571 11.875 28.3214 12.125 29.0714C12.5893 30.1429 13.3571 30.9107 14.4286 31.375C15.1786 31.625 16.1429 31.7679 17.3214 31.8036C18.5357 31.8393 19.6429 31.8571 20.6429 31.8571C20.9643 31.8571 21.25 31.8571 21.5 31.8571C21.75 31.8571 22.0357 31.8571 22.3571 31.8571C23.3571 31.8571 24.4643 31.8393 25.6786 31.8036C26.8929 31.7679 27.8571 31.625 28.5714 31.375C29.6429 30.9107 30.4107 30.1429 30.875 29.0714Z" fill="white"/>
</svg>
