<svg width="70" height="70" viewBox="0 0 70 70" fill="none" xmlns="http://www.w3.org/2000/svg">
<rect width="70" height="70" rx="35" fill="#D67A1D"/>
<path d="M51.8387 35.5808H49.7832C50.3372 34.9636 50.6774 34.1513 50.6774 33.2583H51.8387V32.097H50.6774C50.6774 31.4565 50.1566 30.9357 49.5161 30.9357H42.5484C41.9079 30.9357 41.3871 31.4565 41.3871 32.097H40.2258V33.2583H41.3871C41.3871 34.1513 41.7274 34.9636 42.2813 35.5808H32.0968V34.4196H30.9355V35.5808H29.7742V29.1938C29.7742 28.2334 30.5557 27.4518 31.5161 27.4518C32.4765 27.4518 33.2581 28.2334 33.2581 29.1938V30.9357H32.0968V32.097H35.5806V30.9357H34.4194V29.1938C34.4194 27.5929 33.117 26.2905 31.5161 26.2905C29.9153 26.2905 28.6129 27.5929 28.6129 29.1938V35.5808H18.1613C17.5208 35.5808 17 36.1017 17 36.7421V53.0002H53V36.7421C53 36.1017 52.4792 35.5808 51.8387 35.5808ZM42.5484 33.2583V32.097H49.5161V33.2583C49.5161 34.5392 48.4745 35.5808 47.1935 35.5808H44.871C43.5901 35.5808 42.5484 34.5392 42.5484 33.2583ZM44.871 36.7421H47.1935H51.8387V37.9034H18.1613V36.7421H44.871ZM20.4839 46.0325H22.8065V47.1938H20.4839V46.0325ZM18.1613 44.8712V39.0647H19.3226V40.226C19.3226 40.8665 19.8434 41.3873 20.4839 41.3873H22.8065C23.4469 41.3873 23.9677 40.8665 23.9677 40.226V39.0647H25.129V44.8712H18.1613ZM20.4839 39.0647H22.8065V40.226H20.4839V39.0647ZM26.2903 39.0647H32.0968V51.8389H26.2903V39.0647ZM33.2581 39.0647H39.0645V51.8389H33.2581V39.0647ZM18.1613 46.0325H19.3226V47.1938C19.3226 47.8342 19.8434 48.355 20.4839 48.355H22.8065C23.4469 48.355 23.9677 47.8342 23.9677 47.1938V46.0325H25.129V51.8389H18.1613V46.0325ZM44.871 43.7099H47.1935C47.834 43.7099 48.3548 43.189 48.3548 42.5486H49.5161V51.8389H42.5484V42.5486H43.7097C43.7097 43.189 44.2305 43.7099 44.871 43.7099ZM44.871 42.5486V41.3873H47.1935L47.1941 42.5486H44.871ZM50.6774 51.8389V42.5486C50.6774 41.9081 50.1566 41.3873 49.5161 41.3873H48.3548C48.3548 40.7468 47.834 40.226 47.1935 40.226H44.871C44.2305 40.226 43.7097 40.7468 43.7097 41.3873H42.5484C41.9079 41.3873 41.3871 41.9081 41.3871 42.5486V51.8389H40.2258V39.0647H51.8387V51.8389H50.6774Z" fill="white"/>
<path d="M29.7744 43.7095H30.9357V46.0321H29.7744V43.7095Z" fill="white"/>
<path d="M34.4189 43.7095H35.5802V46.0321H34.4189V43.7095Z" fill="white"/>
<path d="M42.5484 20.9275L38.7057 28.6129H52.1975L48.3548 20.9275V18.1613H50.6774V17H17V18.1613H42.5484V20.9275ZM40.5846 27.4516L43.4879 21.6452H47.4154L50.3186 27.4516H40.5846ZM47.1935 20.4839H43.7097V18.1613H47.1935V20.4839Z" fill="white"/>
<path d="M18.7419 26.3842C18.0539 26.5979 17.5214 27.1762 17.3977 27.9212L17.2944 28.5413C17.1951 29.1382 17.3623 29.7456 17.7537 30.2078C18.145 30.6706 18.717 30.9353 19.3226 30.9353C19.9282 30.9353 20.5001 30.6706 20.8915 30.2078C21.2828 29.7456 21.4501 29.1382 21.3508 28.5413L21.2474 27.9212C21.1237 27.1762 20.5913 26.5979 19.9032 26.3842V22.8063H23.9677V26.3842C23.2797 26.5979 22.7472 27.1762 22.6235 27.9212L22.1207 30.9353H26.9755L26.4726 27.9212C26.349 27.1762 25.8165 26.5979 25.1285 26.3842V22.8063H27.451V21.645H17V22.8063H18.7419V26.3842ZM20.2057 28.7318C20.2493 28.9919 20.1761 29.2561 20.006 29.4576C19.6652 29.86 18.9806 29.86 18.6397 29.4576C18.4696 29.2561 18.3965 28.9919 18.44 28.7318L18.5434 28.1117C18.6072 27.7296 18.9347 27.4515 19.3226 27.4515C19.7105 27.4515 20.0379 27.7296 20.1018 28.1117L20.2057 28.7318ZM25.6046 29.7741H23.4916L23.7686 28.1117C23.833 27.7296 24.1605 27.4515 24.5484 27.4515C24.9363 27.4515 25.2637 27.7296 25.3276 28.1117L25.6046 29.7741Z" fill="white"/>
</svg>
