<svg width="71" height="70" viewBox="0 0 71 70" fill="none" xmlns="http://www.w3.org/2000/svg">
<rect x="0.5" width="70" height="70" rx="35" fill="#D67A1D"/>
<path d="M45.3028 37.7179C44.3283 37.7179 43.3931 37.8901 42.5262 38.2055L38.2163 30.7428C38.0427 30.44 37.9692 30.1624 37.9692 29.8151V20.9088H38.9489C39.5501 20.9088 40.0384 20.419 40.0384 19.8171V17.0918C40.0392 16.4898 39.5501 16 38.9489 16H28.2488C27.6469 16 27.157 16.4898 27.157 17.0918V19.8163C27.157 20.4182 27.6469 20.9081 28.2488 20.9081H29.2292V29.8158C29.2292 30.1587 29.1528 30.4437 28.9806 30.7413L19.9741 46.3421C19.4175 47.3062 19.4175 48.4121 19.9741 49.3754C20.5308 50.3395 21.4889 50.8925 22.6022 50.8925H38.9073C40.3999 52.7836 42.7118 54 45.3028 54C49.7908 54 53.4423 50.3484 53.4423 45.8604C53.4423 41.3702 49.7908 37.7179 45.3028 37.7179ZM28.3438 17.1868H38.8524V19.7221H28.3438V17.1868ZM22.6022 49.7057C21.9142 49.7057 21.3457 49.3777 21.0013 48.7824C20.6577 48.1864 20.6577 47.5311 21.0013 46.9351L30.0078 31.3358C30.2861 30.8549 30.416 30.3717 30.416 29.8166V28.8569H32.4295C32.7576 28.8569 33.0225 28.5912 33.0225 28.2639C33.0225 27.9366 32.7568 27.6709 32.4295 27.6709H30.416V26.1531H32.4295C32.7576 26.1531 33.0225 25.8874 33.0225 25.5601C33.0225 25.2328 32.7568 24.9671 32.4295 24.9671H30.416V23.4501H32.4295C32.7576 23.4501 33.0225 23.1844 33.0225 22.8571C33.0225 22.5298 32.7568 22.2641 32.4295 22.2641H30.416V20.9088H36.7824V29.8166C36.7824 30.3702 36.9108 30.8519 37.1884 31.3358L41.4389 38.6961C40.8244 39.0286 40.2581 39.4383 39.7519 39.9111L37.3391 35.7325C37.233 35.5492 37.037 35.4357 36.8255 35.4357H30.3729C30.1606 35.4357 29.9647 35.5485 29.8593 35.7325L23.498 46.7481C23.3919 46.9314 23.3919 47.1578 23.498 47.3411C23.6042 47.5244 23.8001 47.638 24.0116 47.638H37.3569C37.5202 48.369 37.7822 49.063 38.1288 49.7057H22.6022ZM37.161 45.8597C37.161 46.0586 37.1684 46.2553 37.1825 46.4505H25.0396L30.7143 36.6217H36.4819L38.9088 40.8239C37.8148 42.2111 37.161 43.9604 37.161 45.8597ZM45.3028 52.8132C41.8508 52.8132 38.9793 50.2868 38.439 46.9863C38.4368 46.9618 38.4323 46.9373 38.4271 46.9136C38.3744 46.57 38.3477 46.2182 38.3477 45.8597C38.3477 42.0248 41.4679 38.9046 45.3028 38.9046C49.1369 38.9046 52.2556 42.0248 52.2556 45.8597C52.2556 49.6938 49.1369 52.8132 45.3028 52.8132ZM49.2801 41.883C48.5676 41.1705 47.4091 41.1713 46.6973 41.883L45.3028 43.2776L43.9067 41.883C43.5616 41.5379 43.1029 41.3479 42.6153 41.3479C42.6146 41.3479 42.6138 41.3479 42.6131 41.3479C42.1254 41.3487 41.6683 41.5387 41.3261 41.8823C40.981 42.2259 40.791 42.6839 40.7903 43.1707C40.7895 43.6591 40.9795 44.1185 41.3254 44.4636L42.7199 45.8597L41.3254 47.2543C40.6129 47.9668 40.6129 49.1253 41.3254 49.8371C41.6801 50.1918 42.1477 50.37 42.6146 50.37C43.0814 50.37 43.5497 50.1926 43.906 49.8371L45.302 48.441L46.6973 49.8378C47.4091 50.5466 48.5669 50.5466 49.2801 49.8356C49.9889 49.1238 49.9889 47.966 49.2787 47.2535L47.8833 45.8597L49.2801 44.4629C49.9904 43.7504 49.9897 42.5926 49.2801 41.883ZM48.4407 43.625L46.6253 45.4404C46.514 45.5517 46.4517 45.7023 46.4517 45.8597C46.4517 46.017 46.514 46.1684 46.6253 46.279L48.44 48.0914C48.6886 48.3416 48.6886 48.7483 48.4422 48.9962C48.1921 49.2455 47.7854 49.2448 47.5367 48.9977L45.7236 47.1823C45.6122 47.0709 45.4616 47.0086 45.3042 47.0086C45.1469 47.0086 44.9962 47.0709 44.8849 47.1823L43.0703 48.9969C42.8201 49.2463 42.4149 49.2463 42.1663 48.9977C41.9169 48.7483 41.9169 48.3423 42.1663 48.0929L43.9794 46.2798C44.211 46.0482 44.211 45.6727 43.9794 45.4411L42.1655 43.625C42.0445 43.504 41.9778 43.3429 41.9778 43.1722C41.9778 43.0023 42.0446 42.8427 42.1663 42.721C42.2858 42.6007 42.4453 42.5347 42.6153 42.5347H42.616C42.7867 42.5347 42.9471 42.6015 43.0688 42.7225L44.8842 44.5356C45.1157 44.7672 45.4913 44.7672 45.7228 44.5356L47.536 42.7225C47.7854 42.4731 48.1913 42.4731 48.4407 42.7225C48.6894 42.9704 48.6886 43.3756 48.4407 43.625Z" fill="white"/>
</svg>
