<svg width="71" height="70" viewBox="0 0 71 70" fill="none" xmlns="http://www.w3.org/2000/svg">
<rect x="0.5" width="70" height="70" rx="35" fill="#D67A1D"/>
<path d="M40.3587 41.0536C40.6439 40.9714 40.8982 40.806 41.0888 40.5784L41.093 40.5724C41.2225 40.4197 41.3203 40.2428 41.3809 40.0519C41.4414 39.8611 41.4635 39.6601 41.4458 39.4607C41.3624 38.5463 40.9856 35.4511 39.6459 33.9776C38.731 32.9691 37.4644 32.6115 34.9428 31.8988L34.566 31.792C33.6492 31.5824 32.8019 31.1397 32.1062 30.5069L32.1014 30.5021C31.9831 30.3838 31.8354 30.2992 31.6735 30.2572C31.5117 30.2151 31.3415 30.2171 31.1806 30.263C31.0197 30.3088 30.8741 30.3968 30.7586 30.5178C30.6432 30.6389 30.5622 30.7886 30.5241 30.9514C30.1725 32.4639 29.533 36.2629 31.172 38.8619C32.513 40.9882 34.6686 41.6032 36.7121 41.6032C37.9468 41.5852 39.1735 41.4003 40.3587 41.0536ZM32.1866 38.2206C30.9195 36.2119 31.2824 33.2193 31.5968 31.6612C32.3804 32.2656 33.2797 32.7028 34.2391 32.9457L34.6158 33.0519C36.9893 33.7227 38.0728 34.0286 38.7556 34.7834C39.5031 35.6071 39.9615 37.3782 40.1673 38.8853C37.1315 36.1729 35.1336 35.6401 35.0424 35.6167C34.966 35.5973 34.8866 35.5931 34.8086 35.6044C34.7305 35.6157 34.6555 35.6422 34.5878 35.6825C34.451 35.7639 34.3521 35.8962 34.3128 36.0505C34.2934 36.1269 34.2892 36.2064 34.3005 36.2844C34.3118 36.3624 34.3384 36.4374 34.3786 36.5051C34.4189 36.5729 34.4721 36.632 34.5353 36.6792C34.5984 36.7264 34.6702 36.7606 34.7466 36.7801C34.767 36.7849 36.6887 37.3152 39.6225 40.0073C37.4189 40.5646 33.8911 40.9252 32.1866 38.2206Z" fill="white"/>
<path d="M44.4681 37.8697L48.8424 44.5857H43.2987V43.7253C43.3024 43.4244 43.2169 43.1291 43.0528 42.8768C42.8888 42.6245 42.6537 42.4264 42.3772 42.3076C42.1084 42.188 41.8101 42.1508 41.5201 42.2008C41.2302 42.2507 40.9615 42.3856 40.7483 42.5884L36.5912 46.4521C36.436 46.598 36.3123 46.7741 36.2278 46.9696C36.1432 47.1651 36.0996 47.3758 36.0996 47.5888C36.0996 47.8017 36.1432 48.0125 36.2278 48.2079C36.3123 48.4034 36.436 48.5795 36.5912 48.7254L40.7489 52.5891C41.0252 52.8502 41.3905 52.9963 41.7706 52.9977C41.9724 52.9966 42.172 52.9558 42.358 52.8776C42.544 52.7993 42.7128 52.6852 42.8546 52.5418C42.9965 52.3983 43.1088 52.2283 43.185 52.0415C43.2612 51.8546 43.2998 51.6546 43.2987 51.4528V50.5715L46.2829 50.4659C47.6099 50.4161 48.8998 50.0148 50.0208 49.3032C51.1419 48.5915 52.0539 47.595 52.6637 46.4154C53.2734 45.2358 53.559 43.9155 53.4913 42.5893C53.4236 41.2632 53.0051 39.9788 52.2784 38.8674L49.4951 34.5909C49.3665 34.3918 49.1999 34.22 49.0047 34.0855C48.8095 33.951 48.5897 33.8563 48.3578 33.807C48.126 33.7577 47.8867 33.7546 47.6536 33.798C47.4206 33.8414 47.1984 33.9304 46.9999 34.0599L44.9906 35.375C44.5926 35.6382 44.3144 36.0479 44.2166 36.5149C44.1187 36.982 44.2091 37.4688 44.4681 37.8697ZM49.3506 47.5645C49.2159 47.8883 49.016 48.1809 48.7633 48.4241C48.5106 48.6672 48.2106 48.8558 47.8818 48.978C47.8764 48.978 47.8734 48.984 47.8686 48.9858C47.3447 49.1662 46.7951 49.2612 46.2409 49.2672L42.6778 49.3932C42.5223 49.3986 42.3751 49.4642 42.267 49.5761C42.159 49.6881 42.0987 49.8376 42.0988 49.9931V51.4534C42.1015 51.5206 42.0837 51.5869 42.0478 51.6437C42.0119 51.7005 41.9596 51.745 41.8978 51.7714C41.8429 51.797 41.7814 51.805 41.7218 51.7942C41.6622 51.7835 41.6074 51.7546 41.5648 51.7114L37.4071 47.8471C37.3725 47.8138 37.3449 47.7739 37.3261 47.7297C37.3072 47.6855 37.2975 47.638 37.2975 47.59C37.2975 47.5419 37.3072 47.4944 37.3261 47.4502C37.3449 47.4061 37.3725 47.3661 37.4071 47.3329L41.5642 43.4685C41.6067 43.4252 41.6615 43.3962 41.7212 43.3854C41.7808 43.3747 41.8424 43.3828 41.8972 43.4085C41.9591 43.4348 42.0114 43.4793 42.0474 43.5361C42.0833 43.593 42.101 43.6594 42.0982 43.7265V45.1868C42.0982 45.3459 42.1614 45.4985 42.2739 45.6111C42.3865 45.7236 42.5391 45.7868 42.6982 45.7868H49.4603C49.625 46.3748 49.5863 47.0012 49.3506 47.5645ZM45.6476 36.3788L47.6563 35.0625C47.7527 34.9998 47.8652 34.9665 47.9802 34.9665C48.0234 34.9666 48.0664 34.9713 48.1086 34.9803C48.1861 34.9966 48.2595 35.0282 48.3246 35.0732C48.3897 35.1183 48.4452 35.1758 48.4878 35.2425L51.2716 39.5214C51.9137 40.5019 52.2692 41.6423 52.2982 42.814C52.3228 43.9867 52.0245 45.1435 51.436 46.1582C51.228 46.5152 50.9852 46.8508 50.7113 47.1601C50.8397 46.4136 50.7482 45.6458 50.4479 44.9504C50.3604 44.7491 50.2558 44.5556 50.1353 44.3721L45.4754 37.2187C45.3872 37.0844 45.3559 36.9206 45.3881 36.7632C45.4204 36.6058 45.5137 36.4676 45.6476 36.3788Z" fill="white"/>
<path d="M27.0268 27.9091L29.1429 29.0365C29.4012 29.175 29.6897 29.2475 29.9828 29.2476C30.3106 29.247 30.6321 29.1579 30.9134 28.9896C31.1947 28.8214 31.4254 28.5804 31.5811 28.2919L35.3465 21.2346L38.0187 26.0894L37.2669 26.5034C37.0018 26.6449 36.7845 26.8619 36.6426 27.1268C36.5007 27.3917 36.4405 27.6928 36.4696 27.9919C36.4947 28.2852 36.606 28.5644 36.7895 28.7945C36.9731 29.0246 37.2206 29.1952 37.5009 29.2848L42.8838 31.0679C43.0397 31.1197 43.203 31.1461 43.3674 31.1459C43.7131 31.1459 44.0491 31.0306 44.322 30.8183C44.5949 30.606 44.7893 30.3088 44.8745 29.9736L46.2508 24.4726C46.3254 24.1878 46.3139 23.8874 46.2178 23.6092C46.1217 23.331 45.9452 23.0876 45.7108 22.9097C45.4739 22.7244 45.1873 22.6137 44.8873 22.5915C44.5874 22.5694 44.2876 22.6369 44.0261 22.7855L43.2564 23.2084L41.7247 20.6448C41.3751 20.0667 40.9504 19.5376 40.4617 19.0711C39.1248 17.7842 37.354 17.0452 35.4989 17C34.1065 16.9643 32.7318 17.317 31.5286 18.0186C30.3255 18.7202 29.3415 19.743 28.6869 20.9724L26.2906 25.4661C26.1774 25.6726 26.1064 25.8996 26.0819 26.1339C26.0574 26.3681 26.0798 26.6049 26.1478 26.8304C26.2151 27.0597 26.3275 27.2732 26.4785 27.4585C26.6294 27.6437 26.8158 27.7969 27.0268 27.9091ZM39.6416 19.9488C40.0428 20.3428 40.396 20.7828 40.6939 21.2598L42.522 24.3196C42.6017 24.4529 42.7301 24.5501 42.88 24.5907C43.03 24.6313 43.1898 24.6122 43.326 24.5373L44.6033 23.8354C44.6606 23.8008 44.7272 23.7845 44.794 23.7886C44.8609 23.7926 44.9249 23.8169 44.9776 23.8582C45.0263 23.8943 45.0627 23.9444 45.082 24.0017C45.1013 24.0591 45.1026 24.121 45.0856 24.1792L43.7057 29.6826C43.6932 29.7287 43.6716 29.7717 43.642 29.8092C43.6125 29.8466 43.5757 29.8777 43.5338 29.9007C43.492 29.9236 43.446 29.9378 43.3985 29.9425C43.351 29.9472 43.3031 29.9423 43.2576 29.928L37.8729 28.1443C37.8146 28.1275 37.7629 28.0933 37.7247 28.0462C37.6865 27.9991 37.6637 27.9414 37.6593 27.8809C37.6528 27.8145 37.6664 27.7477 37.6986 27.6893C37.7307 27.6308 37.7798 27.5834 37.8393 27.5534L39.1172 26.8508C39.1865 26.8131 39.2477 26.7621 39.2973 26.7008C39.3469 26.6394 39.3839 26.5689 39.4062 26.4932C39.4285 26.4175 39.4356 26.3382 39.4272 26.2597C39.4188 26.1813 39.395 26.1053 39.3572 26.0361L36.0988 20.1102C36.5351 19.6835 37.1023 19.4159 37.7091 19.3507C38.055 19.314 38.4047 19.348 38.7369 19.4509C39.0691 19.5537 39.377 19.7232 39.6416 19.9488ZM27.3466 26.0367L29.7464 21.5369C30.2947 20.5028 31.1223 19.6433 32.1349 19.0561C33.1112 18.4914 34.2198 18.196 35.3477 18.2H35.4677C35.8803 18.2113 36.2908 18.263 36.6934 18.3541C35.975 18.6039 35.3447 19.0571 34.8791 19.6585C34.7483 19.8295 34.6332 20.012 34.5353 20.2038L30.5246 27.7243C30.4495 27.8656 30.3216 27.9715 30.1687 28.019C30.0159 28.0664 29.8505 28.0515 29.7086 27.9775L27.592 26.8508C27.5215 26.8134 27.4592 26.7622 27.4087 26.7004C27.3582 26.6386 27.3206 26.5674 27.298 26.4908C27.275 26.4158 27.2674 26.3368 27.2757 26.2588C27.2841 26.1807 27.3082 26.1051 27.3466 26.0367Z" fill="white"/>
<path d="M21.0727 49.4828C22.2482 50.2064 23.6011 50.5904 24.9815 50.5921H30.0991C30.5765 50.5921 31.0343 50.4025 31.3718 50.065C31.7094 49.7274 31.899 49.2696 31.899 48.7923L31.8924 46.3924C31.8924 45.915 31.7028 45.4572 31.3652 45.1197C31.0277 44.7821 30.5699 44.5925 30.0925 44.5925L22.098 44.5979L25.1134 39.9356L25.8334 40.4012C26.0848 40.5668 26.3792 40.655 26.6802 40.655C26.9813 40.655 27.2757 40.5668 27.5271 40.4012C27.7727 40.2408 27.9652 40.0111 28.0801 39.7412C28.1951 39.4713 28.2273 39.1733 28.1727 38.8851L27.2019 33.288C27.1654 33.0781 27.0861 32.8778 26.9689 32.6998C26.8517 32.5218 26.6992 32.3698 26.5207 32.2532C26.3423 32.1366 26.1418 32.0579 25.9317 32.0221C25.7216 31.9863 25.5064 31.9941 25.2994 32.0449L19.7996 33.4326C19.5131 33.5019 19.2536 33.6546 19.0539 33.8714C18.8542 34.0882 18.7233 34.3594 18.6777 34.6506C18.6271 34.9471 18.6657 35.252 18.7884 35.5266C18.9111 35.8013 19.1124 36.0334 19.367 36.1937L20.1008 36.6736L18.5631 39.2385C18.2622 39.7488 18.0218 40.2924 17.8467 40.8584C17.2566 42.7121 17.4202 44.7237 18.3021 46.4578C18.9292 47.7022 19.888 48.7491 21.0727 49.4828ZM30.0931 45.7852C30.1722 45.7852 30.2504 45.8009 30.3234 45.8312C30.3964 45.8615 30.4627 45.906 30.5184 45.962C30.5742 46.0181 30.6183 46.0846 30.6483 46.1577C30.6783 46.2308 30.6935 46.3092 30.6931 46.3882L30.6991 48.7917C30.6991 48.9508 30.6359 49.1034 30.5234 49.2159C30.4109 49.3284 30.2582 49.3916 30.0991 49.3916H24.9839C23.8242 49.3907 22.6874 49.0686 21.6997 48.4611C20.3424 47.6195 19.351 46.2987 18.9218 44.7605C19.4798 45.2747 20.1759 45.6144 20.9245 45.7378C21.1384 45.7762 21.3552 45.7963 21.5725 45.7978L30.0931 45.7852ZM18.9938 41.2135C19.1407 40.7399 19.342 40.2849 19.5938 39.8576L21.4273 36.7924C21.5068 36.6592 21.5317 36.5004 21.4967 36.3493C21.4617 36.1982 21.3695 36.0665 21.2395 35.9819L20.0198 35.1869C19.9617 35.1529 19.9154 35.1019 19.8872 35.0407C19.859 34.9796 19.8502 34.9112 19.862 34.8449C19.87 34.7846 19.8966 34.7283 19.9381 34.6837C19.9796 34.6392 20.0339 34.6087 20.0936 34.5966L25.591 33.2082C25.6377 33.1973 25.6862 33.1961 25.7334 33.2048C25.7806 33.2135 25.8254 33.2318 25.8652 33.2586C25.905 33.2838 25.9392 33.3171 25.9654 33.3562C25.9917 33.3954 26.0094 33.4396 26.0176 33.486L26.9895 39.0903C27.0028 39.1485 26.9976 39.2094 26.9747 39.2645C26.9518 39.3197 26.9123 39.3663 26.8617 39.398C26.8059 39.4352 26.7401 39.4547 26.673 39.4539C26.6059 39.4532 26.5406 39.4322 26.4856 39.3939L25.2622 38.5983C25.1964 38.555 25.1226 38.5254 25.0451 38.511C24.9676 38.4967 24.888 38.498 24.8111 38.5149C24.7339 38.5314 24.6607 38.5629 24.5958 38.6077C24.5308 38.6525 24.4753 38.7096 24.4325 38.7759L20.7595 44.4557C20.1434 44.2659 19.6157 43.8615 19.2722 43.3158C19.0762 43.0065 18.9496 42.6584 18.9011 42.2955C18.8527 41.9325 18.8835 41.5634 18.9914 41.2135H18.9938Z" fill="white"/>
</svg>
