<svg width="71" height="70" viewBox="0 0 71 70" fill="none" xmlns="http://www.w3.org/2000/svg">
<rect x="0.5" width="70" height="70" rx="35" fill="#D67A1D"/>
<g clip-path="url(#clip0_2_4186)">
<path d="M51.1626 38.7926L43.8838 31.514C43.0283 30.6585 42.0277 30.0134 40.9067 29.593C40.4864 28.472 39.8413 27.4714 38.9858 26.6159L31.7071 19.3372C30.1219 17.7519 28.0141 16.8789 25.7723 16.8789C23.5305 16.8789 21.4227 17.7519 19.8374 19.3372C18.2519 20.9224 17.3789 23.0302 17.3789 25.272C17.3789 27.5138 18.2519 29.6217 19.8372 31.2069L27.116 38.4856C27.9715 39.341 28.9721 39.9861 30.0931 40.4065C30.5134 41.5275 31.1585 42.5281 32.0141 43.3836L39.2928 50.6623C40.878 52.2476 42.9858 53.1206 45.2276 53.1206C47.4695 53.1206 49.5773 52.2476 51.1625 50.6623C54.4351 47.3898 54.4351 42.0651 51.1626 38.7926ZM27.9249 37.6771L20.6458 30.3984C19.2765 29.0292 18.5225 27.2086 18.5225 25.2721C18.5225 23.3357 19.2766 21.5151 20.6458 20.1458C22.0151 18.7764 23.8357 18.0224 25.7722 18.0224C27.7087 18.0224 29.5292 18.7765 30.8986 20.1458L38.1773 27.4244C38.7064 27.9536 39.1425 28.5468 39.4807 29.1962C39.442 29.189 39.4031 29.1829 39.3644 29.1763C39.3384 29.1719 39.3125 29.1673 39.2865 29.1631C39.1853 29.1467 39.0839 29.132 38.982 29.1193C38.9725 29.1181 38.9627 29.1173 38.9531 29.1161C38.8597 29.1049 38.7661 29.0956 38.6722 29.0875C38.6469 29.0853 38.6216 29.0833 38.5961 29.0813C38.5049 29.0744 38.4134 29.0686 38.3219 29.0646C38.3092 29.0641 38.2966 29.0632 38.2839 29.0626C38.1802 29.0586 38.0761 29.0565 37.972 29.0563C37.9642 29.0563 37.9566 29.0559 37.9488 29.0559C37.9351 29.0559 37.9213 29.0567 37.9076 29.0568C37.8081 29.0573 37.7084 29.0595 37.6086 29.0635C37.589 29.0643 37.5694 29.0647 37.5498 29.0657C37.5396 29.0661 37.5296 29.0663 37.5194 29.0667C37.3596 28.8548 37.1847 28.6535 36.997 28.4658L29.8568 21.3256C28.7843 20.2532 27.3584 19.6625 25.8416 19.6625C24.2969 19.6625 22.8521 20.2722 21.7734 21.3793C19.617 23.5924 19.6649 27.195 21.88 29.4103L28.9664 36.4966C29.152 36.6822 29.3516 36.8544 29.5611 37.0128L29.5599 37.0263L29.8437 37.2148C29.9003 37.2525 29.9576 37.289 30.0154 37.3245C30.4164 37.5705 30.8446 37.764 31.2905 37.9026C31.2944 37.9038 31.2984 37.9053 31.3024 37.9065C31.3551 37.9227 31.4082 37.9377 31.4614 37.9523C31.4732 37.9556 31.4848 37.9594 31.4967 37.9626C31.5458 37.9759 31.5954 37.9878 31.645 37.9997C31.661 38.0035 31.6768 38.008 31.6929 38.0116C31.7387 38.0223 31.7849 38.0316 31.8311 38.041C31.8512 38.0451 31.871 38.0499 31.8911 38.0538C31.9303 38.0614 31.9698 38.0677 32.0092 38.0745C32.0365 38.0793 32.0637 38.0846 32.0912 38.0889C32.1227 38.0939 32.1546 38.0977 32.1863 38.1022C32.2218 38.1072 32.2572 38.1127 32.2928 38.117C32.3181 38.12 32.3434 38.1221 32.3687 38.1248C32.4111 38.1294 32.4533 38.1342 32.4957 38.1379C32.5159 38.1396 32.536 38.1405 32.5562 38.1419C32.604 38.1455 32.6518 38.1492 32.6998 38.1515C32.7141 38.1521 32.7284 38.1522 32.7427 38.1528C32.7959 38.155 32.8492 38.1572 32.9027 38.1578L32.9066 38.1579L33.4922 38.1554L33.492 38.1363C34.8172 38.0205 36.0463 37.4471 36.9971 36.4963C37.941 35.5523 38.5102 34.3381 38.6337 33.0257C38.6448 33.0273 38.6558 33.0288 38.6669 33.0304C38.7143 33.0372 38.7615 33.0447 38.8084 33.053C38.8259 33.056 38.8434 33.0589 38.8609 33.0621C38.9244 33.074 38.9875 33.0869 39.0502 33.1014C39.0522 33.1018 39.0541 33.1023 39.0561 33.1029C39.1163 33.1169 39.1762 33.1326 39.2357 33.149C39.2535 33.154 39.2713 33.1593 39.2891 33.1644C39.3346 33.1776 39.38 33.1915 39.425 33.2062C39.4429 33.2119 39.4607 33.2177 39.4784 33.2236C39.5341 33.2425 39.5895 33.2623 39.6445 33.2833C39.6493 33.2852 39.654 33.2868 39.6588 33.2886C39.7185 33.3117 39.7777 33.3364 39.8364 33.3621C39.8522 33.369 39.868 33.3764 39.8838 33.3835C39.9275 33.4033 39.9709 33.4236 40.014 33.4448C40.0313 33.4532 40.0486 33.4618 40.0658 33.4704C40.1133 33.4945 40.1604 33.5194 40.2071 33.5452C40.2149 33.5494 40.2227 33.5535 40.2304 33.5578C40.0127 35.111 39.2915 36.5625 38.1774 37.6767C36.9801 38.874 35.3934 39.6174 33.7095 39.7699C33.4918 39.7897 33.2704 39.7998 33.0516 39.7998C32.9126 39.7998 32.774 39.7944 32.6358 39.7865C31.984 39.7495 31.3424 39.6267 30.7234 39.4175C29.6631 39.0594 28.7215 38.4737 27.9249 37.6771ZM36.1628 29.2491C34.6003 29.59 33.1543 30.3736 32.014 31.5139C30.8737 32.6543 30.09 34.1002 29.7492 35.6627L22.6884 28.602C20.9132 26.8268 20.8701 23.9448 22.5921 22.1776C23.4537 21.2933 24.6077 20.8063 25.8414 20.8063C27.0528 20.8063 28.1916 21.278 29.0482 22.1346L36.1628 29.2491ZM33.5164 36.9825C33.6337 35.9736 34.0815 35.0412 34.8113 34.3114C35.54 33.5827 36.4741 33.1341 37.4834 33.0165C37.3662 34.0256 36.9183 34.9585 36.1884 35.6884C35.4596 36.4171 34.5266 36.8641 33.5164 36.9825ZM41.2506 34.3368L48.3114 41.3977C50.0866 43.1728 50.1297 46.0547 48.4077 47.822C47.5461 48.7063 46.3921 49.1933 45.1584 49.1933C43.947 49.1933 42.8081 48.7215 41.9516 47.8649L34.8369 40.7504C36.3995 40.4096 37.8454 39.6258 38.9857 38.4855C40.1261 37.3452 40.9098 35.8994 41.2506 34.3368ZM50.354 49.8539C48.9846 51.2232 47.1641 51.9773 45.2276 51.9773C43.2912 51.9773 41.4706 51.2231 40.1012 49.8539L32.8225 42.5752C32.2933 42.0461 31.8572 41.4529 31.519 40.8035C31.5575 40.8106 31.5962 40.8166 31.6348 40.8232C31.6614 40.8277 31.6879 40.8324 31.7146 40.8368C31.8143 40.8528 31.9144 40.8673 32.0147 40.8797C32.0299 40.8817 32.0452 40.8829 32.0604 40.8848C32.1468 40.895 32.2334 40.9038 32.3201 40.9112C32.3509 40.9139 32.3816 40.9163 32.4123 40.9187C32.4943 40.9248 32.5763 40.9299 32.6584 40.9337C32.6796 40.9346 32.7008 40.9361 32.7221 40.9369C32.8218 40.9408 32.9217 40.9427 33.0217 40.943C33.0317 40.943 33.0415 40.9436 33.0513 40.9436H33.0514C33.1097 40.9436 33.1683 40.9429 33.2269 40.9416C33.2291 40.9416 33.2313 40.9416 33.2334 40.9415C33.3088 40.9399 33.3842 40.937 33.4596 40.9335C33.4664 40.9332 33.4733 40.9331 33.4802 40.9327C33.64 41.1446 33.8149 41.3458 34.0026 41.5336L41.1427 48.6737C42.2153 49.7462 43.6413 50.3369 45.1581 50.3369C46.7028 50.3369 48.1476 49.7272 49.2263 48.6202C51.3827 46.407 51.3348 42.8044 49.1196 40.5892L42.0333 33.5027C41.8477 33.3171 41.648 33.145 41.4386 32.9866L41.4398 32.9733L41.156 32.7847C41.0995 32.7471 41.0423 32.7106 40.9845 32.6751C40.9639 32.6625 40.9427 32.6506 40.9219 32.6382C40.8847 32.616 40.8475 32.5935 40.8097 32.5722C40.7794 32.5551 40.7486 32.5391 40.7181 32.5225C40.6893 32.5069 40.6608 32.4908 40.6318 32.4758C40.5952 32.4568 40.5581 32.439 40.5212 32.4209C40.4977 32.4094 40.4744 32.3972 40.4508 32.386C40.4117 32.3674 40.3721 32.3501 40.3327 32.3325C40.3107 32.3227 40.2889 32.3123 40.2669 32.3027C40.226 32.2851 40.1847 32.2687 40.1434 32.2521C40.1222 32.2436 40.1015 32.2345 40.0803 32.2263C40.0393 32.2103 39.9981 32.1957 39.9568 32.1807C39.9348 32.1727 39.913 32.1641 39.8911 32.1564C39.8499 32.1421 39.8085 32.129 39.767 32.1157C39.7445 32.1084 39.7221 32.1005 39.6995 32.0935C39.6585 32.0809 39.6172 32.0694 39.5759 32.0577C39.5525 32.051 39.5291 32.0438 39.5056 32.0374C39.4668 32.027 39.4277 32.0177 39.3888 32.0081C39.3623 32.0016 39.336 31.9944 39.3094 31.9882C39.2727 31.9797 39.2358 31.9724 39.199 31.9646C39.1698 31.9585 39.1407 31.9517 39.1115 31.946C39.0769 31.9393 39.042 31.9337 39.0073 31.9275C38.9754 31.922 38.9436 31.9158 38.9116 31.9108C38.8801 31.9058 38.8481 31.9018 38.8165 31.8974C38.781 31.8924 38.7456 31.8869 38.71 31.8826C38.682 31.8792 38.6537 31.8768 38.6256 31.8738C38.5861 31.8696 38.5467 31.865 38.507 31.8616C38.4823 31.8595 38.4575 31.8584 38.4327 31.8565C38.3895 31.8534 38.3463 31.85 38.3029 31.8478C38.281 31.8468 38.2591 31.8466 38.2373 31.8457C38.193 31.844 38.1489 31.842 38.1045 31.8413L38.0959 31.8412C38.0957 31.8412 38.0956 31.8412 38.0954 31.8412C38.0952 31.8412 38.0949 31.8412 38.0947 31.8412C38.0692 31.8408 38.0437 31.8407 38.0182 31.8407C36.5008 31.8407 35.0749 32.431 34.0031 33.5027C33.0575 34.4483 32.4882 35.6647 32.3659 36.9732C32.3546 36.9716 32.3434 36.9701 32.3321 36.9684C32.2854 36.9617 32.239 36.9543 32.1926 36.9462C32.1745 36.943 32.1563 36.94 32.1382 36.9367C32.0753 36.9249 32.0127 36.9121 31.9505 36.8977C31.9464 36.8968 31.9423 36.8955 31.9382 36.8947C31.8802 36.881 31.8225 36.8661 31.7651 36.8502C31.7464 36.845 31.7279 36.8395 31.7092 36.8341C31.6646 36.8211 31.6203 36.8075 31.5762 36.7931C31.5577 36.7871 31.5392 36.7812 31.5207 36.7749C31.4662 36.7564 31.4118 36.737 31.358 36.7164C31.3523 36.7142 31.3465 36.7123 31.3408 36.7101C31.2814 36.6871 31.2225 36.6625 31.164 36.637C31.1477 36.6298 31.1315 36.6223 31.1153 36.6149C31.0722 36.5955 31.0293 36.5754 30.9867 36.5546C30.969 36.5459 30.9512 36.5371 30.9335 36.5282C30.8868 36.5046 30.8405 36.4801 30.7946 36.4548C30.7863 36.4502 30.7778 36.4459 30.7696 36.4412C30.9873 34.888 31.7084 33.4365 32.8226 32.3224C34.0199 31.1251 35.6065 30.3816 37.2905 30.2291C37.5084 30.2093 37.7298 30.1993 37.9486 30.1993C38.1473 30.1993 38.3452 30.2073 38.5421 30.2233C38.6481 30.2319 38.7537 30.2433 38.8592 30.2566C39.3408 30.3171 39.8151 30.4254 40.2767 30.5815C41.3371 30.9398 42.2787 31.5256 43.0754 32.3223L50.3541 39.601C53.1806 42.4278 53.1806 47.0272 50.354 49.8539Z" fill="white"/>
<path d="M48.6091 21.0809L44.2998 25.3901L45.1083 26.1986L49.4176 21.8894L48.6091 21.0809Z" fill="white"/>
<path d="M38.8797 16H37.7363V22.0944H38.8797V16Z" fill="white"/>
<path d="M54.4996 31.6206H48.4053V32.764H54.4996V31.6206Z" fill="white"/>
<path d="M25.8893 43.7986L21.5801 48.1079L22.3886 48.9164L26.6978 44.6071L25.8893 43.7986Z" fill="white"/>
<path d="M22.5944 37.2358H16.5V38.3792H22.5944V37.2358Z" fill="white"/>
<path d="M33.2645 47.9058H32.1211V54.0001H33.2645V47.9058Z" fill="white"/>
</g>
<defs>
<clipPath id="clip0_2_4186">
<rect width="38" height="38" fill="white" transform="translate(16.5 16)"/>
</clipPath>
</defs>
</svg>
