<svg width="70" height="70" viewBox="0 0 70 70" fill="none" xmlns="http://www.w3.org/2000/svg">
<rect width="70" height="70" rx="35" fill="#D67A1D"/>
<path fill-rule="evenodd" clip-rule="evenodd" d="M20.8833 28.2349L26.295 22.8216C26.4881 22.6298 26.4881 22.3187 26.295 22.1268L25.0465 20.8798C24.7944 20.6277 24.7944 20.2177 25.0465 19.9657C25.1685 19.8444 25.33 19.7778 25.5034 19.7778C25.6767 19.7778 25.8421 19.8444 25.9603 19.9657L34.5701 28.5721L34.5071 30.3394L33.2546 29.0861C33.1601 28.994 33.038 28.942 32.908 28.942C32.778 28.942 32.652 28.994 32.5575 29.0861L27.1458 34.5002C26.9803 34.6645 26.7597 34.7551 26.5273 34.7551C26.2911 34.7551 26.0704 34.6645 25.9051 34.5002L20.8833 29.4753C20.5406 29.1333 20.5406 28.5768 20.8833 28.2349ZM26.5274 35.7369C27.0237 35.7369 27.4884 35.5443 27.8389 35.1942L32.908 30.1279L34.6095 31.8322C34.7473 31.9704 34.9561 32.0137 35.1373 31.9421C35.3185 31.87 35.4406 31.6975 35.4484 31.5021L35.5587 28.3937C35.5627 28.2574 35.5115 28.1251 35.413 28.029L26.6574 19.2713C26.3501 18.9645 25.9405 18.7959 25.5033 18.7959C25.07 18.7959 24.6605 18.9645 24.3532 19.2713C23.7191 19.9062 23.7191 20.9393 24.3532 21.5746L25.2512 22.4746L20.1861 27.5409C19.4614 28.2657 19.4614 29.4449 20.1861 30.1691L25.2119 35.1941C25.5624 35.5443 26.0272 35.7369 26.5274 35.7369ZM37.1145 37.4439C37.1145 36.7274 36.3307 35.4415 35.7951 34.5694C35.2555 35.4414 34.4717 36.7274 34.4717 37.4439C34.4717 38.3951 35.0664 39.169 35.7951 39.169C36.5238 39.1691 37.1145 38.3951 37.1145 37.4439ZM35.3658 33.3764C35.2673 33.5521 35.1373 33.7639 34.9837 34.0097C34.3181 35.0913 33.491 36.4367 33.491 37.4439C33.491 38.9367 34.5229 40.1509 35.7951 40.1509C37.0633 40.1509 38.0992 38.9367 38.0992 37.4439C38.0992 36.4368 37.2681 35.0913 36.6025 34.0097C36.4528 33.7639 36.319 33.5521 36.2205 33.3764C36.1338 33.2228 35.9723 33.1283 35.7951 33.1283C35.6179 33.1283 35.4564 33.2228 35.3658 33.3764ZM45.9884 45.6142L43.0344 42.6594C44.2515 41.1966 44.9959 39.3955 45.1692 37.5033H49.3481V37.5171C49.155 40.5161 47.9774 43.3574 45.9884 45.6142ZM28.7015 48.2268V48.2252C28.4731 48.0866 28.2525 47.9412 28.0359 47.7908C28.0201 47.7794 28.0044 47.7691 27.9886 47.7577C27.894 47.6924 27.8035 47.625 27.7129 47.5576C27.638 47.5017 27.5632 47.445 27.4884 47.3879C27.4766 47.3792 27.4647 47.3709 27.4568 47.3622C27.3781 47.3016 27.2993 47.2394 27.2244 47.1771L30.1902 44.2085C31.8169 45.4173 33.7626 46.0578 35.7832 46.0578C35.921 46.0578 36.0628 46.0542 36.2006 46.0484V50.2151C36.177 50.2159 36.1494 50.217 36.1219 50.2178C33.4752 50.2812 30.919 49.59 28.7015 48.2268ZM22.2382 37.5034C22.4548 40.9789 23.987 44.1857 26.4801 46.5296L29.4302 43.5791C28.8039 43.0052 28.2564 42.3479 27.8035 41.6248C27.0276 40.381 26.5511 38.9646 26.4171 37.5034H22.2382ZM42.3687 43.3814C40.9508 44.7611 39.1311 45.658 37.1854 45.9514V50.1516C40.2576 49.8424 43.0974 48.5104 45.3148 46.3271L42.3687 43.3814ZM43.3652 31.0346L46.331 28.0695C48.2649 30.4461 49.3481 33.4226 49.3756 36.5211H45.2125C45.1888 34.5206 44.539 32.6132 43.3652 31.0346ZM37.1854 23.1281V27.3251C39.2099 27.6236 41.0572 28.563 42.4908 30.0199C42.5027 30.0309 42.5105 30.0419 42.5224 30.0526C42.5579 30.09 42.5933 30.1266 42.6327 30.1644C42.6642 30.2011 42.6996 30.2385 42.735 30.2759L45.6812 27.329C45.6024 27.2451 45.5236 27.1628 45.4409 27.0809C45.437 27.0742 45.4291 27.0691 45.4252 27.0623C45.0392 26.6748 44.6257 26.3073 44.1924 25.9643V25.9623C42.1797 24.3722 39.7692 23.3892 37.1854 23.1281ZM50.3524 37.0693C50.3524 37.0544 50.3524 37.0399 50.3524 37.0248C50.3524 37.0189 50.3524 37.0138 50.3524 37.0079C50.447 33.3181 49.1393 29.758 46.7289 27.0214C46.7289 27.0206 46.7289 27.0206 46.7289 27.0198C46.6423 26.9209 46.5556 26.8232 46.465 26.7279C46.4374 26.6976 46.406 26.6677 46.3784 26.6381C46.3075 26.5633 46.2366 26.4888 46.1657 26.416C46.142 26.3923 46.1184 26.3695 46.0987 26.3467C46.0081 26.2557 45.9136 26.1655 45.823 26.0769C45.819 26.0749 45.8151 26.0725 45.8151 26.0702C43.3416 23.7188 40.1592 22.3221 36.7246 22.1047C36.5868 22.0968 36.4568 22.1445 36.3583 22.237C36.2559 22.33 36.2008 22.4596 36.2008 22.5951V27.759C36.2008 28.0111 36.3938 28.2226 36.6458 28.2474C38.371 28.4203 39.9701 29.1084 41.2659 30.2187V30.2199C41.4471 30.3767 41.6243 30.5401 41.7897 30.7091C41.8094 30.7265 41.8252 30.7426 41.841 30.7595C41.8686 30.7891 41.9 30.819 41.9276 30.8493C42.0655 30.9959 42.1994 31.1483 42.3293 31.307C42.3333 31.3129 42.3372 31.318 42.3451 31.3236C43.633 32.9026 44.3066 34.8916 44.2238 36.9701C44.2238 36.9768 44.2198 36.9842 44.2198 36.9921C44.1371 38.9804 43.3494 40.8831 42.0024 42.3495C41.9984 42.3519 41.9984 42.3538 41.9984 42.3558C40.4033 44.0841 38.1385 45.0746 35.7832 45.0746C35.7753 45.0746 35.7714 45.0746 35.7675 45.0746C34.322 45.0723 32.9199 44.7036 31.6712 44.0018L31.6752 44.001C31.5216 43.9151 31.3719 43.8249 31.2262 43.7304C31.2105 43.7206 31.1947 43.7111 31.1789 43.7013C31.1356 43.6737 31.0962 43.6453 31.0529 43.6173C30.852 43.4791 30.6551 43.3318 30.4621 43.1746C30.4502 43.1667 30.4424 43.1597 30.4305 43.153C28.5872 41.6425 27.4687 39.4282 27.3662 36.9921C27.3544 36.7286 27.1417 36.5211 26.8779 36.5211H21.7262C21.5923 36.5211 21.4663 36.5743 21.3717 36.6692C21.2811 36.7641 21.2299 36.8925 21.2339 37.0249C21.3481 41.4476 23.4434 45.5127 26.9055 48.1776C26.9252 48.1922 26.9409 48.2071 26.9607 48.2213C27.0197 48.2646 27.0749 48.3079 27.134 48.3496C27.2088 48.4075 27.2876 48.4631 27.3664 48.5186C27.3861 48.5343 27.4097 48.5501 27.4294 48.5659C29.8753 50.287 32.7702 51.2043 35.7833 51.2043C35.8818 51.2043 35.9802 51.2031 36.0827 51.2012C36.0944 51.2012 36.1063 51.2004 36.1181 51.1996C36.2087 51.1976 36.2953 51.1952 36.382 51.1917C36.4135 51.1904 36.4489 51.1893 36.4805 51.1877C36.5631 51.1838 36.642 51.1794 36.7246 51.1747C36.7246 51.1743 36.7286 51.1743 36.7286 51.1743C40.4033 50.9428 43.8024 49.3586 46.3547 46.6677C46.3586 46.6657 46.3586 46.6641 46.3626 46.6622C48.71 44.188 50.1043 40.9897 50.3248 37.6032H50.3288C50.3288 37.5706 50.3288 37.5379 50.3327 37.5052C50.3367 37.424 50.3406 37.3433 50.3446 37.2621C50.3485 37.1978 50.3485 37.1336 50.3524 37.0693Z" fill="white"/>
</svg>
