<svg width="32" height="32" viewBox="0 0 32 32" fill="none" xmlns="http://www.w3.org/2000/svg">
<g clip-path="url(#clip0_2_3454)">
<path d="M30.7791 12.3441H28.7076C28.3846 10.9528 27.8392 9.63713 27.0823 8.423L28.5478 6.95756C28.743 6.76225 28.743 6.44575 28.5478 6.2505L25.06 2.7625C24.9662 2.66869 24.8391 2.616 24.7065 2.616C24.5738 2.616 24.4467 2.66869 24.3529 2.7625L22.8874 4.228C21.6726 3.47081 20.3569 2.92537 18.9661 2.60256V0.53125C18.9661 0.255125 18.7423 0.03125 18.4661 0.03125H13.5336C13.2575 0.03125 13.0336 0.255125 13.0336 0.53125V2.60262C11.6422 2.92562 10.3265 3.47106 9.11233 4.22794L7.64695 2.7625C7.4517 2.56744 7.1352 2.56731 6.93983 2.7625L3.45195 6.25031C3.35814 6.34412 3.30545 6.47125 3.30545 6.60388C3.30545 6.7365 3.35814 6.86363 3.45189 6.95744L4.91739 8.42288C4.16027 9.63756 3.61483 10.9532 3.29195 12.3441H1.2207C0.944578 12.3441 0.720703 12.568 0.720703 12.8441V17.7767C0.720703 18.0528 0.944578 18.2767 1.2207 18.2767H3.29195C3.61502 19.6681 4.16039 20.9838 4.91733 22.1981L3.45202 23.6634C3.25677 23.8587 3.25677 24.1752 3.45202 24.3704L6.93983 27.8584C7.03364 27.9522 7.16077 28.0049 7.29339 28.0049C7.42602 28.0049 7.55314 27.9522 7.64695 27.8584L9.11233 26.3929C9.96195 26.922 10.8676 27.3498 11.8133 27.6699V27.9401C11.8133 28.721 12.3336 29.3824 13.0457 29.5966L13.0441 29.6206C13.0041 30.2055 13.2105 30.7723 13.6254 31.2164C14.0719 31.6945 14.703 31.9688 15.3568 31.9688H16.6431C17.8728 31.9688 18.867 30.9886 18.9559 29.6888L18.9624 29.5941C19.6703 29.3774 20.1866 28.7179 20.1866 27.9401V27.6698C21.1325 27.3496 22.0382 26.9218 22.8875 26.3928L24.3528 27.8582C24.5481 28.0534 24.8647 28.0536 25.0599 27.8582L28.5478 24.3704C28.6416 24.2766 28.6943 24.1495 28.6943 24.0169C28.6943 23.8843 28.6416 23.7571 28.5479 23.6633L27.0825 22.1979C27.8395 20.9832 28.3849 19.6675 28.7078 18.2766H30.7792C31.0553 18.2766 31.2792 18.0527 31.2792 17.7766V12.8441C31.2791 12.568 31.0552 12.3441 30.7791 12.3441ZM12.8133 25.8056H19.1866V26.7279H12.8133V25.8056ZM19.1865 24.5578V24.8056H12.8133V24.5578C12.8133 23.7224 12.4016 22.9979 11.6837 22.5701C9.13733 21.0529 7.55545 18.2711 7.55545 15.3103C7.55545 10.6541 11.3436 6.86594 15.9999 6.86594C20.6562 6.86594 24.4443 10.6541 24.4443 15.3103C24.4443 18.2711 22.8625 21.0529 20.316 22.5701C19.5982 22.9979 19.1865 23.7224 19.1865 24.5578ZM16.6431 30.9688H15.3567C14.9789 30.9688 14.6142 30.8102 14.3561 30.5339C14.1325 30.2944 14.0208 29.9943 14.0417 29.6888L14.043 29.6696H17.9527C17.8798 30.4134 17.3251 30.9688 16.6431 30.9688ZM18.457 28.6697H13.5428C13.1405 28.6697 12.8132 28.3424 12.8132 27.9401V27.7279H19.1865V27.9401C19.1865 28.3424 18.8593 28.6697 18.457 28.6697ZM30.2791 17.2767H28.3041C28.0656 17.2767 27.8603 17.4451 27.8137 17.6789C27.5056 19.2241 26.9047 20.6741 26.0275 21.9886C25.8952 22.1869 25.9213 22.4511 26.0898 22.6197L27.4871 24.017L24.7063 26.7977L23.3091 25.4005C23.1406 25.232 22.8764 25.2059 22.678 25.3382C21.8978 25.8589 21.0621 26.285 20.1865 26.6096V24.5579C20.1865 24.0766 20.4143 23.6758 20.828 23.4293C22.2088 22.6065 23.3653 21.437 24.1725 20.0472C25.0045 18.6143 25.4444 16.9764 25.4444 15.3104C25.4444 10.1028 21.2076 5.866 16 5.866C10.7923 5.866 6.55552 10.1028 6.55552 15.3104C6.55552 16.9764 6.99533 18.6143 7.82745 20.0472C8.63458 21.437 9.79108 22.6065 11.1719 23.4292C11.5856 23.6757 11.8134 24.0765 11.8134 24.5579V26.6096C10.938 26.2852 10.1023 25.8591 9.32176 25.3382C9.12327 25.2057 8.85927 25.232 8.69064 25.4006L7.29352 26.7978L4.51283 24.017L5.91002 22.6199C6.07858 22.4513 6.10464 22.187 5.97233 21.9887C5.09527 20.6748 4.49433 19.2248 4.18602 17.6789C4.13939 17.4451 3.93414 17.2767 3.69564 17.2767H1.7207V13.3441H3.69552C3.93395 13.3441 4.13927 13.1758 4.18589 12.9419C4.49395 11.3968 5.09495 9.94675 5.9722 8.63219C6.10452 8.43388 6.07845 8.16975 5.90989 8.00106L4.51258 6.60381L7.29339 3.82312L8.69058 5.22038C8.8592 5.38894 9.12339 5.415 9.32176 5.28269C10.6356 4.40575 12.0856 3.80481 13.6314 3.4965C13.8652 3.44988 14.0336 3.24463 14.0336 3.00612V1.03125H17.9662V3.00625C17.9662 3.24469 18.1346 3.45 18.3685 3.49662C19.9135 3.80456 21.3634 4.4055 22.6781 5.28288C22.8765 5.41531 23.1406 5.38906 23.3093 5.22056L24.7065 3.82319L27.4872 6.604L26.0899 8.00125C25.9213 8.16988 25.8953 8.43412 26.0276 8.63244C26.9046 9.94631 27.5056 11.3963 27.8138 12.9419C27.8605 13.1757 28.0657 13.3442 28.3042 13.3442H30.2792V17.2767H30.2791ZM21.6587 13.9803C21.5811 13.7412 21.369 13.573 21.1183 13.5519L17.8465 13.2771L16.5741 10.2502C16.4767 10.0188 16.2514 9.86919 15.9999 9.86919C15.7484 9.86919 15.5231 10.0188 15.4256 10.2503L14.1533 13.2771L10.8813 13.5519C10.6308 13.573 10.4188 13.7411 10.3411 13.9801C10.2635 14.2191 10.3362 14.4797 10.5265 14.6441L13.0121 16.7896L12.2624 19.986C12.2186 20.1724 12.2615 20.3651 12.38 20.5147C12.4993 20.6652 12.6775 20.7516 12.8688 20.7516C12.9821 20.7516 13.0936 20.7203 13.1914 20.6611L15.9999 18.9603L18.8085 20.6611C18.9061 20.7203 19.0178 20.7516 19.131 20.7516C19.3223 20.7516 19.5005 20.6652 19.6198 20.5147C19.7383 20.3653 19.7811 20.1727 19.7375 19.9861L18.9877 16.7894L21.4732 14.6441C21.6635 14.4799 21.7363 14.2193 21.6587 13.9803ZM18.1051 16.2304C17.9642 16.3521 17.9025 16.5419 17.945 16.7231L18.559 19.3411L16.2589 17.9481C16.1793 17.8999 16.0896 17.8758 15.9998 17.8758C15.9101 17.8758 15.8205 17.8999 15.7408 17.9481L13.4407 19.3411L14.0547 16.7231C14.0972 16.5419 14.0355 16.352 13.8946 16.2304L11.859 14.4733L14.5386 14.2483C14.7241 14.2327 14.8856 14.1154 14.9577 13.9438L15.9999 11.4649L17.042 13.9438C17.1141 14.1154 17.2756 14.2327 17.461 14.2483L20.1406 14.4733L18.1051 16.2304Z" fill="black"/>
</g>
<defs>
<clipPath id="clip0_2_3454">
<rect width="32" height="32" fill="white"/>
</clipPath>
</defs>
</svg>
