<svg width="20" height="22" viewBox="0 0 20 22" fill="none" xmlns="http://www.w3.org/2000/svg">
<path d="M19.7056 13.1138C19.2732 12.4412 18.8408 11.7926 18.4084 11.1199C18.3123 10.9758 18.3123 10.8797 18.4084 10.7356C18.8408 10.0869 19.2492 9.43831 19.6816 8.78969C20.1861 8.02095 19.9218 7.27624 19.057 6.96394C18.3363 6.69969 17.6156 6.41141 16.8949 6.14716C16.7508 6.09912 16.6787 6.00302 16.6787 5.83486C16.6547 5.0421 16.6066 4.24934 16.5586 3.48061C16.5105 2.63981 15.8619 2.15935 15.0451 2.37555C14.2764 2.56774 13.5077 2.78394 12.763 3.00015C12.5948 3.0482 12.4987 3.00015 12.3786 2.88004C11.8981 2.25544 11.3937 1.65486 10.9132 1.05429C10.3847 0.381644 9.5679 0.381644 9.01538 1.05429C8.53491 1.65486 8.03043 2.25544 7.574 2.85601C7.45388 3.02417 7.33377 3.0482 7.14158 3.00015C6.39687 2.78394 5.65216 2.59176 5.12365 2.44762C4.09066 2.20739 3.46607 2.61578 3.41802 3.48061C3.36997 4.27337 3.32193 5.06613 3.2979 5.88291C3.2979 6.05107 3.22583 6.12314 3.0817 6.19521C2.33698 6.48348 1.59227 6.77176 0.847558 7.06004C0.078823 7.37233 -0.161407 8.11704 0.295028 8.81371C0.727443 9.48636 1.15986 10.135 1.59227 10.8076C1.68836 10.9518 1.68836 11.0478 1.59227 11.216C1.13583 11.8887 0.703419 12.5613 0.271004 13.258C-0.137386 13.9066 0.126865 14.6753 0.847554 14.9636C1.59227 15.2519 2.361 15.5401 3.10571 15.8284C3.27387 15.8765 3.32192 15.9726 3.32192 16.1407C3.34594 16.9095 3.44203 17.6542 3.44203 18.4229C3.44203 19.1916 4.11468 19.8883 5.05157 19.6C5.79629 19.3598 6.541 19.1916 7.28571 18.9754C7.42985 18.9274 7.52594 18.9514 7.62203 19.0955C8.12652 19.7201 8.60698 20.3207 9.11146 20.9453C9.66399 21.618 10.4567 21.618 10.9853 20.9453C11.4897 20.3207 11.9702 19.7201 12.4747 19.0955C12.5708 18.9754 12.6428 18.9274 12.811 18.9754C13.5797 19.1916 14.3485 19.3838 15.1172 19.6C15.91 19.8162 16.5826 19.3358 16.6066 18.519C16.6547 17.7262 16.7027 16.9335 16.7267 16.1167C16.7267 15.9245 16.8228 15.8524 16.967 15.8044C17.6877 15.5401 18.4324 15.2519 19.1531 14.9636C19.9218 14.5792 20.162 13.8105 19.7056 13.1138ZM13.9641 9.17406L9.15951 13.9787C9.0394 14.0988 8.87124 14.1949 8.70308 14.2189C8.65503 14.2189 8.58296 14.2429 8.53492 14.2429C8.31871 14.2429 8.07848 14.1468 7.91032 13.9787L5.94043 12.0088C5.60411 11.6724 5.60411 11.1199 5.94043 10.7836C6.27676 10.4473 6.82929 10.4473 7.16561 10.7836L8.5109 12.1289L12.6909 7.94888C13.0272 7.61256 13.5797 7.61256 13.9161 7.94888C14.3004 8.2852 14.3004 8.83773 13.9641 9.17406Z" fill="#D67A1D"/>
</svg>
