<svg width="25" height="30" viewBox="0 0 25 30" fill="none" xmlns="http://www.w3.org/2000/svg">
<path d="M12.5 25.8658L19.0996 19.2661C22.7445 15.6213 22.7445 9.71173 19.0996 6.06684C15.4548 2.42194 9.54523 2.42194 5.90033 6.06684C2.25544 9.71173 2.25544 15.6213 5.90033 19.2661L12.5 25.8658ZM12.5 29.637L4.01472 21.1518C-0.671573 16.4654 -0.671573 8.86752 4.01472 4.18122C8.70101 -0.505069 16.2989 -0.505069 20.9853 4.18122C25.6716 8.86752 25.6716 16.4654 20.9853 21.1518L12.5 29.637ZM12.5 15.3332C13.9728 15.3332 15.1667 14.1393 15.1667 12.6665C15.1667 11.1937 13.9728 9.99984 12.5 9.99984C11.0272 9.99984 9.83333 11.1937 9.83333 12.6665C9.83333 14.1393 11.0272 15.3332 12.5 15.3332ZM12.5 17.9998C9.55448 17.9998 7.16667 15.612 7.16667 12.6665C7.16667 9.72098 9.55448 7.33317 12.5 7.33317C15.4455 7.33317 17.8333 9.72098 17.8333 12.6665C17.8333 15.612 15.4455 17.9998 12.5 17.9998Z" fill="#D67A1D"/>
</svg>
