<svg width="25" height="24" viewBox="0 0 25 24" fill="none" xmlns="http://www.w3.org/2000/svg">
<path d="M8.98741 10.2428C10.236 12.4384 12.0616 14.264 14.2572 15.5125L15.4365 13.8615C15.8287 13.3127 16.5688 13.1431 17.1608 13.4664C19.0365 14.4911 21.1095 15.1137 23.2719 15.2849C23.9653 15.3399 24.5 15.9185 24.5 16.6141V22.5645C24.5 23.2481 23.9829 23.8209 23.3029 23.8908C22.5964 23.9635 21.8836 24 21.1667 24C9.75279 24 0.5 14.7472 0.5 3.33333C0.5 2.61636 0.53656 1.90361 0.609187 1.19701C0.679067 0.517 1.25192 0 1.93553 0H7.88589C8.58147 0 9.16017 0.53472 9.21507 1.22812C9.38623 3.39051 10.0089 5.46352 11.0336 7.33925C11.3569 7.9312 11.1873 8.67139 10.6385 9.06343L8.98741 10.2428ZM5.62567 9.36693L8.15893 7.55745C7.44063 6.00685 6.94837 4.36244 6.69636 2.66667H3.17876C3.17071 2.88843 3.16667 3.11067 3.16667 3.33333C3.16667 13.2744 11.2256 21.3333 21.1667 21.3333C21.3893 21.3333 21.6116 21.3293 21.8333 21.3212V17.8036C20.1376 17.5516 18.4932 17.0593 16.9425 16.3411L15.1331 18.8744C14.4011 18.59 13.6941 18.2553 13.0165 17.8748L12.9391 17.8307C10.3263 16.3449 8.15512 14.1737 6.66933 11.5609L6.62525 11.4835C6.24465 10.8059 5.91005 10.0989 5.62567 9.36693Z" fill="#D67A1D"/>
</svg>
