<svg width="27" height="28" viewBox="0 0 27 28" fill="none" xmlns="http://www.w3.org/2000/svg">
<path d="M7.17148 22.659L8.13778 23.2225C9.75212 24.1638 11.5868 24.6665 13.5013 24.6665C19.3924 24.6665 24.168 19.8909 24.168 13.9998C24.168 8.1088 19.3924 3.33317 13.5013 3.33317C7.61026 3.33317 2.83464 8.1088 2.83464 13.9998C2.83464 15.9149 3.33761 17.7502 4.27954 19.3649L4.84272 20.3302L3.9714 23.5324L7.17148 22.659ZM0.173542 27.3332L1.97616 20.7085C0.826582 18.738 0.167969 16.4458 0.167969 13.9998C0.167969 6.63604 6.1375 0.666504 13.5013 0.666504C20.8651 0.666504 26.8347 6.63604 26.8347 13.9998C26.8347 21.3636 20.8651 27.3332 13.5013 27.3332C11.0561 27.3332 8.76468 26.675 6.79448 25.5261L0.173542 27.3332ZM8.68976 7.74428C8.86826 7.73173 9.04737 7.72981 9.22612 7.73853C9.29833 7.74328 9.3702 7.75162 9.44212 7.75993C9.65446 7.78445 9.88797 7.91377 9.96648 8.09176C10.3642 8.99365 10.7502 9.9007 11.1243 10.8127C11.2068 11.014 11.1571 11.2749 11 11.5274C10.9203 11.6569 10.795 11.8385 10.65 12.0242C10.4992 12.2172 10.1746 12.572 10.1746 12.572C10.1746 12.572 10.0432 12.7296 10.0927 12.9257C10.112 12.9998 10.1736 13.1078 10.2294 13.1986C10.2604 13.2489 10.2891 13.2938 10.3077 13.3249C10.6489 13.8946 11.1076 14.4722 11.6679 15.0153C11.8284 15.1709 11.9841 15.3297 12.1516 15.4772C12.776 16.0277 13.4824 16.4776 14.2453 16.8108L14.2521 16.8138C14.3648 16.8624 14.4227 16.8889 14.5876 16.9589C14.6708 16.9941 14.7559 17.0245 14.8432 17.0476C14.8748 17.0558 14.9072 17.0605 14.9397 17.0628C15.1553 17.0757 15.28 16.9374 15.3332 16.8738C16.2979 15.7052 16.3861 15.6289 16.3928 15.6294V15.6316C16.5196 15.498 16.7189 15.4516 16.8968 15.4625C16.978 15.4674 17.0588 15.483 17.1327 15.5168C17.8417 15.8402 19.0011 16.3448 19.0011 16.3448L19.7764 16.6933C19.9063 16.756 20.0248 16.9036 20.0305 17.047C20.034 17.1362 20.0436 17.2802 20.0117 17.5437C19.97 17.8886 19.8651 18.304 19.7608 18.5216C19.6875 18.6742 19.5925 18.8097 19.4821 18.9244C19.3324 19.0798 19.2212 19.1742 19.0412 19.3084C18.9316 19.39 18.8748 19.4284 18.8748 19.4284C18.6896 19.5452 18.5852 19.6036 18.3645 19.721C18.0213 19.9038 17.6421 20.0089 17.2537 20.0289C17.0061 20.0416 16.7592 20.0594 16.5119 20.0461C16.5009 20.0454 15.7543 19.9308 15.7543 19.9308C13.8584 19.4321 12.1051 18.498 10.6338 17.2025C10.333 16.9377 10.054 16.6512 9.76925 16.3677C8.58384 15.1876 7.68642 13.915 7.14225 12.7113C6.8739 12.1177 6.70398 11.482 6.7013 10.8278C6.69638 10.0186 6.96132 9.23077 7.45425 8.58898C7.55142 8.46246 7.64365 8.33124 7.80278 8.18098C7.9713 8.02185 8.07856 7.93642 8.19409 7.87732C8.34809 7.79853 8.51724 7.7564 8.68976 7.74428Z" fill="#D67A1D"/>
</svg>
