<svg width="15" height="20" viewBox="0 0 15 20" fill="none" xmlns="http://www.w3.org/2000/svg">
<path d="M2.83594 2V18H12.8359V2H2.83594ZM1.83594 0H13.8359C14.3882 0 14.8359 0.44772 14.8359 1V19C14.8359 19.5523 14.3882 20 13.8359 20H1.83594C1.28366 20 0.835938 19.5523 0.835938 19V1C0.835938 0.44772 1.28366 0 1.83594 0ZM7.83594 15C8.38824 15 8.83594 15.4477 8.83594 16C8.83594 16.5523 8.38824 17 7.83594 17C7.28364 17 6.83594 16.5523 6.83594 16C6.83594 15.4477 7.28364 15 7.83594 15Z" fill="white"/>
</svg>
