<svg width="21" height="20" viewBox="0 0 21 20" fill="none" xmlns="http://www.w3.org/2000/svg">
<path d="M15.7137 13.8474L19.2826 17.4163L18.1041 18.5948L14.5352 15.0259C13.2519 16.0526 11.6245 16.6667 9.85449 16.6667C5.71449 16.6667 2.35449 13.3067 2.35449 9.16675C2.35449 5.02675 5.71449 1.66675 9.85449 1.66675C13.9945 1.66675 17.3545 5.02675 17.3545 9.16675C17.3545 10.9367 16.7403 12.5642 15.7137 13.8474ZM14.0417 13.2291C15.0607 12.1789 15.6878 10.7464 15.6878 9.16675C15.6878 5.94383 13.0774 3.33341 9.85449 3.33341C6.63158 3.33341 4.02116 5.94383 4.02116 9.16675C4.02116 12.3897 6.63158 15.0001 9.85449 15.0001C11.4342 15.0001 12.8667 14.373 13.9168 13.354L14.0417 13.2291Z" fill="white"/>
</svg>
