<svg width="27" height="26" viewBox="0 0 27 26" fill="none" xmlns="http://www.w3.org/2000/svg">
<path d="M19.6701 0.409668L21.2087 3.29464L24.0936 4.83328L21.2087 6.37193L19.6701 9.2569L18.1314 6.37193L15.2464 4.83328L18.1314 3.29464L19.6701 0.409668ZM12.2811 9.88883L18.1145 12.9999L12.2811 16.1111L9.17003 21.9444L6.05891 16.1111L0.225586 12.9999L6.05891 9.88883L9.17003 4.0555L12.2811 9.88883ZM13.1561 12.9999L10.5565 11.6135L9.17003 9.01383L7.78355 11.6135L5.18391 12.9999L7.78355 14.3864L9.17003 16.9861L10.5565 14.3864L13.1561 12.9999ZM22.7811 18.0556L20.8368 14.4097L18.8923 18.0556L15.2464 19.9999L18.8923 21.9444L20.8368 25.5902L22.7811 21.9444L26.427 19.9999L22.7811 18.0556Z" fill="white"/>
</svg>
