<svg width="32" height="32" viewBox="0 0 32 32" fill="none" xmlns="http://www.w3.org/2000/svg">
<g clip-path="url(#clip0_1113_4040)">
<path d="M30.1769 22.4247C29.5806 22.1047 28.8727 22.0513 28.2375 22.2792L21.7939 24.592C21.8327 24.4756 21.8618 24.3592 21.8812 24.238C21.9927 23.5398 21.7988 22.8368 21.3479 22.3083C20.8969 21.775 20.2375 21.4744 19.5394 21.4744H16.0097C15.1903 21.4744 14.3951 21.1883 13.7212 20.6501C12.1842 19.4235 9.06179 17.8041 4.96967 20.1023V19.2877C4.96967 18.7253 4.51391 18.2695 3.95149 18.2695H1.56603C1.00361 18.2695 0.547852 18.7253 0.547852 19.2877V29.4889C0.547852 30.0513 1.00361 30.5071 1.56603 30.5071H3.95149C4.51391 30.5071 4.96967 30.0513 4.96967 29.4889V28.9944C5.74543 28.9847 7.71876 29.0962 10.5454 30.2065C12.3588 30.9144 14.2448 31.2732 16.126 31.2732C17.1685 31.2732 18.2109 31.1617 19.2339 30.9386C22.0557 30.3229 26.2691 29.072 30.3175 26.5944C30.8557 26.2647 31.2436 25.7168 31.3891 25.0913C31.6363 24.0392 31.1418 22.9435 30.1769 22.4247ZM4.12119 29.4841C4.12119 29.5762 4.04361 29.6538 3.95149 29.6538H1.56603C1.47391 29.6538 1.39634 29.5762 1.39634 29.4841V19.2829C1.39634 19.1907 1.47391 19.1132 1.56603 19.1132H3.95149C4.04361 19.1132 4.12119 19.1907 4.12119 19.2829V29.4841ZM30.5648 24.8974C30.4679 25.3047 30.2206 25.6586 29.8763 25.8671C25.9248 28.2865 21.8085 29.5083 19.0545 30.1095C16.3539 30.6962 13.5175 30.4586 10.8557 29.4162C8.01937 28.3059 6.00725 28.1459 5.07149 28.1459C5.0327 28.1459 4.99876 28.1459 4.96482 28.1459V21.072C8.83876 18.6671 11.7721 20.1798 13.1879 21.3095C14.0024 21.9641 15.006 22.3229 16.0048 22.3229H19.5345C19.9806 22.3229 20.4072 22.5168 20.6982 22.861C20.9939 23.2053 21.1151 23.6514 21.0375 24.1071C20.9697 24.5338 20.6982 24.8974 20.3248 25.1253C20.3006 25.135 20.2715 25.1495 20.2521 25.1689C20.0097 25.2998 19.7285 25.3726 19.4327 25.3726H14.4727C14.24 25.3726 14.046 25.5617 14.046 25.7992C14.046 26.0368 14.2351 26.2259 14.4727 26.2259H19.4375C19.8885 26.2259 20.3151 26.1095 20.6836 25.9059L28.5285 23.0938C28.9357 22.9483 29.3963 22.9774 29.7939 23.1956C30.4048 23.5107 30.7248 24.2186 30.5648 24.8974Z" fill="black"/>
<path d="M10.3664 11.9807C10.6912 12.2862 11.0258 12.6062 11.113 12.8825C11.21 13.1831 11.1227 13.6486 11.0403 14.1044C10.9142 14.8074 10.7785 15.5347 11.1858 16.0874C11.593 16.645 12.33 16.7468 13.0427 16.8438C13.4936 16.9068 13.9639 16.9698 14.2112 17.1492C14.4536 17.3237 14.6573 17.7504 14.8512 18.1577C15.147 18.7831 15.4864 19.4862 16.1506 19.7044C16.2864 19.748 16.4221 19.7674 16.553 19.7674C17.0573 19.7674 17.5664 19.4959 18.0561 19.2292C18.4682 19.0062 18.8949 18.7783 19.2197 18.7783C19.5445 18.7783 19.9712 19.0062 20.3833 19.2292C21.0088 19.5637 21.6488 19.9128 22.2936 19.7044C22.9627 19.4862 23.2973 18.7831 23.593 18.1577C23.787 17.7504 23.9906 17.3286 24.233 17.1492C24.4803 16.9698 24.9506 16.9068 25.4015 16.8438C26.1142 16.7468 26.8512 16.6498 27.2585 16.0922C27.6609 15.5395 27.53 14.8122 27.4039 14.1092C27.3215 13.6534 27.2391 13.188 27.3312 12.8874C27.4185 12.611 27.7579 12.2959 28.0779 11.9856C28.5821 11.5056 29.1542 10.9625 29.1542 10.2498C29.1542 9.53708 28.5821 8.99405 28.0779 8.51405C27.753 8.2086 27.4185 7.8886 27.3312 7.61223C27.2342 7.31163 27.3215 6.84617 27.4039 6.39042C27.53 5.68739 27.6658 4.96011 27.2585 4.40739C26.8512 3.84981 26.1142 3.74799 25.4015 3.65102C24.9506 3.58799 24.4803 3.52496 24.233 3.34557C23.9906 3.17102 23.787 2.74436 23.593 2.33708C23.2973 1.71163 22.9579 1.0086 22.2936 0.790416C21.6536 0.581931 21.0088 0.931022 20.3833 1.26557C19.9712 1.4886 19.5445 1.71648 19.2197 1.71648C18.8949 1.71648 18.4682 1.4886 18.0561 1.26557C17.4306 0.931022 16.7858 0.581931 16.1458 0.790416C15.4767 1.0086 15.1421 1.71163 14.8464 2.33708C14.6524 2.74436 14.4488 3.16617 14.2064 3.34557C13.9591 3.52496 13.4888 3.58799 13.0379 3.65102C12.3252 3.74799 11.5882 3.84496 11.1809 4.40739C10.7785 4.96011 10.9094 5.68739 11.0355 6.39042C11.1179 6.84617 11.2003 7.31163 11.1082 7.61223C11.0161 7.8886 10.6815 8.20375 10.3615 8.51405C9.85728 8.99405 9.28516 9.53708 9.28516 10.2498C9.28516 10.9577 9.86213 11.5007 10.3664 11.9807ZM10.9482 9.12496C11.3506 8.74678 11.7627 8.35405 11.9179 7.8692C12.0827 7.36981 11.9761 6.79284 11.8742 6.23526C11.7773 5.70678 11.6803 5.1589 11.8694 4.90193C12.0633 4.63526 12.6161 4.56254 13.1542 4.48981C13.7118 4.41708 14.2888 4.33951 14.7106 4.0292C15.1276 3.7286 15.3749 3.20496 15.6173 2.70072C15.85 2.21102 16.0973 1.70193 16.4173 1.59526C16.4609 1.58072 16.5094 1.57587 16.5579 1.57587C16.8536 1.57587 17.2658 1.7989 17.6633 2.01223C18.1676 2.28375 18.6912 2.56496 19.2294 2.56496C19.7676 2.56496 20.2912 2.28375 20.7955 2.01223C21.2609 1.76011 21.7409 1.50314 22.0415 1.60011C22.3615 1.70193 22.6039 2.21102 22.8415 2.70557C23.0839 3.20981 23.3312 3.7286 23.7482 4.03405C24.17 4.33951 24.747 4.41708 25.3046 4.49466C25.8427 4.56739 26.3955 4.64011 26.5894 4.90678C26.7785 5.1686 26.6815 5.71163 26.5846 6.24011C26.4827 6.79769 26.3809 7.37466 26.5409 7.87405C26.6961 8.35405 27.113 8.74678 27.5106 9.12981C27.9082 9.50799 28.3252 9.90072 28.3252 10.2498C28.3252 10.5989 27.913 10.9916 27.5106 11.3698C27.1082 11.748 26.6961 12.1407 26.5409 12.6256C26.3761 13.125 26.4827 13.7019 26.5846 14.2595C26.6815 14.788 26.7785 15.331 26.5894 15.5928C26.3955 15.8595 25.8427 15.9322 25.3046 16.005C24.747 16.0777 24.17 16.1553 23.7482 16.4656C23.3312 16.7662 23.0839 17.2898 22.8415 17.7941C22.6088 18.2886 22.3615 18.7928 22.0415 18.8995C21.7458 18.9965 21.2609 18.7347 20.7955 18.4874C20.2912 18.2159 19.7676 17.9347 19.2294 17.9347C18.6912 17.9347 18.1676 18.2159 17.6633 18.4874C17.1979 18.7395 16.7179 18.9965 16.4173 18.8995C16.0973 18.7977 15.8549 18.2886 15.6173 17.7941C15.3749 17.2898 15.1276 16.771 14.7106 16.4656C14.2888 16.1601 13.7118 16.0825 13.1542 16.005C12.6161 15.9322 12.0633 15.8595 11.8694 15.5928C11.6803 15.331 11.7773 14.788 11.8742 14.2595C11.9761 13.7019 12.0779 13.125 11.9179 12.6256C11.7627 12.1456 11.3458 11.7528 10.9482 11.3698C10.5506 10.9916 10.1336 10.5989 10.1336 10.2498C10.1336 9.89587 10.5506 9.50314 10.9482 9.12496Z" fill="black"/>
<path d="M19.2246 16.1748C22.4925 16.1748 25.1543 13.513 25.1543 10.2451C25.1543 6.97725 22.4973 4.31543 19.2246 4.31543C15.9519 4.31543 13.2949 6.97725 13.2949 10.2451C13.2949 13.513 15.9567 16.1748 19.2246 16.1748ZM19.2246 5.16391C22.027 5.16391 24.3058 7.4427 24.3058 10.2451C24.3058 13.0476 22.027 15.3263 19.2246 15.3263C16.4222 15.3263 14.1434 13.0476 14.1434 10.2451C14.1434 7.4427 16.4222 5.16391 19.2246 5.16391Z" fill="black"/>
<path d="M17.2408 12.8827C17.5026 13.1445 17.8565 13.2899 18.225 13.2899C18.5935 13.2899 18.9474 13.1445 19.2093 12.8827L22.5111 9.58084C22.7729 9.31902 22.9184 8.96508 22.9184 8.59659C22.9184 8.22811 22.7729 7.87417 22.5111 7.61235C21.9681 7.06932 21.0808 7.06932 20.5377 7.61235L18.225 9.92508L17.905 9.60508C17.362 9.06205 16.4796 9.06205 15.9317 9.60508C15.3887 10.1481 15.3887 11.0305 15.9317 11.5784L17.2408 12.8827ZM16.5377 10.2063C16.6444 10.0996 16.785 10.0463 16.9256 10.0463C17.0662 10.0463 17.2068 10.0996 17.3135 10.2063L17.9341 10.822C18.099 10.9869 18.3705 10.9869 18.5353 10.822L21.1487 8.20871C21.362 7.99538 21.7062 7.99538 21.9196 8.20871C22.0214 8.31053 22.0796 8.44629 22.0796 8.59174C22.0796 8.7372 22.0214 8.87296 21.9196 8.97962L18.6177 12.2814C18.4141 12.4851 18.0505 12.4851 17.8468 12.2814L16.5426 10.9772C16.3244 10.7639 16.3244 10.4196 16.5377 10.2063Z" fill="black"/>
</g>
<defs>
<clipPath id="clip0_1113_4040">
<rect width="32" height="32" fill="white"/>
</clipPath>
</defs>
</svg>
