<svg width="32" height="32" viewBox="0 0 32 32" fill="none" xmlns="http://www.w3.org/2000/svg">
<path d="M29.5623 20.5918C29.2932 20.1426 28.1908 18.8075 25.3028 20.4894L20.2872 23.4108C20.0804 23.5312 19.8707 23.6219 19.654 23.6838C19.7243 23.5506 19.7813 23.4048 19.8234 23.2475C20.0873 22.2623 19.5027 21.234 18.4923 20.9064C18.471 20.8995 18.4491 20.894 18.4269 20.89C16.99 20.6308 15.5696 20.1173 14.4283 19.7048C14.0307 19.561 13.6552 19.4253 13.3353 19.3216C12.0308 18.8983 10.8564 19.4193 9.87978 19.9848L6.19622 22.1174L5.87172 21.5441C5.70915 21.2569 5.44378 21.0499 5.1244 20.9614C4.80522 20.8729 4.47103 20.9137 4.18384 21.0763L2.77665 21.8727C2.18234 22.2091 1.97253 22.9662 2.30884 23.5605L6.44615 30.8709C6.60872 31.1581 6.87409 31.365 7.19347 31.4535C7.3039 31.4841 7.41609 31.4993 7.52747 31.4993C7.73822 31.4993 7.94615 31.4451 8.13403 31.3388L9.54134 30.5423C10.1357 30.2059 10.3455 29.4488 10.0092 28.8544L9.6094 28.1481L10.3932 27.6957L16.7952 29.4111C17.1545 29.5074 17.5118 29.5553 17.8635 29.5552C18.5746 29.5552 19.2617 29.3594 19.8897 28.9728L28.9918 23.368C29.8457 22.8423 30.1176 21.519 29.5623 20.5918ZM9.04872 29.6719L7.6414 30.4684C7.56759 30.5103 7.4964 30.4998 7.46047 30.4899C7.42459 30.4799 7.35815 30.4522 7.3164 30.3784L3.17909 23.068C3.1154 22.9555 3.15672 22.8066 3.26915 22.743L4.6764 21.9466C4.71747 21.9233 4.75778 21.9163 4.79159 21.9163C4.81853 21.9163 4.8414 21.9207 4.85734 21.9252C4.89322 21.9351 4.95959 21.9628 5.0014 22.0366L9.13878 29.3469C9.20247 29.4595 9.16115 29.6083 9.04872 29.6719ZM17.6 24.6246L18.2238 24.7261C19.1697 24.8773 20.0092 24.7298 20.7903 24.2749L25.806 21.3536C27.2204 20.5298 28.3039 20.437 28.7043 21.1056C28.9785 21.5634 28.859 22.2754 28.4673 22.5164L19.3652 28.1212C18.6568 28.5573 17.8792 28.6664 17.0539 28.4451L10.4518 26.6761C10.3237 26.6419 10.1873 26.6598 10.0724 26.7261L9.11678 27.2778L6.68878 22.9877L10.3808 20.8501C11.2063 20.3721 12.0982 19.9713 13.0268 20.2726C13.3308 20.3713 13.6818 20.4981 14.0883 20.6451C15.2555 21.0671 16.7057 21.5914 18.2128 21.8674C18.7069 22.0421 18.9832 22.5189 18.8573 22.9886C18.6916 23.6071 18.1727 23.6838 17.759 23.6366C17.0236 23.4851 16.3237 23.2854 15.5831 23.0739C15.2307 22.9733 14.8662 22.8692 14.4914 22.7688C14.2248 22.6974 13.9505 22.8556 13.879 23.1223C13.8075 23.3891 13.9658 23.6632 14.2326 23.7347C14.5995 23.833 14.9599 23.9359 15.3085 24.0354C16.0752 24.2544 16.7993 24.4612 17.58 24.6208M5.05772 23.3106C5.09784 23.5852 4.90784 23.8403 4.63322 23.8804C4.35865 23.9206 4.10353 23.7306 4.0634 23.4559C4.02328 23.1814 4.21328 22.9263 4.4879 22.8861C4.76247 22.846 5.01759 23.0361 5.05772 23.3106ZM12.4326 8.30931C12.6639 8.76044 12.78 8.98681 12.8132 9.17506C12.8464 9.36325 12.8147 9.61569 12.7517 10.1187C12.7358 10.2452 12.7182 10.3862 12.6992 10.5446C12.5951 11.4156 13.067 12.2329 13.8734 12.5784C14.02 12.6412 14.1509 12.6963 14.2684 12.7459C14.2898 12.7549 14.3102 12.7635 14.3306 12.7721L12.4722 16.7636C12.3936 16.9325 12.4153 17.131 12.5287 17.2789C12.642 17.4267 12.828 17.4994 13.0115 17.4672L15.0542 17.1103L16.096 18.9032C16.1858 19.0576 16.3508 19.1519 16.5283 19.1519C16.5358 19.1519 16.5435 19.1518 16.551 19.1514C16.7371 19.143 16.903 19.0318 16.9817 18.863L18.8265 14.9006L18.79 14.8836C19.1059 14.7881 19.2923 14.74 19.4451 14.74C19.6362 14.74 19.8793 14.815 20.3637 14.9645C20.4145 14.9802 20.4683 14.9967 20.5242 15.0139L21.8556 18.1049C21.9293 18.276 22.0919 18.3919 22.2777 18.4058C22.2901 18.4067 22.3025 18.4071 22.3149 18.4071C22.4869 18.4071 22.648 18.3184 22.7397 18.1708L23.833 16.4089L25.8644 16.8249C26.0469 16.8623 26.235 16.7951 26.3525 16.6507C26.4701 16.5062 26.4976 16.3084 26.424 16.1373L24.9107 12.6238C24.9452 12.6092 24.9805 12.5941 25.0168 12.5785C25.8233 12.2331 26.2952 11.4157 26.191 10.5447C26.1721 10.3863 26.1545 10.2454 26.1386 10.1189C26.0755 9.61587 26.0438 9.36344 26.077 9.17519C26.1102 8.987 26.2263 8.76056 26.4576 8.3095C26.5158 8.196 26.5806 8.06962 26.6526 7.92731C27.0484 7.14437 26.8845 6.21494 26.2448 5.61462C26.1285 5.50544 26.0245 5.40887 25.931 5.32212C25.5593 4.97731 25.3728 4.80431 25.2772 4.63875C25.1817 4.47325 25.125 4.22519 25.0123 3.731C24.984 3.60662 24.9524 3.46813 24.916 3.31281C24.7159 2.45863 23.9929 1.852 23.117 1.80331C22.9577 1.79444 22.8159 1.78744 22.6885 1.78106C22.1822 1.75587 21.9281 1.74319 21.7485 1.67781C21.5688 1.61244 21.366 1.45881 20.962 1.15269C20.8603 1.07569 20.7472 0.989937 20.6195 0.894313C19.9172 0.368563 18.9734 0.368563 18.2711 0.894313C18.1434 0.989937 18.0302 1.07569 17.9285 1.15269C17.5245 1.45881 17.3217 1.61244 17.1421 1.67781C16.9625 1.74319 16.7084 1.75587 16.202 1.78106C16.0747 1.78744 15.9328 1.79444 15.7736 1.80331C14.8977 1.85206 14.1747 2.45869 13.9746 3.31281C13.9382 3.46813 13.9067 3.60656 13.8782 3.73094C13.7655 4.22519 13.7089 4.47319 13.6133 4.63875C13.5177 4.80425 13.3312 4.97731 12.9596 5.32206C12.8661 5.40881 12.762 5.50544 12.6457 5.61456C12.006 6.21494 11.8421 7.14431 12.2378 7.92725C12.3096 8.0695 12.3744 8.19587 12.4326 8.30931ZM16.4794 17.5724L15.7438 16.3065C15.6386 16.1255 15.4319 16.0292 15.2254 16.0652L13.7831 16.3172L15.2088 13.255C15.3268 13.3864 15.4585 13.5902 15.6758 13.9268C15.745 14.0339 15.822 14.1532 15.9093 14.2868C16.2803 14.854 16.8938 15.1756 17.541 15.1756C17.5593 15.1756 17.5778 15.1741 17.5962 15.1736L16.4794 17.5724ZM23.6922 15.3592C23.4871 15.3172 23.2775 15.4074 23.1671 15.5854L22.3951 16.8294L21.6707 15.1476C22.195 15.0596 22.6721 14.7589 22.9808 14.2868C23.0681 14.1533 23.1451 14.0341 23.2143 13.9269C23.4893 13.501 23.6273 13.2872 23.7737 13.1644C23.8308 13.1164 23.9017 13.0721 23.9943 13.0242L25.1265 15.6529L23.6922 15.3592ZM13.3298 6.34362C13.4445 6.23594 13.5472 6.14062 13.6395 6.05506C14.527 5.23175 14.5837 5.1335 14.853 3.95325C14.881 3.83056 14.9122 3.694 14.9481 3.54075C15.0476 3.116 15.3934 2.82588 15.829 2.80163C15.9861 2.79288 16.126 2.78594 16.2517 2.77962C17.4608 2.71944 17.5673 2.68062 18.5323 1.94956C18.6325 1.87356 18.7443 1.78894 18.8703 1.69463C19.0449 1.56387 19.245 1.49856 19.4452 1.49856C19.6453 1.49856 19.8455 1.56387 20.0202 1.69463C20.1462 1.78887 20.2578 1.8735 20.3581 1.9495C21.323 2.68056 21.4296 2.71931 22.6387 2.77956C22.7644 2.78581 22.9043 2.79275 23.0614 2.80156C23.497 2.82581 23.8428 3.11594 23.9423 3.54069C23.9782 3.69394 24.0093 3.83056 24.0373 3.95325C24.3066 5.13344 24.3633 5.23169 25.2508 6.055C25.3431 6.14056 25.4458 6.23587 25.5605 6.34356C25.8787 6.64212 25.957 7.08662 25.7602 7.476C25.6892 7.61644 25.6252 7.74112 25.5678 7.85306C25.0155 8.93031 24.9958 9.042 25.1464 10.2432C25.162 10.368 25.1795 10.507 25.1982 10.6632C25.25 11.0964 25.0243 11.4873 24.6232 11.6591C24.4786 11.721 24.3495 11.7754 24.2335 11.8243C23.1179 12.2944 23.031 12.3673 22.3743 13.3843C22.306 13.49 22.23 13.6077 22.1439 13.7394C21.9052 14.1044 21.4811 14.2588 21.0633 14.1327C20.9127 14.0871 20.7788 14.0459 20.6587 14.0087C19.502 13.6519 19.3885 13.6518 18.2316 14.0087C18.1114 14.0459 17.9775 14.0871 17.8269 14.1327C17.4094 14.2589 16.9851 14.1045 16.7463 13.7394C16.6602 13.6077 16.5842 13.4899 16.5159 13.3842C15.8592 12.3673 15.7723 12.2944 14.6567 11.8243C14.5408 11.7754 14.4117 11.7211 14.267 11.6591C13.866 11.4873 13.6403 11.0964 13.6921 10.6632C13.7108 10.5069 13.7282 10.3679 13.7439 10.2431C13.8945 9.04187 13.8748 8.93025 13.3224 7.85294C13.265 7.741 13.2011 7.61637 13.1301 7.47594C12.9333 7.08669 13.0117 6.64219 13.3298 6.34362ZM19.445 12.4221C21.973 12.4221 24.0297 10.3654 24.0297 7.83744C24.0297 5.30944 21.973 3.25281 19.445 3.25281C16.917 3.25281 14.8604 5.3095 14.8604 7.83744C14.8604 10.3654 16.9171 12.4221 19.445 12.4221ZM19.445 4.25275C21.4216 4.25275 23.0297 5.86081 23.0297 7.83737C23.0297 9.81394 21.4217 11.4221 19.445 11.4221C17.4684 11.4221 15.8604 9.814 15.8604 7.83737C15.8604 5.86075 17.4685 4.25275 19.445 4.25275ZM18.1722 9.60919L16.8855 8.32237C16.6902 8.12712 16.6902 7.81056 16.8855 7.61531C17.0808 7.42 17.3974 7.42006 17.5925 7.61531L18.5425 8.56531L21.3151 6.04906C21.5196 5.86344 21.8358 5.87881 22.0214 6.08331C22.207 6.28781 22.1917 6.60406 21.9872 6.78962L18.8618 9.62594C18.7662 9.71262 18.6459 9.75569 18.5258 9.75569C18.3976 9.75562 18.2696 9.70656 18.1722 9.60919Z" fill="black"/>
</svg>
