<svg width="32" height="32" viewBox="0 0 32 32" fill="none" xmlns="http://www.w3.org/2000/svg">
<path d="M6.92373 31.1864H15.5879C16.1832 31.1864 16.6673 30.7023 16.6673 30.1072V28.965C16.6673 28.3699 16.1832 27.8857 15.5879 27.8857H15.289V26.917C15.289 26.0397 14.5751 25.3258 13.6977 25.3258H11.6264V16.0585C12.8352 16.2766 14.1815 16.4642 15.4922 16.4642C16.6031 16.464 17.688 16.3295 18.6389 15.9645C20.773 15.3462 23.0831 15.3494 25.6994 15.9735C25.8093 16.0002 25.9259 15.9743 26.0148 15.9039C26.1039 15.8337 26.1557 15.7265 26.1557 15.6132C26.1557 11.9882 26.1557 9.14016 26.1557 5.51285C26.1557 5.34185 26.0388 5.1931 25.8727 5.15285C22.9891 4.45416 20.547 4.4566 18.4048 5.16098C18.3935 5.16473 18.3825 5.16891 18.3718 5.17354C16.4745 6.00548 14.2649 6.02479 11.6264 5.23704V3.50573C12.2037 3.34279 12.6305 2.81698 12.6305 2.18816C12.6305 1.43016 12.0139 0.813477 11.256 0.813477C10.4978 0.813477 9.88116 1.43016 9.88116 2.18816C9.88116 2.81704 10.308 3.34285 10.8856 3.50573V25.3258H8.81423C7.93685 25.3258 7.22298 26.0397 7.22298 26.917V27.8857H6.92379C6.32885 27.8857 5.84473 28.3699 5.84473 28.965V30.1072C5.84466 30.7023 6.32879 31.1864 6.92373 31.1864ZM18.6224 9.34248C20.7462 8.83041 23.0307 8.81741 25.4149 9.29266V11.9427C22.9705 11.474 20.6239 11.5053 18.4334 12.036C18.4235 12.0383 18.4137 12.0412 18.4039 12.0444C16.143 12.7935 13.8639 12.8209 11.6264 12.1264V9.48935C12.6891 9.79816 13.76 9.95429 14.8338 9.95835C16.2122 10.0058 17.2504 9.79516 18.6224 9.34248ZM18.4169 15.2576C18.4068 15.2605 18.3967 15.264 18.3868 15.2677C16.4407 16.0209 13.7927 15.7038 11.6264 15.3058V12.8994C13.9487 13.5742 16.298 13.5195 18.6224 12.7525C20.7462 12.2403 23.0307 12.2275 25.4149 12.7027V15.1495C22.8499 14.599 20.556 14.6352 18.4169 15.2576ZM18.6527 5.85935C20.5864 5.22735 22.8015 5.20985 25.4149 5.8061V8.46398C22.7314 7.87441 20.4314 7.9046 18.4047 8.57098C18.3934 8.57473 18.3824 8.57891 18.3717 8.58373C17.3035 9.05204 15.8995 9.22385 14.7936 9.2151C13.811 9.1751 12.7579 8.98491 11.6264 8.6471V6.01085C14.3405 6.78566 16.6433 6.73504 18.6527 5.85935ZM10.622 2.18823C10.622 1.83866 10.9064 1.55435 11.256 1.55435C11.6055 1.55435 11.8897 1.83866 11.8897 2.18823C11.8897 2.53779 11.6055 2.8221 11.256 2.8221C10.9064 2.8221 10.622 2.53779 10.622 2.18823ZM7.96379 26.9171C7.96379 26.4482 8.34516 26.0666 8.81429 26.0666H13.6978C14.1669 26.0666 14.5483 26.4482 14.5483 26.9171V27.8858H7.96379V26.9171ZM6.58548 28.965C6.58548 28.7784 6.7371 28.6266 6.92373 28.6266H15.5879C15.7745 28.6266 15.9265 28.7784 15.9265 28.965V30.1072C15.9265 30.2939 15.7745 30.4457 15.5879 30.4457H6.92373C6.7371 30.4457 6.58548 30.2939 6.58548 30.1072V28.965Z" fill="black"/>
</svg>
