<svg width="32" height="32" viewBox="0 0 32 32" fill="none" xmlns="http://www.w3.org/2000/svg">
<path d="M9.3618 2.6875C8.84822 2.68823 8.35588 2.89261 7.99277 3.25581C7.62965 3.61902 7.4254 4.11141 7.4248 4.625C7.4248 4.74103 7.4709 4.85231 7.55295 4.93436C7.63499 5.01641 7.74627 5.0625 7.8623 5.0625C7.97834 5.0625 8.08962 5.01641 8.17166 4.93436C8.25371 4.85231 8.2998 4.74103 8.2998 4.625C8.30007 4.34329 8.4121 4.07319 8.6113 3.87399C8.8105 3.67479 9.08059 3.56276 9.3623 3.5625H12.2096C12.3256 3.5625 12.4369 3.51641 12.5189 3.43436C12.601 3.35231 12.6471 3.24103 12.6471 3.125C12.6471 3.00897 12.601 2.89769 12.5189 2.81564C12.4369 2.73359 12.3256 2.6875 12.2096 2.6875H9.3618Z" fill="black"/>
<path d="M14.8307 2.6875H14.0557C13.9396 2.6875 13.8284 2.73359 13.7463 2.81564C13.6643 2.89769 13.6182 3.00897 13.6182 3.125C13.6182 3.24103 13.6643 3.35231 13.7463 3.43436C13.8284 3.51641 13.9396 3.5625 14.0557 3.5625H14.8307C14.9467 3.5625 15.058 3.51641 15.14 3.43436C15.2221 3.35231 15.2682 3.24103 15.2682 3.125C15.2682 3.00897 15.2221 2.89769 15.14 2.81564C15.058 2.73359 14.9467 2.6875 14.8307 2.6875Z" fill="black"/>
<path d="M12.4287 2.0625H14.831C14.947 2.0625 15.0583 2.01641 15.1403 1.93436C15.2224 1.85231 15.2685 1.74103 15.2685 1.625C15.2685 1.50897 15.2224 1.39769 15.1403 1.31564C15.0583 1.23359 14.947 1.1875 14.831 1.1875H12.4287C12.3127 1.1875 12.2014 1.23359 12.1194 1.31564C12.0373 1.39769 11.9912 1.50897 11.9912 1.625C11.9912 1.74103 12.0373 1.85231 12.1194 1.93436C12.2014 2.01641 12.3127 2.0625 12.4287 2.0625Z" fill="black"/>
<path d="M6.3618 5.0625C6.41931 5.0626 6.47627 5.05135 6.52942 5.02941C6.58257 5.00746 6.63088 4.97525 6.67156 4.93461C6.71225 4.89397 6.74452 4.84571 6.76652 4.79258C6.78853 4.73945 6.79984 4.6825 6.7998 4.625C6.80053 3.94569 7.07067 3.29441 7.55097 2.81402C8.03127 2.33363 8.6825 2.06336 9.3618 2.0625H10.5168C10.6328 2.0625 10.7441 2.01641 10.8262 1.93436C10.9082 1.85231 10.9543 1.74103 10.9543 1.625C10.9543 1.50897 10.9082 1.39769 10.8262 1.31564C10.7441 1.23359 10.6328 1.1875 10.5168 1.1875H9.3618C8.45051 1.18862 7.57688 1.55117 6.93254 2.19559C6.28821 2.84002 5.9258 3.71371 5.9248 4.625C5.92477 4.68242 5.93605 4.73929 5.95799 4.79235C5.97994 4.84541 6.01212 4.89363 6.0527 4.93426C6.09327 4.97488 6.14146 5.00712 6.1945 5.02912C6.24753 5.05112 6.30438 5.06247 6.3618 5.0625Z" fill="black"/>
<path d="M20.7432 2.6875C20.2295 2.6881 19.737 2.89242 19.3738 3.25564C19.0106 3.61886 18.8063 4.11133 18.8057 4.625C18.8057 4.74103 18.8518 4.85231 18.9338 4.93436C19.0159 5.01641 19.1271 5.0625 19.2432 5.0625C19.3592 5.0625 19.4705 5.01641 19.5525 4.93436C19.6346 4.85231 19.6807 4.74103 19.6807 4.625C19.6809 4.34329 19.793 4.07319 19.9922 3.87399C20.1914 3.67479 20.4615 3.56276 20.7432 3.5625H22.0624C22.1784 3.5625 22.2897 3.51641 22.3718 3.43436C22.4538 3.35231 22.4999 3.24103 22.4999 3.125C22.4999 3.00897 22.4538 2.89769 22.3718 2.81564C22.2897 2.73359 22.1784 2.6875 22.0624 2.6875H20.7432Z" fill="black"/>
<path d="M23.4688 3.125C23.4687 3.18246 23.48 3.23937 23.502 3.29246C23.524 3.34556 23.5562 3.3938 23.5968 3.43443C23.6374 3.47506 23.6857 3.50729 23.7388 3.52926C23.7919 3.55124 23.8488 3.56253 23.9063 3.5625H26.212C26.328 3.5625 26.4393 3.51641 26.5214 3.43436C26.6034 3.35231 26.6495 3.24103 26.6495 3.125C26.6495 3.00897 26.6034 2.89769 26.5214 2.81564C26.4393 2.73359 26.328 2.6875 26.212 2.6875H23.9063C23.8488 2.68747 23.7919 2.69876 23.7388 2.72074C23.6857 2.74271 23.6374 2.77494 23.5968 2.81557C23.5562 2.8562 23.524 2.90444 23.502 2.95754C23.48 3.01063 23.4687 3.06754 23.4688 3.125Z" fill="black"/>
<path d="M25.6094 2.0625H26.2121C26.3282 2.0625 26.4394 2.01641 26.5215 1.93436C26.6035 1.85231 26.6496 1.74103 26.6496 1.625C26.6496 1.50897 26.6035 1.39769 26.5215 1.31564C26.4394 1.23359 26.3282 1.1875 26.2121 1.1875H25.6094C25.4933 1.1875 25.3821 1.23359 25.3 1.31564C25.218 1.39769 25.1719 1.50897 25.1719 1.625C25.1719 1.74103 25.218 1.85231 25.3 1.93436C25.3821 2.01641 25.4933 2.0625 25.6094 2.0625Z" fill="black"/>
<path d="M17.7432 5.0625C17.8592 5.0625 17.9705 5.01641 18.0525 4.93436C18.1346 4.85231 18.1807 4.74103 18.1807 4.625C18.1814 3.94561 18.4516 3.29425 18.932 2.81384C19.4124 2.33344 20.0638 2.06323 20.7432 2.0625H23.2029C23.3189 2.0625 23.4302 2.01641 23.5123 1.93436C23.5943 1.85231 23.6404 1.74103 23.6404 1.625C23.6404 1.50897 23.5943 1.39769 23.5123 1.31564C23.4302 1.23359 23.3189 1.1875 23.2029 1.1875H20.7432C19.8318 1.18849 18.958 1.55098 18.3136 2.19542C17.6691 2.83986 17.3067 3.71362 17.3057 4.625C17.3056 4.68246 17.3169 4.73937 17.3389 4.79246C17.3609 4.84556 17.3931 4.8938 17.4337 4.93443C17.4744 4.97506 17.5226 5.00729 17.5757 5.02926C17.6288 5.05124 17.6857 5.06253 17.7432 5.0625Z" fill="black"/>
<path d="M27.375 15.6836C27.259 15.6836 27.1477 15.7297 27.0656 15.8117C26.9836 15.8938 26.9375 16.0051 26.9375 16.1211V17.6211C26.9375 17.7371 26.9836 17.8484 27.0656 17.9305C27.1477 18.0125 27.259 18.0586 27.375 18.0586C27.491 18.0586 27.6023 18.0125 27.6844 17.9305C27.7664 17.8484 27.8125 17.7371 27.8125 17.6211V16.1211C27.8125 16.0051 27.7664 15.8938 27.6844 15.8117C27.6023 15.7297 27.491 15.6836 27.375 15.6836Z" fill="black"/>
<path d="M30.375 28.4374H29.3125V12.9124L30.4272 12.7784C30.5404 12.7621 30.6426 12.7022 30.7121 12.6115C30.7817 12.5208 30.8129 12.4065 30.7993 12.2931C30.7856 12.1796 30.7281 12.076 30.6391 12.0044C30.55 11.9328 30.4365 11.8988 30.3228 11.9099L21.412 12.9804L21.172 7.94635C21.249 7.91199 21.3144 7.85608 21.3603 7.78537C21.4062 7.71465 21.4307 7.63216 21.4307 7.54785V6.04785C21.4307 5.93184 21.3846 5.8206 21.3025 5.73857C21.2205 5.65653 21.1093 5.61042 20.9932 5.61035H15.9932C15.8772 5.61035 15.7659 5.65645 15.6839 5.73849C15.6018 5.82054 15.5557 5.93182 15.5557 6.04785V7.54785C15.5556 7.63253 15.5801 7.71542 15.6262 7.78644C15.6723 7.85746 15.7381 7.91353 15.8155 7.94785L15.543 13.6869L10.0948 14.3409L9.79175 7.94585C9.86859 7.91148 9.93385 7.85562 9.97967 7.785C10.0255 7.71439 10.0499 7.63203 10.05 7.54785V6.04785C10.05 5.93182 10.0039 5.82054 9.92186 5.73849C9.83981 5.65645 9.72853 5.61035 9.6125 5.61035H4.6125C4.49647 5.61035 4.38519 5.65645 4.30314 5.73849C4.22109 5.82054 4.175 5.93182 4.175 6.04785V7.54785C4.175 7.63266 4.19967 7.71564 4.24602 7.78666C4.29236 7.85769 4.35837 7.9137 4.436 7.94785L3.63775 24.6874H3.305C3.1926 24.6873 3.08452 24.7306 3.00315 24.8082C2.92179 24.8857 2.8734 24.9916 2.868 25.1039L2.708 28.4374H1.625C1.56754 28.4373 1.51063 28.4486 1.45754 28.4706C1.40444 28.4926 1.3562 28.5248 1.31557 28.5654C1.27494 28.6061 1.24271 28.6543 1.22074 28.7074C1.19876 28.7605 1.18747 28.8174 1.1875 28.8749V30.3749C1.18747 30.4323 1.19876 30.4892 1.22074 30.5423C1.24271 30.5954 1.27494 30.6437 1.31557 30.6843C1.3562 30.7249 1.40444 30.7571 1.45754 30.7791C1.51063 30.8011 1.56754 30.8124 1.625 30.8124H30.375C30.4325 30.8124 30.4894 30.8011 30.5425 30.7791C30.5956 30.7571 30.6438 30.7249 30.6844 30.6843C30.7251 30.6437 30.7573 30.5954 30.7793 30.5423C30.8012 30.4892 30.8125 30.4323 30.8125 30.3749V28.8749C30.8125 28.8174 30.8012 28.7605 30.7793 28.7074C30.7573 28.6543 30.7251 28.6061 30.6844 28.5654C30.6438 28.5248 30.5956 28.4926 30.5425 28.4706C30.4894 28.4486 30.4325 28.4373 30.375 28.4374ZM25.9827 28.4374V23.8749C25.9827 23.7588 25.9367 23.6475 25.8546 23.5655C25.7726 23.4834 25.6613 23.4374 25.5452 23.4374H22.5452C22.4878 23.4373 22.4309 23.4486 22.3778 23.4706C22.3247 23.4926 22.2764 23.5248 22.2358 23.5654C22.1952 23.6061 22.163 23.6543 22.141 23.7074C22.119 23.7605 22.1077 23.8174 22.1077 23.8749V28.4374H21.4328V23.8749C21.4328 23.7588 21.3867 23.6475 21.3046 23.5655C21.2226 23.4834 21.1113 23.4374 20.9953 23.4374H17.9953C17.9378 23.4373 17.8809 23.4486 17.8278 23.4706C17.7747 23.4926 17.7264 23.5248 17.6858 23.5654C17.6452 23.6061 17.613 23.6543 17.591 23.7074C17.569 23.7605 17.5577 23.8174 17.5578 23.8749V28.4374H7.55V15.5281L28.4375 13.0179V28.4374H25.9827ZM25.1077 28.4374H22.9827V24.3124H25.1077V28.4374ZM20.5578 28.4374H18.4328V24.3124H20.5578V28.4374ZM16.4328 6.48535H20.5578V7.11035H16.4328V6.48535ZM16.6917 7.98535H20.298L20.541 13.0854L16.425 13.5801L16.6917 7.98535ZM5.0515 6.48535H9.175V7.11035H5.05L5.0515 6.48535ZM5.31175 7.98535H8.91775L9.2235 14.4454L5.55975 14.8861C5.44928 14.8996 5.34813 14.9548 5.27688 15.0403C5.20562 15.1257 5.16963 15.2352 5.17623 15.3463C5.18282 15.4574 5.23151 15.5618 5.31237 15.6382C5.39324 15.7147 5.50021 15.7575 5.6115 15.7579C5.62913 15.7578 5.64674 15.7568 5.66425 15.7549L6.675 15.6331V24.6874H4.51375L5.31175 7.98535ZM3.722 25.5624H6.675V28.4374H3.584L3.722 25.5624ZM29.9375 29.9374H2.0625V29.3124H29.9375V29.9374Z" fill="black"/>
<path d="M15.1123 21.9795H10.1123C9.99627 21.9795 9.88499 22.0256 9.80295 22.1076C9.7209 22.1897 9.6748 22.301 9.6748 22.417C9.6748 22.533 9.7209 22.6443 9.80295 22.7264C9.88499 22.8084 9.99627 22.8545 10.1123 22.8545H15.1123C15.2283 22.8545 15.3396 22.8084 15.4217 22.7264C15.5037 22.6443 15.5498 22.533 15.5498 22.417C15.5498 22.301 15.5037 22.1897 15.4217 22.1076C15.3396 22.0256 15.2283 21.9795 15.1123 21.9795Z" fill="black"/>
<path d="M15.1123 18.9795H10.1123C9.99627 18.9795 9.88499 19.0256 9.80295 19.1076C9.7209 19.1897 9.6748 19.301 9.6748 19.417C9.6748 19.533 9.7209 19.6443 9.80295 19.7264C9.88499 19.8084 9.99627 19.8545 10.1123 19.8545H15.1123C15.2283 19.8545 15.3396 19.8084 15.4217 19.7264C15.5037 19.6443 15.5498 19.533 15.5498 19.417C15.5498 19.301 15.5037 19.1897 15.4217 19.1076C15.3396 19.0256 15.2283 18.9795 15.1123 18.9795Z" fill="black"/>
<path d="M15.1123 20.4795H10.1123C9.99627 20.4795 9.88499 20.5256 9.80295 20.6076C9.7209 20.6897 9.6748 20.801 9.6748 20.917C9.6748 21.033 9.7209 21.1443 9.80295 21.2264C9.88499 21.3084 9.99627 21.3545 10.1123 21.3545H15.1123C15.2283 21.3545 15.3396 21.3084 15.4217 21.2264C15.5037 21.1443 15.5498 21.033 15.5498 20.917C15.5498 20.801 15.5037 20.6897 15.4217 20.6076C15.3396 20.5256 15.2283 20.4795 15.1123 20.4795Z" fill="black"/>
<path d="M20.2441 19.7295H18.7441C18.6867 19.7295 18.6298 19.7408 18.5767 19.7627C18.5236 19.7847 18.4753 19.8169 18.4347 19.8576C18.3941 19.8982 18.3619 19.9464 18.3399 19.9995C18.3179 20.0526 18.3066 20.1095 18.3066 20.167V21.667C18.3066 21.7245 18.3179 21.7814 18.3399 21.8345C18.3619 21.8876 18.3941 21.9358 18.4347 21.9764C18.4753 22.0171 18.5236 22.0493 18.5767 22.0713C18.6298 22.0932 18.6867 22.1045 18.7441 22.1045H20.2441C20.3602 22.1045 20.4715 22.0584 20.5535 21.9764C20.6355 21.8943 20.6816 21.783 20.6816 21.667V20.167C20.6816 20.051 20.6355 19.9397 20.5535 19.8576C20.4715 19.7756 20.3602 19.7295 20.2441 19.7295ZM19.8066 21.2295H19.1816V20.6045H19.8066V21.2295Z" fill="black"/>
<path d="M24.7949 19.7295H23.2949C23.2375 19.7295 23.1806 19.7408 23.1275 19.7627C23.0744 19.7847 23.0261 19.8169 22.9855 19.8576C22.9449 19.8982 22.9126 19.9464 22.8907 19.9995C22.8687 20.0526 22.8574 20.1095 22.8574 20.167V21.667C22.8574 21.7245 22.8687 21.7814 22.8907 21.8345C22.9126 21.8876 22.9449 21.9358 22.9855 21.9764C23.0261 22.0171 23.0744 22.0493 23.1275 22.0713C23.1806 22.0932 23.2375 22.1045 23.2949 22.1045H24.7949C24.911 22.1045 25.0222 22.0584 25.1043 21.9764C25.1863 21.8943 25.2324 21.783 25.2324 21.667V20.167C25.2324 20.051 25.1863 19.9397 25.1043 19.8576C25.0222 19.7756 24.911 19.7295 24.7949 19.7295ZM24.3574 21.2295H23.7324V20.6045H24.3574V21.2295Z" fill="black"/>
</svg>
