<svg width="33" height="32" viewBox="0 0 33 32" fill="none" xmlns="http://www.w3.org/2000/svg">
<g clip-path="url(#clip0_225_51)">
<path d="M32.0444 8.40312C32.0444 8.40312 32.0444 8.40312 32.0443 8.40312L32.0432 8.40206L29.9777 8.10737C29.6874 8.06602 29.4856 7.79714 29.5269 7.50683C29.5468 7.36732 29.6213 7.24148 29.734 7.15692L31.4034 5.90487C31.638 5.72892 31.6856 5.39613 31.5096 5.1615L29.5981 2.61281C29.4221 2.37819 29.0893 2.33067 28.8547 2.50662L27.1859 3.75866C26.9522 3.93594 26.6192 3.89028 26.4419 3.65665C26.3558 3.54322 26.3189 3.39992 26.3395 3.25901L26.6347 1.19351C26.6763 0.903201 26.4747 0.634195 26.1845 0.592513C26.1843 0.592513 26.1841 0.592447 26.1839 0.592447L23.032 0.142178C22.7418 0.100497 22.4726 0.302002 22.431 0.592314C22.431 0.59238 22.431 0.59238 22.431 0.592447L22.1357 2.65795C22.0944 2.94826 21.8255 3.1501 21.5352 3.10875C21.3957 3.0889 21.2698 3.01437 21.1853 2.90167L19.9338 1.23227C19.7578 0.997649 19.425 0.950126 19.1904 1.12608L17.5948 2.32343C16.8729 2.24671 16.145 2.24671 15.4231 2.32343C10.6957 2.86377 6.98848 6.63384 6.52765 11.3697C6.51332 11.52 6.50801 11.6692 6.50057 11.8184H6.34128C6.08933 11.8188 5.87236 11.9963 5.82198 12.2431L5.45508 13.9879L3.98534 12.9743C3.7744 12.8287 3.48954 12.8547 3.30834 13.0359L1.71541 14.6288C1.53448 14.81 1.50859 15.0944 1.65381 15.3053L2.66267 16.7724L0.917349 17.1393C0.673232 17.1928 0.49947 17.4092 0.500001 17.6591V19.783C0.499868 20.0342 0.675821 20.2511 0.921597 20.3028L2.66692 20.6698L1.65806 22.1368C1.51284 22.3477 1.53873 22.6322 1.71966 22.8133L3.31259 24.4062C3.49378 24.5874 3.77865 24.6134 3.98958 24.4678L5.45667 23.4563L5.82358 25.2016C5.87395 25.4485 6.09092 25.626 6.34287 25.6264H8.46678C8.71793 25.6266 8.93484 25.4506 8.98661 25.2048L9.35351 23.4595L10.8206 24.4684C11.0315 24.6136 11.3159 24.5877 11.4971 24.4068L12.3217 23.5795V25.0928C12.3241 25.8482 12.7287 26.545 13.3836 26.9215V29.8716C13.3836 31.0446 14.3345 31.9955 15.5075 31.9955H17.6314C18.8044 31.9955 19.7554 31.0446 19.7554 29.8716V26.9215C20.4102 26.545 20.8149 25.8482 20.8173 25.0928V22.9912C20.8317 22.1069 21.2943 21.2905 22.0455 20.8237C22.4861 20.5379 22.904 20.2183 23.2954 19.868L22.5871 19.0768C22.2369 19.3906 21.8629 19.6766 21.4683 19.9322C20.414 20.594 19.7686 21.7464 19.7554 22.9912V25.0928C19.7554 25.6793 19.2799 26.1547 18.6934 26.1547H14.4456C13.8591 26.1547 13.3836 25.6793 13.3836 25.0928V22.9471C13.3714 21.7259 12.7361 20.5957 11.6994 19.9503C7.49091 17.3059 6.22294 11.7506 8.86734 7.54214C10.5081 4.93099 13.3715 3.34171 16.4553 3.3307C16.4474 3.34961 16.4405 3.36893 16.4346 3.38857C16.4149 3.52795 16.4514 3.66953 16.536 3.78203L17.7876 5.45089C17.9195 5.62166 17.9322 5.85622 17.8194 6.04027C17.7108 6.22545 17.5009 6.32647 17.2884 6.29567L15.2229 6.00045C14.9326 5.95883 14.6636 6.16041 14.6219 6.45065C14.6219 6.45085 14.6219 6.45105 14.6219 6.45125L14.1711 9.60472C14.1295 9.89497 14.331 10.164 14.6213 10.2057C14.6215 10.2057 14.6217 10.2058 14.6219 10.2058L16.6874 10.501C16.9777 10.5424 17.1795 10.8112 17.1382 11.1015C17.1183 11.2411 17.0438 11.3669 16.9311 11.4515L15.2622 12.703C15.0276 12.8789 14.9801 13.2117 15.156 13.4463L17.0675 15.995C17.2435 16.2297 17.5763 16.2772 17.8109 16.1012L19.4803 14.8497C19.7151 14.6741 20.0479 14.7221 20.2235 14.957C20.3076 15.0693 20.3437 15.2104 20.324 15.3494L20.0293 17.4149C19.9877 17.7051 20.1892 17.9742 20.4795 18.0159C20.4795 18.0159 20.4795 18.0159 20.4796 18.0159L23.6336 18.4667C23.6584 18.4699 23.6835 18.4715 23.7085 18.4715C23.9728 18.4718 24.1971 18.2776 24.2347 18.0159L24.5294 15.9504C24.5707 15.6601 24.8396 15.4583 25.1299 15.4996C25.2694 15.5195 25.3953 15.594 25.4798 15.7067L26.7319 17.3756C26.9078 17.6102 27.2406 17.6577 27.4752 17.4818L30.0239 15.5702C30.2585 15.3943 30.3061 15.0615 30.1301 14.8269L28.8786 13.158C28.7473 12.987 28.7346 12.7528 28.8467 12.5686C28.953 12.381 29.1649 12.2793 29.3777 12.3138L31.4432 12.6085C31.7335 12.6501 32.0026 12.4486 32.0443 12.1583C32.0443 12.1583 32.0443 12.1583 32.0443 12.1582L32.4946 9.00419C32.5362 8.71387 32.3347 8.4448 32.0444 8.40312ZM14.4456 27.2167H18.6934V28.2787H14.4456V27.2167ZM14.4456 29.3406H18.6934V29.8716C18.6934 30.4581 18.218 30.9335 17.6314 30.9335H15.5075C14.921 30.9335 14.4456 30.4581 14.4456 29.8716V29.3406ZM10.2185 20.1839C10.5084 20.421 10.8113 20.6417 11.1259 20.845C11.6276 21.162 12.0053 21.6417 12.1958 22.2037L11.0569 23.3406L9.95405 22.5802C9.47113 22.2474 8.80986 22.3691 8.477 22.8521C8.39722 22.9679 8.34121 23.0984 8.31227 23.236L8.03404 24.5618H6.7719L6.49367 23.2381C6.37287 22.6642 5.80971 22.2968 5.23579 22.4176C5.0982 22.4465 4.96771 22.5026 4.85189 22.5823L3.74852 23.3406L2.78108 22.3753L3.54091 21.2729C3.87403 20.7902 3.7527 20.1289 3.26998 19.7958C3.15409 19.7158 3.02347 19.6596 2.88568 19.6306L1.56196 19.3519V18.0903L2.88568 17.8115C3.4594 17.6898 3.82591 17.1261 3.70425 16.5524C3.67538 16.4162 3.62009 16.2871 3.54144 16.1724L2.78108 15.0669L3.74852 14.1016L4.85242 14.8619C5.33554 15.1944 5.99681 15.0723 6.32927 14.5891C6.40891 14.4734 6.4648 14.3431 6.49367 14.2056L6.58659 13.7639C6.67168 14.3757 6.81259 14.9783 7.00766 15.5644C5.26054 15.7727 4.01308 17.3579 4.22135 19.105C4.42963 20.8521 6.01486 22.0996 7.76198 21.8913C8.81371 21.7659 9.73436 21.126 10.2185 20.1839ZM9.39387 19.4358C8.99736 20.5379 7.78255 21.1099 6.68044 20.7134C5.57833 20.3169 5.00634 19.1021 5.40278 18C5.7061 17.1569 6.50661 16.5953 7.40264 16.5972C7.40954 16.5972 7.41591 16.5972 7.42281 16.5972C7.91111 17.65 8.57796 18.6104 9.39387 19.4358ZM31.0652 11.4807L29.5253 11.2608C28.6544 11.1365 27.8476 11.7417 27.7232 12.6126C27.6635 13.0308 27.7723 13.4556 28.0259 13.7936L28.9588 15.0377L27.2597 16.312L26.3262 15.0685C25.7984 14.3646 24.8 14.2218 24.0962 14.7496C23.7582 15.003 23.5347 15.3804 23.4749 15.7986L23.2598 17.3405L21.1577 17.04L21.3775 15.5002C21.5022 14.6293 20.8973 13.8222 20.0264 13.6976C19.6079 13.6376 19.1829 13.7465 18.8447 14.0001L17.6007 14.9331L16.3263 13.2339L17.5699 12.3005C18.2737 11.7727 18.4165 10.7743 17.8887 10.0705C17.6353 9.73249 17.258 9.50901 16.8398 9.44915L15.2999 9.22932L15.6005 7.12718L17.1403 7.34701C18.0112 7.47172 18.8182 6.8668 18.9429 5.99594C19.0028 5.57746 18.894 5.15241 18.6403 4.81425L17.7042 3.5691L19.4033 2.29476L20.3368 3.53884C20.8646 4.24272 21.863 4.38548 22.5668 3.85769C22.9048 3.60428 23.1283 3.22696 23.1881 2.80875L23.4079 1.26891L25.5101 1.56891L25.2903 3.10875C25.1659 3.97968 25.7711 4.7865 26.642 4.91088C27.0602 4.97062 27.4851 4.86177 27.823 4.60823L29.0671 3.6753L30.3414 5.37443L29.0974 6.30788C28.3935 6.83568 28.2507 7.83411 28.7785 8.53792C29.0319 8.87589 29.4093 9.09936 29.8275 9.15923L31.3673 9.37906L31.0652 11.4807Z" fill="black"/>
<path d="M23.3318 5.05566C20.9858 5.05566 19.084 6.95749 19.084 9.30348C19.084 11.6495 20.9858 13.5513 23.3318 13.5513C25.6778 13.5513 27.5796 11.6495 27.5796 9.30348C27.577 6.95855 25.6767 5.05825 23.3318 5.05566ZM23.3318 12.4893C21.5723 12.4893 20.1459 11.063 20.1459 9.30348C20.1459 7.54396 21.5723 6.11762 23.3318 6.11762C25.0913 6.11762 26.5177 7.54396 26.5177 9.30348C26.5156 11.0621 25.0905 12.4873 23.3318 12.4893Z" fill="black"/>
<path d="M17.1 23.4995H16.0381V25.0924H17.1V23.4995Z" fill="black"/>
<path d="M14.2465 18.2848C10.9687 17.0044 9.3496 13.3092 10.6301 10.0314C11.1263 8.76129 12.0168 7.68387 13.1708 6.9575L12.6032 6.05908C9.12951 8.24744 8.08753 12.8374 10.2759 16.3111C11.1234 17.6564 12.3799 18.6945 13.861 19.273C15.172 19.7753 16.0377 21.0337 16.0381 22.4376H17.1C17.1017 20.5956 15.9666 18.9437 14.2465 18.2848Z" fill="black"/>
<path d="M30.375 19.7827H26.6582V20.8447H30.375V19.7827Z" fill="black"/>
<path d="M26.4669 22.5606L25.7871 23.3765L28.9732 26.0309L29.653 25.215L26.4669 22.5606Z" fill="black"/>
<path d="M24.5346 24.0308H23.4727V27.7476H24.5346V24.0308Z" fill="black"/>
<path d="M5.28951 8.11694L1.04199 9.17871L1.29939 10.2084L5.54691 9.14663L5.28951 8.11694Z" fill="black"/>
<path d="M2.54073 2.8912L1.92383 3.75488L5.64037 6.40949L6.25727 5.54581L2.54073 2.8912Z" fill="black"/>
<path d="M7.50245 0.00453205L6.47363 0.267578L7.55962 4.51507L8.58844 4.25202L7.50245 0.00453205Z" fill="black"/>
</g>
<defs>
<clipPath id="clip0_225_51">
<rect width="32" height="32" fill="white" transform="translate(0.5)"/>
</clipPath>
</defs>
</svg>
