<svg width="33" height="32" viewBox="0 0 33 32" fill="none" xmlns="http://www.w3.org/2000/svg">
<path d="M9.8618 2.6875C9.34822 2.68823 8.85588 2.89261 8.49277 3.25581C8.12965 3.61902 7.9254 4.11141 7.9248 4.625C7.9248 4.74103 7.9709 4.85231 8.05295 4.93436C8.13499 5.01641 8.24627 5.0625 8.3623 5.0625C8.47834 5.0625 8.58962 5.01641 8.67166 4.93436C8.75371 4.85231 8.7998 4.74103 8.7998 4.625C8.80007 4.34329 8.9121 4.07319 9.1113 3.87399C9.3105 3.67479 9.58059 3.56276 9.8623 3.5625H12.7096C12.8256 3.5625 12.9369 3.51641 13.0189 3.43436C13.101 3.35231 13.1471 3.24103 13.1471 3.125C13.1471 3.00897 13.101 2.89769 13.0189 2.81564C12.9369 2.73359 12.8256 2.6875 12.7096 2.6875H9.8618Z" fill="black"/>
<path d="M15.3307 2.6875H14.5557C14.4396 2.6875 14.3284 2.73359 14.2463 2.81564C14.1643 2.89769 14.1182 3.00897 14.1182 3.125C14.1182 3.24103 14.1643 3.35231 14.2463 3.43436C14.3284 3.51641 14.4396 3.5625 14.5557 3.5625H15.3307C15.4467 3.5625 15.558 3.51641 15.64 3.43436C15.7221 3.35231 15.7682 3.24103 15.7682 3.125C15.7682 3.00897 15.7221 2.89769 15.64 2.81564C15.558 2.73359 15.4467 2.6875 15.3307 2.6875Z" fill="black"/>
<path d="M12.9287 2.0625H15.331C15.447 2.0625 15.5583 2.01641 15.6403 1.93436C15.7224 1.85231 15.7685 1.74103 15.7685 1.625C15.7685 1.50897 15.7224 1.39769 15.6403 1.31564C15.5583 1.23359 15.447 1.1875 15.331 1.1875H12.9287C12.8127 1.1875 12.7014 1.23359 12.6194 1.31564C12.5373 1.39769 12.4912 1.50897 12.4912 1.625C12.4912 1.74103 12.5373 1.85231 12.6194 1.93436C12.7014 2.01641 12.8127 2.0625 12.9287 2.0625Z" fill="black"/>
<path d="M6.8618 5.0625C6.91931 5.0626 6.97627 5.05135 7.02942 5.02941C7.08257 5.00746 7.13088 4.97525 7.17156 4.93461C7.21225 4.89397 7.24452 4.84571 7.26652 4.79258C7.28853 4.73945 7.29984 4.6825 7.2998 4.625C7.30053 3.94569 7.57067 3.29441 8.05097 2.81402C8.53127 2.33363 9.1825 2.06336 9.8618 2.0625H11.0168C11.1328 2.0625 11.2441 2.01641 11.3262 1.93436C11.4082 1.85231 11.4543 1.74103 11.4543 1.625C11.4543 1.50897 11.4082 1.39769 11.3262 1.31564C11.2441 1.23359 11.1328 1.1875 11.0168 1.1875H9.8618C8.95051 1.18862 8.07688 1.55117 7.43254 2.19559C6.78821 2.84002 6.4258 3.71371 6.4248 4.625C6.42477 4.68242 6.43605 4.73929 6.45799 4.79235C6.47994 4.84541 6.51212 4.89363 6.5527 4.93426C6.59327 4.97488 6.64146 5.00712 6.6945 5.02912C6.74753 5.05112 6.80438 5.06247 6.8618 5.0625Z" fill="black"/>
<path d="M21.2432 2.6875C20.7295 2.6881 20.237 2.89242 19.8738 3.25564C19.5106 3.61886 19.3063 4.11133 19.3057 4.625C19.3057 4.74103 19.3518 4.85231 19.4338 4.93436C19.5159 5.01641 19.6271 5.0625 19.7432 5.0625C19.8592 5.0625 19.9705 5.01641 20.0525 4.93436C20.1346 4.85231 20.1807 4.74103 20.1807 4.625C20.1809 4.34329 20.293 4.07319 20.4922 3.87399C20.6914 3.67479 20.9615 3.56276 21.2432 3.5625H22.5624C22.6784 3.5625 22.7897 3.51641 22.8718 3.43436C22.9538 3.35231 22.9999 3.24103 22.9999 3.125C22.9999 3.00897 22.9538 2.89769 22.8718 2.81564C22.7897 2.73359 22.6784 2.6875 22.5624 2.6875H21.2432Z" fill="black"/>
<path d="M23.9688 3.125C23.9687 3.18246 23.98 3.23937 24.002 3.29246C24.024 3.34556 24.0562 3.3938 24.0968 3.43443C24.1374 3.47506 24.1857 3.50729 24.2388 3.52926C24.2919 3.55124 24.3488 3.56253 24.4063 3.5625H26.712C26.828 3.5625 26.9393 3.51641 27.0214 3.43436C27.1034 3.35231 27.1495 3.24103 27.1495 3.125C27.1495 3.00897 27.1034 2.89769 27.0214 2.81564C26.9393 2.73359 26.828 2.6875 26.712 2.6875H24.4063C24.3488 2.68747 24.2919 2.69876 24.2388 2.72074C24.1857 2.74271 24.1374 2.77494 24.0968 2.81557C24.0562 2.8562 24.024 2.90444 24.002 2.95754C23.98 3.01063 23.9687 3.06754 23.9688 3.125Z" fill="black"/>
<path d="M26.1094 2.0625H26.7121C26.8282 2.0625 26.9394 2.01641 27.0215 1.93436C27.1035 1.85231 27.1496 1.74103 27.1496 1.625C27.1496 1.50897 27.1035 1.39769 27.0215 1.31564C26.9394 1.23359 26.8282 1.1875 26.7121 1.1875H26.1094C25.9933 1.1875 25.8821 1.23359 25.8 1.31564C25.718 1.39769 25.6719 1.50897 25.6719 1.625C25.6719 1.74103 25.718 1.85231 25.8 1.93436C25.8821 2.01641 25.9933 2.0625 26.1094 2.0625Z" fill="black"/>
<path d="M18.2432 5.0625C18.3592 5.0625 18.4705 5.01641 18.5525 4.93436C18.6346 4.85231 18.6807 4.74103 18.6807 4.625C18.6814 3.94561 18.9516 3.29425 19.432 2.81384C19.9124 2.33344 20.5638 2.06323 21.2432 2.0625H23.7029C23.8189 2.0625 23.9302 2.01641 24.0123 1.93436C24.0943 1.85231 24.1404 1.74103 24.1404 1.625C24.1404 1.50897 24.0943 1.39769 24.0123 1.31564C23.9302 1.23359 23.8189 1.1875 23.7029 1.1875H21.2432C20.3318 1.18849 19.458 1.55098 18.8136 2.19542C18.1691 2.83986 17.8067 3.71362 17.8057 4.625C17.8056 4.68246 17.8169 4.73937 17.8389 4.79246C17.8609 4.84556 17.8931 4.8938 17.9337 4.93443C17.9744 4.97506 18.0226 5.00729 18.0757 5.02926C18.1288 5.05124 18.1857 5.06253 18.2432 5.0625Z" fill="black"/>
<path d="M27.875 15.6836C27.759 15.6836 27.6477 15.7297 27.5656 15.8117C27.4836 15.8938 27.4375 16.0051 27.4375 16.1211V17.6211C27.4375 17.7371 27.4836 17.8484 27.5656 17.9305C27.6477 18.0125 27.759 18.0586 27.875 18.0586C27.991 18.0586 28.1023 18.0125 28.1844 17.9305C28.2664 17.8484 28.3125 17.7371 28.3125 17.6211V16.1211C28.3125 16.0051 28.2664 15.8938 28.1844 15.8117C28.1023 15.7297 27.991 15.6836 27.875 15.6836Z" fill="black"/>
<path d="M30.875 28.4374H29.8125V12.9124L30.9272 12.7784C31.0404 12.7621 31.1426 12.7022 31.2121 12.6115C31.2817 12.5208 31.3129 12.4065 31.2993 12.2931C31.2856 12.1796 31.2281 12.076 31.1391 12.0044C31.05 11.9328 30.9365 11.8988 30.8228 11.9099L21.912 12.9804L21.672 7.94635C21.749 7.91199 21.8144 7.85608 21.8603 7.78537C21.9062 7.71465 21.9307 7.63216 21.9307 7.54785V6.04785C21.9307 5.93184 21.8846 5.8206 21.8025 5.73857C21.7205 5.65653 21.6093 5.61042 21.4932 5.61035H16.4932C16.3772 5.61035 16.2659 5.65645 16.1839 5.73849C16.1018 5.82054 16.0557 5.93182 16.0557 6.04785V7.54785C16.0556 7.63253 16.0801 7.71542 16.1262 7.78644C16.1723 7.85746 16.2381 7.91353 16.3155 7.94785L16.043 13.6869L10.5948 14.3409L10.2917 7.94585C10.3686 7.91148 10.4338 7.85562 10.4797 7.785C10.5255 7.71439 10.5499 7.63203 10.55 7.54785V6.04785C10.55 5.93182 10.5039 5.82054 10.4219 5.73849C10.3398 5.65645 10.2285 5.61035 10.1125 5.61035H5.1125C4.99647 5.61035 4.88519 5.65645 4.80314 5.73849C4.72109 5.82054 4.675 5.93182 4.675 6.04785V7.54785C4.675 7.63266 4.69967 7.71564 4.74602 7.78666C4.79236 7.85769 4.85837 7.9137 4.936 7.94785L4.13775 24.6874H3.805C3.6926 24.6873 3.58452 24.7306 3.50315 24.8082C3.42179 24.8857 3.3734 24.9916 3.368 25.1039L3.208 28.4374H2.125C2.06754 28.4373 2.01063 28.4486 1.95754 28.4706C1.90444 28.4926 1.8562 28.5248 1.81557 28.5654C1.77494 28.6061 1.74271 28.6543 1.72074 28.7074C1.69876 28.7605 1.68747 28.8174 1.6875 28.8749V30.3749C1.68747 30.4323 1.69876 30.4892 1.72074 30.5423C1.74271 30.5954 1.77494 30.6437 1.81557 30.6843C1.8562 30.7249 1.90444 30.7571 1.95754 30.7791C2.01063 30.8011 2.06754 30.8124 2.125 30.8124H30.875C30.9325 30.8124 30.9894 30.8011 31.0425 30.7791C31.0956 30.7571 31.1438 30.7249 31.1844 30.6843C31.2251 30.6437 31.2573 30.5954 31.2793 30.5423C31.3012 30.4892 31.3125 30.4323 31.3125 30.3749V28.8749C31.3125 28.8174 31.3012 28.7605 31.2793 28.7074C31.2573 28.6543 31.2251 28.6061 31.1844 28.5654C31.1438 28.5248 31.0956 28.4926 31.0425 28.4706C30.9894 28.4486 30.9325 28.4373 30.875 28.4374ZM26.4827 28.4374V23.8749C26.4827 23.7588 26.4367 23.6475 26.3546 23.5655C26.2726 23.4834 26.1613 23.4374 26.0452 23.4374H23.0452C22.9878 23.4373 22.9309 23.4486 22.8778 23.4706C22.8247 23.4926 22.7764 23.5248 22.7358 23.5654C22.6952 23.6061 22.663 23.6543 22.641 23.7074C22.619 23.7605 22.6077 23.8174 22.6077 23.8749V28.4374H21.9328V23.8749C21.9328 23.7588 21.8867 23.6475 21.8046 23.5655C21.7226 23.4834 21.6113 23.4374 21.4953 23.4374H18.4953C18.4378 23.4373 18.3809 23.4486 18.3278 23.4706C18.2747 23.4926 18.2264 23.5248 18.1858 23.5654C18.1452 23.6061 18.113 23.6543 18.091 23.7074C18.069 23.7605 18.0577 23.8174 18.0578 23.8749V28.4374H8.05V15.5281L28.9375 13.0179V28.4374H26.4827ZM25.6077 28.4374H23.4827V24.3124H25.6077V28.4374ZM21.0578 28.4374H18.9328V24.3124H21.0578V28.4374ZM16.9328 6.48535H21.0578V7.11035H16.9328V6.48535ZM17.1917 7.98535H20.798L21.041 13.0854L16.925 13.5801L17.1917 7.98535ZM5.5515 6.48535H9.675V7.11035H5.55L5.5515 6.48535ZM5.81175 7.98535H9.41775L9.7235 14.4454L6.05975 14.8861C5.94928 14.8996 5.84813 14.9548 5.77688 15.0403C5.70562 15.1257 5.66963 15.2352 5.67623 15.3463C5.68282 15.4574 5.73151 15.5618 5.81237 15.6382C5.89324 15.7147 6.00021 15.7575 6.1115 15.7579C6.12913 15.7578 6.14674 15.7568 6.16425 15.7549L7.175 15.6331V24.6874H5.01375L5.81175 7.98535ZM4.222 25.5624H7.175V28.4374H4.084L4.222 25.5624ZM30.4375 29.9374H2.5625V29.3124H30.4375V29.9374Z" fill="black"/>
<path d="M15.6123 21.9795H10.6123C10.4963 21.9795 10.385 22.0256 10.3029 22.1076C10.2209 22.1897 10.1748 22.301 10.1748 22.417C10.1748 22.533 10.2209 22.6443 10.3029 22.7264C10.385 22.8084 10.4963 22.8545 10.6123 22.8545H15.6123C15.7283 22.8545 15.8396 22.8084 15.9217 22.7264C16.0037 22.6443 16.0498 22.533 16.0498 22.417C16.0498 22.301 16.0037 22.1897 15.9217 22.1076C15.8396 22.0256 15.7283 21.9795 15.6123 21.9795Z" fill="black"/>
<path d="M15.6123 18.9795H10.6123C10.4963 18.9795 10.385 19.0256 10.3029 19.1076C10.2209 19.1897 10.1748 19.301 10.1748 19.417C10.1748 19.533 10.2209 19.6443 10.3029 19.7264C10.385 19.8084 10.4963 19.8545 10.6123 19.8545H15.6123C15.7283 19.8545 15.8396 19.8084 15.9217 19.7264C16.0037 19.6443 16.0498 19.533 16.0498 19.417C16.0498 19.301 16.0037 19.1897 15.9217 19.1076C15.8396 19.0256 15.7283 18.9795 15.6123 18.9795Z" fill="black"/>
<path d="M15.6123 20.4795H10.6123C10.4963 20.4795 10.385 20.5256 10.3029 20.6076C10.2209 20.6897 10.1748 20.801 10.1748 20.917C10.1748 21.033 10.2209 21.1443 10.3029 21.2264C10.385 21.3084 10.4963 21.3545 10.6123 21.3545H15.6123C15.7283 21.3545 15.8396 21.3084 15.9217 21.2264C16.0037 21.1443 16.0498 21.033 16.0498 20.917C16.0498 20.801 16.0037 20.6897 15.9217 20.6076C15.8396 20.5256 15.7283 20.4795 15.6123 20.4795Z" fill="black"/>
<path d="M20.7441 19.7295H19.2441C19.1867 19.7295 19.1298 19.7408 19.0767 19.7627C19.0236 19.7847 18.9753 19.8169 18.9347 19.8576C18.8941 19.8982 18.8619 19.9464 18.8399 19.9995C18.8179 20.0526 18.8066 20.1095 18.8066 20.167V21.667C18.8066 21.7245 18.8179 21.7814 18.8399 21.8345C18.8619 21.8876 18.8941 21.9358 18.9347 21.9764C18.9753 22.0171 19.0236 22.0493 19.0767 22.0713C19.1298 22.0932 19.1867 22.1045 19.2441 22.1045H20.7441C20.8602 22.1045 20.9715 22.0584 21.0535 21.9764C21.1355 21.8943 21.1816 21.783 21.1816 21.667V20.167C21.1816 20.051 21.1355 19.9397 21.0535 19.8576C20.9715 19.7756 20.8602 19.7295 20.7441 19.7295ZM20.3066 21.2295H19.6816V20.6045H20.3066V21.2295Z" fill="black"/>
<path d="M25.2949 19.7295H23.7949C23.7375 19.7295 23.6806 19.7408 23.6275 19.7627C23.5744 19.7847 23.5261 19.8169 23.4855 19.8576C23.4449 19.8982 23.4126 19.9464 23.3907 19.9995C23.3687 20.0526 23.3574 20.1095 23.3574 20.167V21.667C23.3574 21.7245 23.3687 21.7814 23.3907 21.8345C23.4126 21.8876 23.4449 21.9358 23.4855 21.9764C23.5261 22.0171 23.5744 22.0493 23.6275 22.0713C23.6806 22.0932 23.7375 22.1045 23.7949 22.1045H25.2949C25.411 22.1045 25.5222 22.0584 25.6043 21.9764C25.6863 21.8943 25.7324 21.783 25.7324 21.667V20.167C25.7324 20.051 25.6863 19.9397 25.6043 19.8576C25.5222 19.7756 25.411 19.7295 25.2949 19.7295ZM24.8574 21.2295H24.2324V20.6045H24.8574V21.2295Z" fill="black"/>
</svg>
