<svg width="33" height="32" viewBox="0 0 33 32" fill="none" xmlns="http://www.w3.org/2000/svg">
<g clip-path="url(#clip0_225_47)">
<path d="M0.749986 19.874L4.27361 21.9083C4.33048 21.9411 4.39327 21.9624 4.45837 21.971C4.52348 21.9796 4.58963 21.9752 4.65305 21.9582C4.71648 21.9412 4.77593 21.9118 4.82801 21.8719C4.8801 21.8319 4.9238 21.782 4.95661 21.7251L5.08355 21.5053L7.12417 22.7C7.07593 22.8735 7.05148 23.0527 7.05149 23.2328C7.0505 23.4914 7.10082 23.7476 7.19952 23.9866C7.29821 24.2256 7.44334 24.4427 7.62649 24.6253C7.80922 24.8082 8.02629 24.9533 8.26525 25.0521C8.50421 25.1509 8.76034 25.2016 9.01892 25.2011C9.05686 25.2011 9.09486 25.1996 9.1328 25.1975C9.13067 25.235 9.1293 25.2725 9.1293 25.3106C9.12874 25.5692 9.17925 25.8252 9.27792 26.0642C9.3766 26.3032 9.52149 26.5203 9.7043 26.7031C9.8871 26.8859 10.1042 27.0308 10.3432 27.1294C10.5821 27.2281 10.8382 27.2786 11.0967 27.2781C11.1349 27.2781 11.1728 27.2767 11.2106 27.2746C11.2085 27.3124 11.207 27.3503 11.207 27.3884C11.2065 27.647 11.257 27.9031 11.3557 28.142C11.4543 28.381 11.5992 28.5981 11.782 28.7809C11.9648 28.9637 12.1819 29.1086 12.4209 29.2073C12.6599 29.306 12.916 29.3565 13.1745 29.3559C13.3129 29.3559 13.451 29.3415 13.5865 29.3128C13.6493 29.6985 13.8475 30.0493 14.1455 30.3021C14.4436 30.5549 14.8219 30.6932 15.2127 30.6923C15.4104 30.6925 15.6064 30.6573 15.7917 30.5884L15.891 30.6876C16.1053 30.9023 16.3746 31.0536 16.6694 31.125C16.9641 31.1964 17.2729 31.1851 17.5616 31.0923C17.8504 30.9995 18.1079 30.8288 18.3059 30.5991C18.5039 30.3693 18.6347 30.0894 18.6838 29.7901C18.8192 29.819 18.9572 29.8337 19.0956 29.8339C19.3638 29.8342 19.6291 29.7797 19.8754 29.6736C20.1217 29.5676 20.3437 29.4123 20.5277 29.2172C20.7118 29.0222 20.854 28.7916 20.9455 28.5396C21.0371 28.2875 21.0762 28.0194 21.0603 27.7518C21.0978 27.7539 21.1353 27.7552 21.1734 27.7552C21.4416 27.7557 21.707 27.7014 21.9533 27.5954C22.1996 27.4895 22.4217 27.3343 22.6057 27.1393C22.7898 26.9443 22.932 26.7137 23.0236 26.4617C23.1151 26.2097 23.1541 25.9416 23.1382 25.6739C23.1757 25.6761 23.2132 25.6774 23.2513 25.6774C23.6119 25.677 23.9654 25.5777 24.2734 25.3902C24.5814 25.2027 24.832 24.9343 24.9979 24.6142C25.1638 24.294 25.2386 23.9345 25.2142 23.5748C25.1898 23.2151 25.0671 22.8689 24.8595 22.5741L27.6179 20.9881L28.0434 21.7251C28.1097 21.84 28.2189 21.9238 28.347 21.9581C28.475 21.9924 28.6115 21.9744 28.7264 21.9081L32.25 19.874C32.3648 19.8077 32.4486 19.6985 32.4829 19.5704C32.5173 19.4423 32.4993 19.3058 32.433 19.191L27.8117 11.1867C27.7454 11.0719 27.6362 10.9881 27.5081 10.9538C27.38 10.9195 27.2436 10.9374 27.1287 11.0037L23.6051 13.0381C23.4903 13.1044 23.4065 13.2136 23.3722 13.3417C23.3378 13.4698 23.3558 13.6062 23.4221 13.7211L23.8308 14.4289L23.2467 14.6501C22.9787 14.7574 22.6808 14.7634 22.4087 14.6671L18.514 13.3689C18.2979 13.2949 18.0692 13.2648 17.8413 13.2804C17.6134 13.2959 17.3909 13.3568 17.1868 13.4594L16.4118 13.8414C16.4045 13.837 16.3974 13.8323 16.3897 13.8283L15.4665 13.3408C15.2178 13.2075 14.9403 13.1369 14.6581 13.1352C14.3759 13.1335 14.0975 13.2006 13.8472 13.3309L12.6148 13.9621C12.5214 14.0144 12.4164 14.0425 12.3093 14.0439L9.3718 14.0776L9.57767 13.7209C9.64398 13.606 9.66194 13.4696 9.62762 13.3415C9.5933 13.2134 9.50951 13.1042 9.39467 13.0379L5.87124 11.0037C5.7564 10.9374 5.61994 10.9195 5.49187 10.9538C5.3638 10.9881 5.2546 11.0719 5.1883 11.1867L0.566986 19.191C0.500685 19.3058 0.482718 19.4423 0.517037 19.5704C0.551356 19.6985 0.63515 19.8077 0.749986 19.874ZM8.33355 23.9184C8.15279 23.7361 8.05137 23.4897 8.05137 23.233C8.05137 22.9763 8.15279 22.7299 8.33355 22.5476L10.0918 20.7894C10.2738 20.6086 10.52 20.5074 10.7765 20.5078C11.033 20.5083 11.2789 20.6104 11.4602 20.7918C11.6416 20.9732 11.7436 21.219 11.7441 21.4755C11.7445 21.732 11.6432 21.9782 11.4624 22.1602L9.7043 23.9184C9.52237 24.0999 9.27589 24.2018 9.01892 24.2018C8.76196 24.2018 8.51548 24.0999 8.33355 23.9184ZM10.4114 25.9962C10.2307 25.814 10.1293 25.5678 10.1292 25.3111C10.1292 25.0545 10.2304 24.8082 10.411 24.6259L10.4114 24.6254L12.1697 22.8673C12.3519 22.6878 12.5977 22.5876 12.8535 22.5885C13.1093 22.5895 13.3543 22.6915 13.5352 22.8724C13.7161 23.0533 13.8181 23.2983 13.8191 23.5541C13.8201 23.8099 13.7199 24.0557 13.5404 24.2379L11.7821 25.9962C11.6002 26.1777 11.3537 26.2796 11.0968 26.2796C10.8398 26.2796 10.5933 26.1777 10.4114 25.9962ZM12.4892 28.074C12.3077 27.8921 12.2058 27.6456 12.2058 27.3886C12.2058 27.1317 12.3077 26.8852 12.4892 26.7033L14.2474 24.9451C14.4292 24.7633 14.6757 24.6612 14.9328 24.6612C15.1899 24.6612 15.4364 24.7633 15.6182 24.9451C15.7999 25.1268 15.9021 25.3734 15.9021 25.6304C15.9021 25.8875 15.7999 26.134 15.6182 26.3158C15.6014 26.3328 15.5859 26.351 15.5717 26.3703C15.5193 26.4112 15.4693 26.4553 15.4221 26.5023L14.0464 27.8779C13.9993 27.9252 13.9552 27.9753 13.9141 28.0279C13.895 28.042 13.8769 28.0575 13.8599 28.0741C13.678 28.2556 13.4315 28.3575 13.1746 28.3575C12.9176 28.3575 12.6711 28.2555 12.4892 28.074ZM14.7536 29.5037C14.6319 29.3818 14.5635 29.2166 14.5635 29.0443C14.5635 28.872 14.6319 28.7068 14.7536 28.5849L16.1292 27.2093C16.2511 27.0875 16.4163 27.019 16.5886 27.019C16.7609 27.019 16.9262 27.0875 17.048 27.2093C17.1698 27.3312 17.2383 27.4964 17.2383 27.6687C17.2383 27.841 17.1698 28.0062 17.048 28.1281L15.6724 29.5037C15.5501 29.6247 15.385 29.6926 15.213 29.6926C15.041 29.6926 14.8759 29.6247 14.7536 29.5037ZM17.5167 29.9808C17.3958 30.1013 17.2323 30.1695 17.0615 30.1705C16.8908 30.1715 16.7265 30.1053 16.6042 29.9861L17.5222 29.0681C17.6414 29.1904 17.7076 29.3548 17.7066 29.5256C17.7055 29.6963 17.6373 29.8599 17.5167 29.9808ZM19.7812 28.5511C19.5993 28.7326 19.3529 28.8345 19.0959 28.8345C18.839 28.8345 18.5925 28.7326 18.4106 28.5511C18.3936 28.5344 18.3754 28.5188 18.3561 28.5047C18.3152 28.4522 18.2711 28.4022 18.2241 28.3551L18.1284 28.2594C18.2164 28.031 18.2523 27.7858 18.2336 27.5418C18.2149 27.2978 18.142 27.061 18.0203 26.8486C17.8986 26.6363 17.7311 26.4537 17.53 26.3142C17.3289 26.1748 17.0993 26.0818 16.8577 26.0423C16.9124 25.7851 16.9154 25.5197 16.8667 25.2614C17.0507 25.1591 17.2631 25.1195 17.4717 25.1485C17.6803 25.1775 17.8738 25.2735 18.0229 25.4222L19.7812 27.1804C19.9627 27.3623 20.0647 27.6088 20.0647 27.8658C20.0647 28.1228 19.9627 28.3692 19.7812 28.5511ZM21.8591 26.4733C21.6768 26.654 21.4305 26.7554 21.1738 26.7554C20.9171 26.7554 20.6708 26.654 20.4885 26.4733L18.7302 24.7151C18.5538 24.5323 18.4561 24.2876 18.4583 24.0336C18.4605 23.7796 18.5623 23.5366 18.7418 23.3569C18.9214 23.1772 19.1642 23.0752 19.4182 23.0727C19.6722 23.0703 19.9171 23.1677 20.1 23.3439V23.3443L21.8582 25.1024C22.0399 25.2843 22.1419 25.5308 22.142 25.7878C22.1421 26.0448 22.0403 26.2913 21.8588 26.4733H21.8591ZM23.9369 24.3955C23.755 24.577 23.5085 24.6789 23.2516 24.6789C22.9946 24.6789 22.7482 24.577 22.5663 24.3955L20.808 22.6373C20.6285 22.455 20.5283 22.2092 20.5293 21.9534C20.5302 21.6976 20.6323 21.4526 20.8131 21.2717C20.994 21.0908 21.2391 20.9888 21.4948 20.9878C21.7506 20.9869 21.9964 21.0871 22.1787 21.2666L23.9367 23.0251C24.1174 23.2074 24.2188 23.4538 24.2188 23.7105C24.2188 23.9672 24.1174 24.2135 23.9367 24.3958L23.9369 24.3955ZM27.196 12.1198L31.3173 19.2579L28.6597 20.7923L24.538 13.6541L27.196 12.1198ZM17.6289 14.3564C17.7159 14.3109 17.8113 14.2839 17.9092 14.2772C18.0071 14.2706 18.1054 14.2843 18.1977 14.3176L22.0924 15.6159C22.5831 15.7841 23.1175 15.7734 23.6009 15.5854L24.3375 15.3064L27.118 20.1223L24.1531 21.8271L22.8855 20.5594C22.7513 20.4252 22.5983 20.3111 22.4312 20.2208L18.4453 17.2326C18.192 17.0431 17.8896 16.9302 17.574 16.9076L16.9883 16.8559C16.6603 16.8244 16.3302 16.8873 16.0368 17.0371C15.7433 17.1869 15.4988 17.4175 15.332 17.7016L14.5556 18.9784C14.5441 19 14.5261 19.0174 14.5041 19.028C14.4821 19.0386 14.4573 19.0419 14.4333 19.0374L13.252 18.8887C13.2342 18.8864 13.2171 18.8804 13.2018 18.8709C13.1865 18.8614 13.1735 18.8487 13.1635 18.8337C13.1536 18.8187 13.147 18.8018 13.1442 18.784C13.1415 18.7662 13.1425 18.7481 13.1474 18.7308L13.7662 16.537C13.7925 16.4348 13.8411 16.3397 13.9086 16.2586C13.9761 16.1775 14.0607 16.1123 14.1564 16.0679L17.6289 14.3564ZM12.3208 15.0439C12.5825 15.041 12.8398 14.9753 13.0708 14.8522L14.3032 14.2209C14.4104 14.1632 14.5304 14.1334 14.6521 14.1341C14.7739 14.1349 14.8935 14.1662 15 14.2251L15.3057 14.3864L13.714 15.171C13.4924 15.2771 13.2963 15.4299 13.1392 15.6188C12.982 15.8077 12.8675 16.0283 12.8035 16.2656L12.1847 18.4593C12.1408 18.6152 12.131 18.7786 12.156 18.9386C12.181 19.0986 12.2403 19.2513 12.3297 19.3862C12.4192 19.5212 12.5367 19.6353 12.6743 19.7206C12.8118 19.806 12.9662 19.8607 13.1269 19.8809L14.3081 20.0296C14.5236 20.0586 14.7428 20.0236 14.9386 19.9292C15.1344 19.8348 15.2983 19.685 15.4098 19.4984L16.1863 18.2216C16.2568 18.0976 16.3618 17.9968 16.4885 17.9312C16.6152 17.8657 16.7582 17.8383 16.9002 17.8524L17.4858 17.9041C17.6158 17.9104 17.7409 17.9553 17.8452 18.0331L20.6805 20.1586C20.3356 20.3145 20.043 20.5667 19.8381 20.8849C19.6331 21.2032 19.5245 21.5739 19.5254 21.9524C19.5254 21.9903 19.5267 22.0279 19.5288 22.0655C19.2611 22.0495 18.9931 22.0885 18.741 22.1801C18.489 22.2717 18.2584 22.4139 18.0635 22.5979C17.8685 22.782 17.7132 23.004 17.6073 23.2503C17.5014 23.4967 17.447 23.7621 17.4475 24.0302C17.4475 24.0681 17.4489 24.1058 17.451 24.1433C17.0991 24.1228 16.7481 24.197 16.4345 24.358C16.3997 24.3171 16.3636 24.2768 16.325 24.2384C16.1287 24.042 15.8929 23.8894 15.6333 23.7908C15.3737 23.6922 15.0961 23.6497 14.8188 23.6662C14.8209 23.6287 14.8222 23.5912 14.8222 23.5531C14.8228 23.285 14.7686 23.0196 14.6627 22.7732C14.5569 22.5269 14.4018 22.3048 14.2069 22.1207C14.012 21.9366 13.7815 21.7943 13.5296 21.7026C13.2776 21.6109 13.0096 21.5718 12.7419 21.5876C12.7578 21.32 12.7187 21.052 12.6271 20.8001C12.5354 20.5482 12.3932 20.3177 12.2092 20.1228C12.0251 19.9279 11.8032 19.7727 11.5569 19.6668C11.3106 19.5609 11.0453 19.5066 10.7772 19.5071C10.5186 19.5061 10.2624 19.5564 10.0234 19.6551C9.78437 19.7538 9.5673 19.8989 9.38474 20.0821L7.62967 21.8376L5.58355 20.6394L8.79067 15.0844L12.3208 15.0439ZM5.80424 12.1198L8.46186 13.6541L4.34055 20.7923L1.68299 19.2579L5.80424 12.1198ZM16.5 12.5494C17.6589 12.5495 18.7917 12.2058 19.7553 11.562C20.7189 10.9181 21.4699 10.003 21.9134 8.93236C22.3569 7.86169 22.473 6.68355 22.2469 5.54693C22.0208 4.4103 21.4628 3.36624 20.6433 2.54678C19.8239 1.72732 18.7798 1.16925 17.6432 0.943161C16.5066 0.717068 15.3284 0.833101 14.2578 1.27659C13.1871 1.72007 12.272 2.47109 11.6281 3.43467C10.9843 4.39825 10.6406 5.53112 10.6406 6.69001C10.6424 8.24347 11.2603 9.73281 12.3587 10.8313C13.4572 11.9298 14.9465 12.5477 16.5 12.5494ZM16.5 1.83069C17.4611 1.83068 18.4006 2.11567 19.1998 2.64963C19.9989 3.18359 20.6218 3.94253 20.9896 4.83048C21.3574 5.71842 21.4536 6.6955 21.2661 7.63815C21.0786 8.58079 20.6158 9.44666 19.9362 10.1263C19.2566 10.8059 18.3907 11.2687 17.4481 11.4562C16.5054 11.6437 15.5283 11.5475 14.6404 11.1797C13.7524 10.8118 12.9935 10.189 12.4595 9.38985C11.9256 8.59071 11.6406 7.65118 11.6406 6.69007C11.6421 5.40172 12.1545 4.16656 13.0655 3.25556C13.9765 2.34455 15.2116 1.83217 16.5 1.83069ZM14.2757 6.71357C14.1978 6.6063 14.1656 6.47245 14.1863 6.34146C14.2071 6.21048 14.279 6.0931 14.3862 6.01513C14.4935 5.93717 14.6274 5.90501 14.7583 5.92573C14.8893 5.94645 15.0067 6.01836 15.0847 6.12563L15.85 7.17888L18.3977 5.09188C18.5004 5.00886 18.6317 4.96983 18.7631 4.98331C18.8944 4.99679 19.0151 5.06169 19.0988 5.16385C19.1825 5.266 19.2224 5.39711 19.2097 5.52855C19.1971 5.66 19.133 5.78111 19.0314 5.86544L16.0738 8.28819C16.0211 8.33135 15.9602 8.36329 15.8947 8.38205C15.8293 8.40082 15.7607 8.40601 15.6931 8.39732C15.6256 8.38863 15.5605 8.36624 15.502 8.33151C15.4434 8.29679 15.3925 8.25046 15.3525 8.19538L14.2757 6.71357Z" fill="black"/>
</g>
<defs>
<clipPath id="clip0_225_47">
<rect width="32" height="32" fill="white" transform="translate(0.5)"/>
</clipPath>
</defs>
</svg>
