<svg width="33" height="32" viewBox="0 0 33 32" fill="none" xmlns="http://www.w3.org/2000/svg">
<path d="M30.0623 20.5923C29.7932 20.1431 28.6908 18.808 25.8028 20.4899L20.7872 23.4113C20.5804 23.5317 20.3707 23.6224 20.154 23.6842C20.2243 23.5511 20.2813 23.4053 20.3234 23.248C20.5873 22.2627 20.0027 21.2345 18.9923 20.9069C18.971 20.9 18.9491 20.8945 18.9269 20.8905C17.49 20.6313 16.0696 20.1178 14.9283 19.7052C14.5307 19.5615 14.1552 19.4257 13.8353 19.3221C12.5308 18.8988 11.3564 19.4197 10.3798 19.9852L6.69622 22.1179L6.37172 21.5446C6.20915 21.2574 5.94378 21.0504 5.6244 20.9619C5.30522 20.8734 4.97103 20.9142 4.68384 21.0767L3.27665 21.8732C2.68234 22.2096 2.47253 22.9667 2.80884 23.561L6.94615 30.8714C7.10872 31.1586 7.37409 31.3655 7.69347 31.454C7.8039 31.4846 7.91609 31.4997 8.02747 31.4997C8.23822 31.4997 8.44615 31.4456 8.63403 31.3392L10.0413 30.5427C10.6357 30.2064 10.8455 29.4492 10.5092 28.8549L10.1094 28.1486L10.8932 27.6962L17.2952 29.4116C17.6545 29.5079 18.0118 29.5557 18.3635 29.5557C19.0746 29.5557 19.7617 29.3599 20.3897 28.9732L29.4918 23.3685C30.3457 22.8427 30.6176 21.5195 30.0623 20.5923ZM9.54872 29.6724L8.1414 30.4689C8.06759 30.5107 7.9964 30.5002 7.96047 30.4904C7.92459 30.4804 7.85815 30.4527 7.8164 30.3789L3.67909 23.0685C3.6154 22.956 3.65672 22.8071 3.76915 22.7435L5.1764 21.9471C5.21747 21.9238 5.25778 21.9167 5.29159 21.9167C5.31853 21.9167 5.3414 21.9212 5.35734 21.9257C5.39322 21.9356 5.45959 21.9633 5.5014 22.0371L9.63878 29.3474C9.70247 29.46 9.66115 29.6088 9.54872 29.6724ZM18.1 24.6251L18.7238 24.7266C19.6697 24.8778 20.5092 24.7302 21.2903 24.2754L26.306 21.3541C27.7204 20.5302 28.8039 20.4375 29.2043 21.1061C29.4785 21.5639 29.359 22.2759 28.9673 22.5169L19.8652 28.1217C19.1568 28.5578 18.3792 28.6669 17.5539 28.4456L10.9518 26.6766C10.8237 26.6424 10.6873 26.6603 10.5724 26.7266L9.61678 27.2782L7.18878 22.9882L10.8808 20.8506C11.7063 20.3726 12.5982 19.9717 13.5268 20.2731C13.8308 20.3717 14.1818 20.4986 14.5883 20.6456C15.7555 21.0676 17.2057 21.5919 18.7128 21.8679C19.2069 22.0426 19.4832 22.5194 19.3573 22.9891C19.1916 23.6076 18.6727 23.6842 18.259 23.6371C17.5236 23.4856 16.8237 23.2859 16.0831 23.0744C15.7307 22.9738 15.3662 22.8697 14.9914 22.7692C14.7248 22.6979 14.4505 22.8561 14.379 23.1228C14.3075 23.3896 14.4658 23.6637 14.7326 23.7352C15.0995 23.8335 15.4599 23.9364 15.8085 24.0359C16.5752 24.2549 17.2993 24.4617 18.08 24.6213M5.55772 23.3111C5.59784 23.5857 5.40784 23.8408 5.13322 23.8809C4.85865 23.9211 4.60353 23.7311 4.5634 23.4564C4.52328 23.1819 4.71328 22.9267 4.9879 22.8866C5.26247 22.8465 5.51759 23.0366 5.55772 23.3111ZM12.9326 8.3098C13.1639 8.76093 13.28 8.9873 13.3132 9.17555C13.3464 9.36374 13.3147 9.61618 13.2517 10.1192C13.2358 10.2457 13.2182 10.3867 13.1992 10.5451C13.0951 11.4161 13.567 12.2334 14.3734 12.5789C14.52 12.6417 14.6509 12.6968 14.7684 12.7464C14.7898 12.7554 14.8102 12.764 14.8306 12.7726L12.9722 16.7641C12.8936 16.933 12.9153 17.1315 13.0287 17.2794C13.142 17.4272 13.328 17.4999 13.5115 17.4677L15.5542 17.1108L16.596 18.9037C16.6858 19.0581 16.8508 19.1524 17.0283 19.1524C17.0358 19.1524 17.0435 19.1522 17.051 19.1519C17.2371 19.1435 17.403 19.0323 17.4817 18.8635L19.3265 14.9011L19.29 14.8841C19.6059 14.7886 19.7923 14.7405 19.9451 14.7405C20.1362 14.7405 20.3793 14.8155 20.8637 14.965C20.9145 14.9807 20.9683 14.9972 21.0242 15.0144L22.3556 18.1054C22.4293 18.2765 22.5919 18.3924 22.7777 18.4062C22.7901 18.4072 22.8025 18.4076 22.8149 18.4076C22.9869 18.4076 23.148 18.3189 23.2397 18.1712L24.333 16.4094L26.3644 16.8254C26.5469 16.8628 26.735 16.7956 26.8525 16.6512C26.9701 16.5067 26.9976 16.3089 26.924 16.1378L25.4107 12.6243C25.4452 12.6097 25.4805 12.5946 25.5168 12.579C26.3233 12.2336 26.7952 11.4162 26.691 10.5452C26.6721 10.3868 26.6545 10.2459 26.6386 10.1194C26.5755 9.61636 26.5438 9.36392 26.577 9.17568C26.6102 8.98749 26.7263 8.76105 26.9576 8.30999C27.0158 8.19649 27.0806 8.07011 27.1526 7.9278C27.5484 7.14486 27.3845 6.21543 26.7448 5.61511C26.6285 5.50593 26.5245 5.40936 26.431 5.32261C26.0593 4.9778 25.8728 4.8048 25.7772 4.63924C25.6817 4.47374 25.625 4.22568 25.5123 3.73149C25.484 3.60711 25.4524 3.46861 25.416 3.3133C25.2159 2.45911 24.4929 1.85249 23.617 1.8038C23.4577 1.79493 23.3159 1.78793 23.1885 1.78155C22.6822 1.75636 22.4281 1.74368 22.2485 1.6783C22.0688 1.61293 21.866 1.4593 21.462 1.15318C21.3603 1.07618 21.2472 0.990426 21.1195 0.894801C20.4172 0.369051 19.4734 0.369051 18.7711 0.894801C18.6434 0.990426 18.5302 1.07618 18.4285 1.15318C18.0245 1.4593 17.8217 1.61293 17.6421 1.6783C17.4625 1.74368 17.2084 1.75636 16.702 1.78155C16.5747 1.78793 16.4328 1.79493 16.2736 1.8038C15.3977 1.85255 14.6747 2.45918 14.4746 3.3133C14.4382 3.46861 14.4067 3.60705 14.3782 3.73143C14.2655 4.22568 14.2089 4.47368 14.1133 4.63924C14.0177 4.80474 13.8312 4.9778 13.4596 5.32255C13.3661 5.4093 13.262 5.50593 13.1457 5.61505C12.506 6.21543 12.3421 7.1448 12.7378 7.92774C12.8096 8.06999 12.8744 8.19636 12.9326 8.3098ZM16.9794 17.5729L16.2438 16.307C16.1386 16.126 15.9319 16.0297 15.7254 16.0657L14.2831 16.3177L15.7088 13.2555C15.8268 13.3869 15.9585 13.5907 16.1758 13.9272C16.245 14.0344 16.322 14.1537 16.4093 14.2873C16.7803 14.8545 17.3938 15.1761 18.041 15.1761C18.0593 15.1761 18.0778 15.1746 18.0962 15.1741L16.9794 17.5729ZM24.1922 15.3597C23.9871 15.3177 23.7775 15.4079 23.6671 15.5859L22.8951 16.8299L22.1707 15.1481C22.695 15.0601 23.1721 14.7594 23.4808 14.2873C23.5681 14.1538 23.6451 14.0346 23.7143 13.9274C23.9893 13.5015 24.1273 13.2877 24.2737 13.1649C24.3308 13.1169 24.4017 13.0726 24.4943 13.0247L25.6265 15.6534L24.1922 15.3597ZM13.8298 6.34411C13.9445 6.23643 14.0472 6.14111 14.1395 6.05555C15.027 5.23224 15.0837 5.13399 15.353 3.95374C15.381 3.83105 15.4122 3.69449 15.4481 3.54124C15.5476 3.11649 15.8934 2.82636 16.329 2.80211C16.4861 2.79336 16.626 2.78643 16.7517 2.78011C17.9608 2.71993 18.0673 2.68111 19.0323 1.95005C19.1325 1.87405 19.2443 1.78943 19.3703 1.69511C19.5449 1.56436 19.745 1.49905 19.9452 1.49905C20.1453 1.49905 20.3455 1.56436 20.5202 1.69511C20.6462 1.78936 20.7578 1.87399 20.8581 1.94999C21.823 2.68105 21.9296 2.7198 23.1387 2.78005C23.2644 2.7863 23.4043 2.79324 23.5614 2.80205C23.997 2.8263 24.3428 3.11643 24.4423 3.54118C24.4782 3.69443 24.5093 3.83105 24.5373 3.95374C24.8066 5.13393 24.8633 5.23218 25.7508 6.05549C25.8431 6.14105 25.9458 6.23636 26.0605 6.34405C26.3787 6.64261 26.457 7.08711 26.2602 7.47649C26.1892 7.61693 26.1252 7.74161 26.0678 7.85355C25.5155 8.9308 25.4958 9.04249 25.6464 10.2437C25.662 10.3685 25.6795 10.5075 25.6982 10.6637C25.75 11.0969 25.5243 11.4878 25.1232 11.6596C24.9786 11.7215 24.8495 11.7759 24.7335 11.8248C23.6179 12.2949 23.531 12.3678 22.8743 13.3848C22.806 13.4905 22.73 13.6082 22.6439 13.7399C22.4052 14.1049 21.9811 14.2593 21.5633 14.1332C21.4127 14.0876 21.2788 14.0464 21.1587 14.0092C20.002 13.6524 19.8885 13.6523 18.7316 14.0092C18.6114 14.0464 18.4775 14.0876 18.3269 14.1332C17.9094 14.2594 17.4851 14.105 17.2463 13.7399C17.1602 13.6082 17.0842 13.4904 17.0159 13.3847C16.3592 12.3678 16.2723 12.2949 15.1567 11.8248C15.0408 11.7759 14.9117 11.7216 14.767 11.6596C14.366 11.4878 14.1403 11.0969 14.1921 10.6637C14.2108 10.5074 14.2282 10.3684 14.2439 10.2436C14.3945 9.04236 14.3748 8.93074 13.8224 7.85343C13.765 7.74149 13.7011 7.61686 13.6301 7.47643C13.4333 7.08718 13.5117 6.64268 13.8298 6.34411ZM19.945 12.4226C22.473 12.4226 24.5297 10.3659 24.5297 7.83793C24.5297 5.30993 22.473 3.2533 19.945 3.2533C17.417 3.2533 15.3604 5.30999 15.3604 7.83793C15.3604 10.3659 17.4171 12.4226 19.945 12.4226ZM19.945 4.25324C21.9216 4.25324 23.5297 5.8613 23.5297 7.83786C23.5297 9.81443 21.9217 11.4226 19.945 11.4226C17.9684 11.4226 16.3604 9.81449 16.3604 7.83786C16.3604 5.86124 17.9685 4.25324 19.945 4.25324ZM18.6722 9.60968L17.3855 8.32286C17.1902 8.12761 17.1902 7.81105 17.3855 7.6158C17.5808 7.42049 17.8974 7.42055 18.0925 7.6158L19.0425 8.5658L21.8151 6.04955C22.0196 5.86393 22.3358 5.8793 22.5214 6.0838C22.707 6.2883 22.6917 6.60455 22.4872 6.79011L19.3618 9.62643C19.2662 9.71311 19.1459 9.75618 19.0258 9.75618C18.8976 9.75611 18.7696 9.70705 18.6722 9.60968Z" fill="black"/>
</svg>
