<svg width="33" height="32" viewBox="0 0 33 32" fill="none" xmlns="http://www.w3.org/2000/svg">
<g clip-path="url(#clip0_225_103)">
<path fill-rule="evenodd" clip-rule="evenodd" d="M26.4656 9.33104C26.6563 9.51865 26.6563 9.82237 26.4656 10.0099L22.4138 14.0184C22.2252 14.205 21.921 14.2078 21.7295 14.0184L19.7015 12.0141C19.5149 11.827 19.5149 11.5232 19.7015 11.3356C19.8922 11.148 20.1992 11.148 20.3899 11.3356L22.0695 13L25.7771 9.33097C25.9679 9.14351 26.2748 9.14351 26.4656 9.33104ZM23.0856 16.0732C25.7315 16.0732 27.8881 13.9782 27.8881 11.4035C27.8881 8.82873 25.7316 6.73375 23.0856 6.73375C20.4356 6.73375 18.279 8.82873 18.279 11.4035C18.279 13.9782 20.4355 16.0732 23.0856 16.0732ZM23.0856 5.77365C19.9006 5.77365 17.3127 8.29916 17.3127 11.4035C17.3127 14.5078 19.9006 17.0333 23.0856 17.0333C26.2665 17.0333 28.8585 14.5078 28.8585 11.4035C28.8585 8.29916 26.2665 5.77365 23.0856 5.77365ZM29.5926 17.1355L31.3551 14.1153L29.9824 13.3318C29.8 13.2279 29.7087 13.0194 29.7501 12.8158C29.9498 11.8627 29.9498 10.9444 29.7501 9.99064C29.7087 9.78706 29.7999 9.57894 29.9824 9.47514L31.3551 8.69159L29.5926 5.6719L28.2198 6.45544C28.0374 6.55969 27.8093 6.53551 27.6517 6.39589C26.9301 5.75189 26.1006 5.27617 25.1841 4.98226C24.9808 4.91824 24.844 4.73392 24.844 4.52544V2.95995H21.3231V4.52588C21.3231 4.73436 21.1862 4.91868 20.9872 4.9827C20.0706 5.27617 19.237 5.75189 18.5154 6.39633C18.362 6.53588 18.1297 6.56013 17.9473 6.45581L16.5787 5.67182L14.8161 8.69152L16.1847 9.4747C16.3672 9.57894 16.4626 9.78706 16.417 9.99064C16.2185 10.8935 16.2182 11.9128 16.417 12.8167C16.4626 13.0194 16.3672 13.2279 16.1847 13.3318L14.8161 14.1153L16.5787 17.1355L17.9473 16.3515C18.1297 16.2472 18.362 16.2715 18.5154 16.411C19.237 17.055 20.0665 17.5303 20.9872 17.8247C21.1862 17.8891 21.3231 18.073 21.3231 18.2811V19.8466H24.844V18.2811C24.844 18.073 24.9808 17.8891 25.1841 17.8247C26.1006 17.5303 26.9301 17.055 27.6517 16.411C27.8093 16.2715 28.0374 16.2472 28.2198 16.3515L29.5926 17.1355ZM22.5548 28.4813V20.8066H20.8379C20.5683 20.8066 20.3527 20.5923 20.3527 20.3267V18.6221C19.544 18.3233 18.8017 17.8985 18.1339 17.353L16.6409 18.2072C16.4085 18.3393 16.1119 18.258 15.9774 18.0311L13.7338 14.1798C13.6674 14.069 13.6508 13.9384 13.684 13.8154C13.739 13.6113 13.8711 13.5442 14.0241 13.4599H2.68558V28.4813C2.68558 28.7891 2.93857 29.04 3.24959 29.04H4.05416V17.6399C4.05416 17.0103 4.57258 16.4972 5.20705 16.4972H11.9504C12.5849 16.4972 13.1033 17.0103 13.1033 17.6399V22.4586H20.7009C20.9664 22.4586 21.1861 22.6737 21.1861 22.9385V29.0399H21.9907C22.3018 29.0398 22.5548 28.7891 22.5548 28.4813ZM5.0246 23.4187H6.86593V24.6028C6.86593 25.0724 7.25163 25.4553 7.72438 25.4553H9.433C9.90574 25.4553 10.2956 25.0723 10.2956 24.6028V23.4187H12.1328V29.0398H5.0246V23.4187ZM7.83637 23.4187H9.32523V24.4949H7.83637V23.4187ZM15.8073 25.4554H17.5118C17.9887 25.4554 18.3744 25.0724 18.3744 24.6029V23.4187H20.2157V29.0399H13.1032V23.4187H14.9445V24.6029C14.9447 25.0724 15.3303 25.4554 15.8073 25.4554ZM15.9151 23.4187H17.404V24.4949H15.9151V23.4187ZM7.72438 19.4939H9.433C9.90574 19.4939 10.2956 19.1118 10.2956 18.6414V17.4572H11.9503C12.0499 17.4572 12.1328 17.5393 12.1328 17.6398V22.4586H5.0246V17.6398C5.0246 17.5393 5.1075 17.4572 5.20705 17.4572H6.86593V18.6414C6.86593 19.1118 7.25163 19.4939 7.72438 19.4939ZM7.83637 17.4572H9.32523V18.5339H7.83637V17.4572ZM1.47044 12.446V11.5278C1.47044 11.3209 1.57828 11.1501 1.76903 11.0603L12.5227 5.91525L14.7124 6.94546L13.7337 8.62749C13.5968 8.85693 13.6797 9.1504 13.9079 9.28299L15.405 10.1359C15.2687 10.9425 15.2651 11.691 15.376 12.4997H1.5244C1.49538 12.4997 1.47044 12.4748 1.47044 12.446ZM32.2592 13.5239L30.7662 12.6705C30.9046 11.8503 30.9045 10.9567 30.7662 10.1364L32.2592 9.28299C32.4909 9.15098 32.5663 8.85166 32.4375 8.62749L30.1897 4.77619C30.057 4.54631 29.7584 4.46793 29.5262 4.60052L28.0332 5.45345C27.3655 4.90835 26.6231 4.48309 25.8144 4.18428V2.48019C25.8144 2.21508 25.5988 2 25.3292 2H20.8379C20.5683 2 20.3527 2.21508 20.3527 2.48019V4.18479C19.544 4.48317 18.8017 4.90886 18.1339 5.45389L16.6409 4.60052C16.4083 4.46749 16.1119 4.54858 15.9774 4.77619L15.2018 6.11143L12.7301 4.94944C12.5974 4.88703 12.4439 4.88747 12.3112 4.95069L1.34602 10.1959C0.823455 10.4446 0.5 10.9552 0.5 11.5279V12.446C0.5 13.0047 0.960313 13.4599 1.52433 13.4599H1.71507V28.4813C1.71507 29.3191 2.4035 30 3.24952 30H21.9906C22.8366 30 23.5251 29.3191 23.5251 28.4813V20.8066H25.3291C25.5987 20.8066 25.8143 20.5923 25.8143 20.3267V18.6221C26.623 18.3233 27.3653 17.8985 28.033 17.353L29.526 18.2072C29.7575 18.3388 30.0531 18.2611 30.1896 18.0311L32.4373 14.1798C32.567 13.9536 32.4886 13.6534 32.2592 13.5239Z" fill="black"/>
</g>
<defs>
<clipPath id="clip0_225_103">
<rect width="32" height="32" fill="white" transform="translate(0.5)"/>
</clipPath>
</defs>
</svg>
