<svg width="33" height="32" viewBox="0 0 33 32" fill="none" xmlns="http://www.w3.org/2000/svg">
<path d="M4.5 3H5.5V4H4.5V3Z" fill="black"/>
<path d="M6.5 3H7.5V4H6.5V3Z" fill="black"/>
<path d="M8.5 3H9.5V4H8.5V3Z" fill="black"/>
<path d="M5 14H13C13.1326 14 13.2598 13.9473 13.3536 13.8536C13.4473 13.7598 13.5 13.6326 13.5 13.5V8.5C13.5 8.36739 13.4473 8.24021 13.3536 8.14645C13.2598 8.05268 13.1326 8 13 8H5C4.86739 8 4.74021 8.05268 4.64645 8.14645C4.55268 8.24021 4.5 8.36739 4.5 8.5V13.5C4.5 13.6326 4.55268 13.7598 4.64645 13.8536C4.74021 13.9473 4.86739 14 5 14ZM5.5 9H12.5V13H5.5V9Z" fill="black"/>
<path d="M17.5 8.5H25.5V9.5H17.5V8.5Z" fill="black"/>
<path d="M15.5 10.5H24.5V11.5H15.5V10.5Z" fill="black"/>
<path d="M15.5 12.5H22.5V13.5H15.5V12.5Z" fill="black"/>
<path d="M6.5 16H19.5V17H6.5V16Z" fill="black"/>
<path d="M4.5 18H17.5V19H4.5V18Z" fill="black"/>
<path d="M4.5 20H15.5V21H4.5V20Z" fill="black"/>
<path d="M4.5 22H15.5V23H4.5V22Z" fill="black"/>
<path d="M4.5 24H15.5V25H4.5V24Z" fill="black"/>
<path d="M4.5 16H5.5V17H4.5V16Z" fill="black"/>
<path d="M29 4H28.5V3.5C28.5 2.83696 28.2366 2.20107 27.7678 1.73223C27.2989 1.26339 26.663 1 26 1H4C3.33696 1 2.70107 1.26339 2.23223 1.73223C1.76339 2.20107 1.5 2.83696 1.5 3.5V25.5C1.5 26.163 1.76339 26.7989 2.23223 27.2678C2.70107 27.7366 3.33696 28 4 28H4.5V28.5C4.5 29.163 4.76339 29.7989 5.23223 30.2678C5.70107 30.7366 6.33696 31 7 31H29C29.663 31 30.2989 30.7366 30.7678 30.2678C31.2366 29.7989 31.5 29.163 31.5 28.5V6.5C31.5 5.83696 31.2366 5.20107 30.7678 4.73223C30.2989 4.26339 29.663 4 29 4ZM28.105 11.77L30.23 13.895L28.815 15.31L26.69 13.185L28.105 11.77ZM19.065 21.825L19.46 20.8L21.2 22.54L20.175 22.935L19.065 21.825ZM19.155 23.325L18.37 23.63L18.675 22.845L19.155 23.325ZM20.68 20.61L19.975 19.905L25.985 13.895L26.69 14.6L20.68 20.61ZM27.4 15.31L28.105 16.015L22.095 22.025L21.39 21.32L27.4 15.31ZM2.5 3.5C2.50119 3.10254 2.6596 2.7217 2.94065 2.44065C3.2217 2.1596 3.60254 2.00119 4 2H26C26.3975 2.00119 26.7783 2.1596 27.0593 2.44065C27.3404 2.7217 27.4988 3.10254 27.5 3.5V5H2.5V3.5ZM4 27C3.60254 26.9988 3.2217 26.8404 2.94065 26.5593C2.6596 26.2783 2.50119 25.8975 2.5 25.5V6H27.5V10.965L18.915 19.55C18.8649 19.5997 18.8257 19.6593 18.8 19.725L17.035 24.32C16.9987 24.4101 16.9898 24.5089 17.0093 24.6041C17.0289 24.6992 17.0761 24.7865 17.145 24.855C17.2396 24.9483 17.3672 25.0004 17.5 25C17.5617 25.0005 17.6229 24.9886 17.68 24.965L22.275 23.2C22.3407 23.1743 22.4003 23.1351 22.45 23.085L27.5 18.035V25.5C27.4988 25.8975 27.3404 26.2783 27.0593 26.5593C26.7783 26.8404 26.3975 26.9988 26 27H4ZM30.5 28.5C30.4988 28.8975 30.3404 29.2783 30.0593 29.5593C29.7783 29.8404 29.3975 29.9988 29 30H7C6.60254 29.9988 6.2217 29.8404 5.94065 29.5593C5.6596 29.2783 5.50119 28.8975 5.5 28.5V28H26C26.663 28 27.2989 27.7366 27.7678 27.2678C28.2366 26.7989 28.5 26.163 28.5 25.5V17.035L30.5 15.035V28.5ZM30.5 12.75L28.5 10.75V9H30.5V12.75ZM30.5 8H28.5V5H29C29.3975 5.00119 29.7783 5.1596 30.0593 5.44065C30.3404 5.7217 30.4988 6.10254 30.5 6.5V8Z" fill="black"/>
<path d="M15.5 8.5H16.5V9.5H15.5V8.5Z" fill="black"/>
</svg>
