<svg width="32" height="32" viewBox="0 0 32 32" fill="none" xmlns="http://www.w3.org/2000/svg">
<path fill-rule="evenodd" clip-rule="evenodd" d="M25.9656 9.33104C26.1563 9.51865 26.1563 9.82237 25.9656 10.0099L21.9138 14.0184C21.7252 14.205 21.421 14.2078 21.2295 14.0184L19.2015 12.0141C19.0149 11.827 19.0149 11.5232 19.2015 11.3356C19.3922 11.148 19.6992 11.148 19.8899 11.3356L21.5695 13L25.2771 9.33097C25.4679 9.14351 25.7748 9.14351 25.9656 9.33104ZM22.5856 16.0732C25.2315 16.0732 27.3881 13.9782 27.3881 11.4035C27.3881 8.82873 25.2316 6.73375 22.5856 6.73375C19.9356 6.73375 17.779 8.82873 17.779 11.4035C17.779 13.9782 19.9355 16.0732 22.5856 16.0732ZM22.5856 5.77365C19.4006 5.77365 16.8127 8.29916 16.8127 11.4035C16.8127 14.5078 19.4006 17.0333 22.5856 17.0333C25.7665 17.0333 28.3585 14.5078 28.3585 11.4035C28.3585 8.29916 25.7665 5.77365 22.5856 5.77365ZM29.0926 17.1355L30.8551 14.1153L29.4824 13.3318C29.3 13.2279 29.2087 13.0194 29.2501 12.8158C29.4498 11.8627 29.4498 10.9444 29.2501 9.99064C29.2087 9.78706 29.2999 9.57894 29.4824 9.47514L30.8551 8.69159L29.0926 5.6719L27.7198 6.45544C27.5374 6.55969 27.3093 6.53551 27.1517 6.39589C26.4301 5.75189 25.6006 5.27617 24.6841 4.98226C24.4808 4.91824 24.344 4.73392 24.344 4.52544V2.95995H20.8231V4.52588C20.8231 4.73436 20.6862 4.91868 20.4872 4.9827C19.5706 5.27617 18.737 5.75189 18.0154 6.39633C17.862 6.53588 17.6297 6.56013 17.4473 6.45581L16.0787 5.67182L14.3161 8.69152L15.6847 9.4747C15.8672 9.57894 15.9626 9.78706 15.917 9.99064C15.7185 10.8935 15.7182 11.9128 15.917 12.8167C15.9626 13.0194 15.8672 13.2279 15.6847 13.3318L14.3161 14.1153L16.0787 17.1355L17.4473 16.3515C17.6297 16.2472 17.862 16.2715 18.0154 16.411C18.737 17.055 19.5665 17.5303 20.4872 17.8247C20.6862 17.8891 20.8231 18.073 20.8231 18.2811V19.8466H24.344V18.2811C24.344 18.073 24.4808 17.8891 24.6841 17.8247C25.6006 17.5303 26.4301 17.055 27.1517 16.411C27.3093 16.2715 27.5374 16.2472 27.7198 16.3515L29.0926 17.1355ZM22.0548 28.4813V20.8066H20.3379C20.0683 20.8066 19.8527 20.5923 19.8527 20.3267V18.6221C19.044 18.3233 18.3017 17.8985 17.6339 17.353L16.1409 18.2072C15.9085 18.3393 15.6119 18.258 15.4774 18.0311L13.2338 14.1798C13.1674 14.069 13.1508 13.9384 13.184 13.8154C13.239 13.6113 13.3711 13.5442 13.5241 13.4599H2.18558V28.4813C2.18558 28.7891 2.43857 29.04 2.74959 29.04H3.55416V17.6399C3.55416 17.0103 4.07258 16.4972 4.70705 16.4972H11.4504C12.0849 16.4972 12.6033 17.0103 12.6033 17.6399V22.4586H20.2009C20.4664 22.4586 20.6861 22.6737 20.6861 22.9385V29.0399H21.4907C21.8018 29.0398 22.0548 28.7891 22.0548 28.4813ZM4.5246 23.4187H6.36593V24.6028C6.36593 25.0724 6.75163 25.4553 7.22438 25.4553H8.933C9.40574 25.4553 9.79559 25.0723 9.79559 24.6028V23.4187H11.6328V29.0398H4.5246V23.4187ZM7.33637 23.4187H8.82523V24.4949H7.33637V23.4187ZM15.3073 25.4554H17.0118C17.4887 25.4554 17.8744 25.0724 17.8744 24.6029V23.4187H19.7157V29.0399H12.6032V23.4187H14.4445V24.6029C14.4447 25.0724 14.8303 25.4554 15.3073 25.4554ZM15.4151 23.4187H16.904V24.4949H15.4151V23.4187ZM7.22438 19.4939H8.933C9.40574 19.4939 9.79559 19.1118 9.79559 18.6414V17.4572H11.4503C11.5499 17.4572 11.6328 17.5393 11.6328 17.6398V22.4586H4.5246V17.6398C4.5246 17.5393 4.6075 17.4572 4.70705 17.4572H6.36593V18.6414C6.36593 19.1118 6.75163 19.4939 7.22438 19.4939ZM7.33637 17.4572H8.82523V18.5339H7.33637V17.4572ZM0.97044 12.446V11.5278C0.97044 11.3209 1.07828 11.1501 1.26903 11.0603L12.0227 5.91525L14.2124 6.94546L13.2337 8.62749C13.0968 8.85693 13.1797 9.1504 13.4079 9.28299L14.905 10.1359C14.7687 10.9425 14.7651 11.691 14.876 12.4997H1.0244C0.995384 12.4997 0.97044 12.4748 0.97044 12.446ZM31.7592 13.5239L30.2662 12.6705C30.4046 11.8503 30.4045 10.9567 30.2662 10.1364L31.7592 9.28299C31.9909 9.15098 32.0663 8.85166 31.9375 8.62749L29.6897 4.77619C29.557 4.54631 29.2584 4.46793 29.0262 4.60052L27.5332 5.45345C26.8655 4.90835 26.1231 4.48309 25.3144 4.18428V2.48019C25.3144 2.21508 25.0988 2 24.8292 2H20.3379C20.0683 2 19.8527 2.21508 19.8527 2.48019V4.18479C19.044 4.48317 18.3017 4.90886 17.6339 5.45389L16.1409 4.60052C15.9083 4.46749 15.6119 4.54858 15.4774 4.77619L14.7018 6.11143L12.2301 4.94944C12.0974 4.88703 11.9439 4.88747 11.8112 4.95069L0.846017 10.1959C0.323455 10.4446 0 10.9552 0 11.5279V12.446C0 13.0047 0.460313 13.4599 1.02433 13.4599H1.21507V28.4813C1.21507 29.3191 1.9035 30 2.74952 30H21.4906C22.3366 30 23.0251 29.3191 23.0251 28.4813V20.8066H24.8291C25.0987 20.8066 25.3143 20.5923 25.3143 20.3267V18.6221C26.123 18.3233 26.8653 17.8985 27.533 17.353L29.026 18.2072C29.2575 18.3388 29.5531 18.2611 29.6896 18.0311L31.9373 14.1798C32.067 13.9536 31.9886 13.6534 31.7592 13.5239Z" fill="black"/>
</svg>
