<svg width="32" height="32" viewBox="0 0 32 32" fill="none" xmlns="http://www.w3.org/2000/svg">
<g clip-path="url(#clip0_1113_3961)">
<path d="M0.249986 19.8735L3.77361 21.9078C3.83048 21.9407 3.89327 21.962 3.95837 21.9705C4.02348 21.9791 4.08963 21.9747 4.15305 21.9577C4.21648 21.9407 4.27593 21.9114 4.32801 21.8714C4.3801 21.8314 4.4238 21.7815 4.45661 21.7246L4.58355 21.5048L6.62417 22.6995C6.57593 22.873 6.55148 23.0523 6.55149 23.2323C6.5505 23.4909 6.60082 23.7471 6.69952 23.9861C6.79821 24.2252 6.94334 24.4422 7.12649 24.6248C7.30922 24.8077 7.52629 24.9528 7.76525 25.0516C8.00421 25.1505 8.26034 25.2011 8.51892 25.2006C8.55686 25.2006 8.59486 25.1991 8.6328 25.197C8.63067 25.2345 8.6293 25.272 8.6293 25.3101C8.62874 25.5687 8.67925 25.8248 8.77792 26.0637C8.8766 26.3027 9.02149 26.5198 9.2043 26.7026C9.3871 26.8854 9.60421 27.0303 9.84317 27.129C10.0821 27.2276 10.3382 27.2781 10.5967 27.2776C10.6349 27.2776 10.6728 27.2762 10.7106 27.2741C10.7085 27.3119 10.707 27.3498 10.707 27.388C10.7065 27.6465 10.757 27.9026 10.8557 28.1415C10.9543 28.3805 11.0992 28.5976 11.282 28.7804C11.4648 28.9632 11.6819 29.1082 11.9209 29.2068C12.1599 29.3055 12.416 29.356 12.6745 29.3555C12.8129 29.3554 12.951 29.341 13.0865 29.3123C13.1493 29.6981 13.3475 30.0488 13.6455 30.3016C13.9436 30.5544 14.3219 30.6928 14.7127 30.6918C14.9104 30.692 15.1064 30.6569 15.2917 30.588L15.391 30.6871C15.6053 30.9018 15.8746 31.0531 16.1694 31.1245C16.4641 31.1959 16.7729 31.1846 17.0616 31.0918C17.3504 30.999 17.6079 30.8283 17.8059 30.5986C18.0039 30.3689 18.1347 30.0889 18.1838 29.7896C18.3192 29.8185 18.4572 29.8332 18.5956 29.8334C18.8638 29.8337 19.1291 29.7792 19.3754 29.6731C19.6217 29.5671 19.8437 29.4118 20.0277 29.2168C20.2118 29.0217 20.354 28.7911 20.4455 28.5391C20.5371 28.287 20.5762 28.0189 20.5603 27.7513C20.5978 27.7534 20.6353 27.7547 20.6734 27.7547C20.9416 27.7552 21.207 27.7009 21.4533 27.595C21.6996 27.489 21.9217 27.3338 22.1057 27.1388C22.2898 26.9438 22.432 26.7132 22.5236 26.4612C22.6151 26.2092 22.6541 25.9411 22.6382 25.6735C22.6757 25.6756 22.7132 25.6769 22.7513 25.6769C23.1119 25.6765 23.4654 25.5772 23.7734 25.3897C24.0814 25.2022 24.332 24.9338 24.4979 24.6137C24.6638 24.2936 24.7386 23.934 24.7142 23.5743C24.6898 23.2146 24.5671 22.8684 24.3595 22.5736L27.1179 20.9876L27.5434 21.7246C27.6097 21.8395 27.7189 21.9233 27.847 21.9576C27.975 21.9919 28.1115 21.9739 28.2264 21.9076L31.75 19.8735C31.8648 19.8072 31.9486 19.698 31.9829 19.5699C32.0173 19.4418 31.9993 19.3054 31.933 19.1905L27.3117 11.1862C27.2454 11.0714 27.1362 10.9876 27.0081 10.9533C26.88 10.919 26.7436 10.9369 26.6287 11.0032L23.1051 13.0376C22.9903 13.1039 22.9065 13.2131 22.8722 13.3412C22.8378 13.4693 22.8558 13.6057 22.9221 13.7206L23.3308 14.4285L22.7467 14.6496C22.4787 14.7569 22.1808 14.7629 21.9087 14.6666L18.014 13.3684C17.7979 13.2944 17.5692 13.2643 17.3413 13.2799C17.1134 13.2954 16.8909 13.3563 16.6868 13.4589L15.9118 13.8409C15.9045 13.8365 15.8974 13.8318 15.8897 13.8278L14.9665 13.3403C14.7178 13.207 14.4403 13.1364 14.1581 13.1347C13.8759 13.133 13.5975 13.2001 13.3472 13.3304L12.1148 13.9616C12.0214 14.0139 11.9164 14.042 11.8093 14.0435L8.8718 14.0771L9.07767 13.7204C9.14398 13.6056 9.16194 13.4691 9.12762 13.341C9.0933 13.2129 9.00951 13.1037 8.89467 13.0374L5.37124 11.0032C5.2564 10.9369 5.11994 10.919 4.99187 10.9533C4.8638 10.9876 4.7546 11.0714 4.6883 11.1862L0.0669862 19.1905C0.000685088 19.3054 -0.0172822 19.4418 0.0170367 19.5699C0.0513556 19.698 0.13515 19.8072 0.249986 19.8735ZM7.83355 23.9179C7.65279 23.7356 7.55137 23.4892 7.55137 23.2325C7.55137 22.9758 7.65279 22.7295 7.83355 22.5471L9.5918 20.7889C9.77379 20.6081 10.02 20.5069 10.2765 20.5074C10.533 20.5078 10.7789 20.6099 10.9602 20.7913C11.1416 20.9727 11.2436 21.2185 11.2441 21.475C11.2445 21.7315 11.1432 21.9777 10.9624 22.1597L9.2043 23.9179C9.02237 24.0994 8.77589 24.2013 8.51892 24.2013C8.26196 24.2013 8.01548 24.0994 7.83355 23.9179ZM9.91142 25.9957C9.73074 25.8135 9.62933 25.5673 9.62925 25.3106C9.62916 25.054 9.73042 24.8077 9.91099 24.6254L9.91142 24.625L11.6697 22.8668C11.8519 22.6873 12.0977 22.5871 12.3535 22.588C12.6093 22.589 12.8543 22.691 13.0352 22.8719C13.2161 23.0528 13.3181 23.2978 13.3191 23.5536C13.3201 23.8094 13.2199 24.0552 13.0404 24.2375L11.2821 25.9957C11.1002 26.1772 10.8537 26.2791 10.5968 26.2791C10.3398 26.2791 10.0933 26.1772 9.91142 25.9957ZM11.9892 28.0735C11.8077 27.8916 11.7058 27.6451 11.7058 27.3881C11.7058 27.1312 11.8077 26.8847 11.9892 26.7028L13.7474 24.9446C13.9292 24.7628 14.1757 24.6607 14.4328 24.6607C14.6899 24.6607 14.9364 24.7628 15.1182 24.9446C15.2999 25.1264 15.4021 25.3729 15.4021 25.63C15.4021 25.887 15.2999 26.1336 15.1182 26.3153C15.1014 26.3323 15.0859 26.3505 15.0717 26.3698C15.0193 26.4107 14.9693 26.4548 14.9221 26.5018L13.5464 27.8774C13.4993 27.9247 13.4552 27.9748 13.4141 28.0274C13.395 28.0415 13.3769 28.057 13.3599 28.0736C13.178 28.2551 12.9315 28.357 12.6746 28.357C12.4176 28.357 12.1711 28.255 11.9892 28.0735ZM14.2536 29.5032C14.1319 29.3813 14.0635 29.2161 14.0635 29.0438C14.0635 28.8716 14.1319 28.7063 14.2536 28.5845L15.6292 27.2088C15.7511 27.087 15.9163 27.0186 16.0886 27.0186C16.2609 27.0186 16.4262 27.087 16.548 27.2088C16.6698 27.3307 16.7383 27.4959 16.7383 27.6682C16.7383 27.8405 16.6698 28.0057 16.548 28.1276L15.1724 29.5032C15.0501 29.6242 14.885 29.6921 14.713 29.6921C14.541 29.6921 14.3759 29.6242 14.2536 29.5032ZM17.0167 29.9803C16.8958 30.1008 16.7323 30.169 16.5615 30.17C16.3908 30.171 16.2265 30.1048 16.1042 29.9856L17.0222 29.0676C17.1414 29.1899 17.2076 29.3543 17.2066 29.5251C17.2055 29.6959 17.1373 29.8594 17.0167 29.9803ZM19.2812 28.5506C19.0993 28.7321 18.8529 28.834 18.5959 28.834C18.339 28.834 18.0925 28.7321 17.9106 28.5506C17.8936 28.5339 17.8754 28.5183 17.8561 28.5042C17.8152 28.4517 17.7711 28.4018 17.7241 28.3546L17.6284 28.2589C17.7164 28.0305 17.7523 27.7854 17.7336 27.5413C17.7149 27.2973 17.642 27.0605 17.5203 26.8481C17.3986 26.6358 17.2311 26.4532 17.03 26.3138C16.8289 26.1743 16.5993 26.0814 16.3577 26.0418C16.4124 25.7847 16.4154 25.5192 16.3667 25.261C16.5507 25.1586 16.7631 25.119 16.9717 25.148C17.1803 25.177 17.3738 25.2731 17.5229 25.4217L19.2812 27.18C19.4627 27.3619 19.5647 27.6083 19.5647 27.8653C19.5647 28.1223 19.4627 28.3687 19.2812 28.5506ZM21.3591 26.4728C21.1768 26.6535 20.9305 26.7549 20.6738 26.7549C20.4171 26.7549 20.1708 26.6535 19.9885 26.4728L18.2302 24.7146C18.0538 24.5318 17.9561 24.2871 17.9583 24.0331C17.9605 23.7791 18.0623 23.5361 18.2418 23.3564C18.4214 23.1767 18.6642 23.0747 18.9182 23.0722C19.1722 23.0698 19.4171 23.1672 19.6 23.3434V23.3438L21.3582 25.102C21.5399 25.2838 21.6419 25.5303 21.642 25.7873C21.6421 26.0443 21.5403 26.2908 21.3588 26.4728H21.3591ZM23.4369 24.395C23.255 24.5765 23.0085 24.6784 22.7516 24.6784C22.4946 24.6784 22.2482 24.5765 22.0663 24.395L20.308 22.6368C20.1285 22.4545 20.0283 22.2087 20.0293 21.9529C20.0302 21.6971 20.1323 21.4521 20.3131 21.2712C20.494 21.0904 20.7391 20.9883 20.9948 20.9874C21.2506 20.9864 21.4964 21.0866 21.6787 21.2661L23.4367 23.0246C23.6174 23.207 23.7188 23.4533 23.7188 23.71C23.7188 23.9667 23.6174 24.213 23.4367 24.3953L23.4369 24.395ZM26.696 12.1193L30.8173 19.2575L28.1597 20.7918L24.038 13.6536L26.696 12.1193ZM17.1289 14.3559C17.2159 14.3104 17.3113 14.2834 17.4092 14.2768C17.5071 14.2701 17.6054 14.2838 17.6977 14.3171L21.5924 15.6154C22.0831 15.7837 22.6175 15.7729 23.1009 15.585L23.8375 15.3059L26.618 20.1218L23.6531 21.8266L22.3855 20.559C22.2513 20.4247 22.0983 20.3106 21.9312 20.2203L17.9453 17.2321C17.692 17.0426 17.3896 16.9298 17.074 16.9071L16.4883 16.8555C16.1603 16.8239 15.8302 16.8868 15.5368 17.0366C15.2433 17.1865 14.9988 17.417 14.832 17.7011L14.0556 18.978C14.0441 18.9995 14.0261 19.0169 14.0041 19.0275C13.9821 19.0381 13.9573 19.0414 13.9333 19.037L12.752 18.8882C12.7342 18.886 12.7171 18.8799 12.7018 18.8704C12.6865 18.8609 12.6735 18.8482 12.6635 18.8332C12.6536 18.8182 12.647 18.8013 12.6442 18.7835C12.6415 18.7657 12.6425 18.7476 12.6474 18.7303L13.2662 16.5365C13.2925 16.4343 13.3411 16.3392 13.4086 16.2581C13.4761 16.177 13.5607 16.1119 13.6564 16.0674L17.1289 14.3559ZM11.8208 15.0434C12.0825 15.0405 12.3398 14.9748 12.5708 14.8517L13.8032 14.2205C13.9104 14.1628 14.0304 14.1329 14.1521 14.1336C14.2739 14.1344 14.3935 14.1657 14.5 14.2246L14.8057 14.386L13.214 15.1705C12.9924 15.2767 12.7963 15.4294 12.6392 15.6183C12.482 15.8072 12.3675 16.0278 12.3035 16.2651L11.6847 18.4588C11.6408 18.6147 11.631 18.7782 11.656 18.9381C11.681 19.0981 11.7403 19.2508 11.8297 19.3857C11.9192 19.5207 12.0367 19.6348 12.1743 19.7202C12.3118 19.8055 12.4662 19.8602 12.6269 19.8805L13.8081 20.0291C14.0236 20.0581 14.2428 20.0231 14.4386 19.9287C14.6344 19.8343 14.7983 19.6845 14.9098 19.4979L15.6863 18.2211C15.7568 18.0971 15.8618 17.9963 15.9885 17.9307C16.1152 17.8652 16.2582 17.8378 16.4002 17.8519L16.9858 17.9036C17.1158 17.9099 17.2409 17.9548 17.3452 18.0326L20.1805 20.1581C19.8356 20.314 19.543 20.5662 19.3381 20.8844C19.1331 21.2027 19.0245 21.5734 19.0254 21.9519C19.0254 21.9898 19.0267 22.0275 19.0288 22.065C18.7611 22.0491 18.4931 22.0881 18.241 22.1796C17.989 22.2712 17.7584 22.4134 17.5635 22.5974C17.3685 22.7815 17.2132 23.0035 17.1073 23.2499C17.0014 23.4962 16.947 23.7616 16.9475 24.0297C16.9475 24.0676 16.9489 24.1053 16.951 24.1428C16.5991 24.1224 16.2481 24.1965 15.9345 24.3575C15.8997 24.3166 15.8636 24.2763 15.825 24.238C15.6287 24.0415 15.3929 23.889 15.1333 23.7903C14.8737 23.6917 14.5961 23.6492 14.3188 23.6657C14.3209 23.6282 14.3222 23.5907 14.3222 23.5526C14.3228 23.2845 14.2686 23.0191 14.1627 22.7727C14.0569 22.5264 13.9018 22.3043 13.7069 22.1202C13.512 21.9361 13.2815 21.7938 13.0296 21.7021C12.7776 21.6104 12.5096 21.5713 12.2419 21.5871C12.2578 21.3195 12.2187 21.0515 12.1271 20.7996C12.0354 20.5477 11.8932 20.3172 11.7092 20.1223C11.5251 19.9274 11.3032 19.7722 11.0569 19.6663C10.8106 19.5604 10.5453 19.5061 10.2772 19.5066C10.0186 19.5056 9.76241 19.5559 9.52339 19.6546C9.28437 19.7533 9.0673 19.8984 8.88474 20.0816L7.12967 21.8371L5.08355 20.639L8.29067 15.084L11.8208 15.0434ZM5.30424 12.1193L7.96186 13.6536L3.84055 20.7918L1.18299 19.2575L5.30424 12.1193ZM16 12.549C17.1589 12.549 18.2917 12.2053 19.2553 11.5615C20.2189 10.9177 20.9699 10.0025 21.4134 8.93187C21.8569 7.8612 21.973 6.68306 21.7469 5.54644C21.5208 4.40981 20.9628 3.36576 20.1433 2.54629C19.3239 1.72683 18.2798 1.16877 17.1432 0.942673C16.0066 0.71658 14.8284 0.832613 13.7578 1.2761C12.6871 1.71958 11.772 2.4706 11.1281 3.43418C10.4843 4.39776 10.1406 5.53063 10.1406 6.68952C10.1424 8.24298 10.7603 9.73232 11.8587 10.8308C12.9572 11.9293 14.4465 12.5472 16 12.549ZM16 1.83021C16.9611 1.83019 17.9006 2.11519 18.6998 2.64914C19.4989 3.1831 20.1218 3.94204 20.4896 4.82999C20.8574 5.71794 20.9536 6.69501 20.7661 7.63766C20.5786 8.5803 20.1158 9.44618 19.4362 10.1258C18.7566 10.8054 17.8907 11.2682 16.9481 11.4557C16.0054 11.6432 15.0283 11.547 14.1404 11.1792C13.2524 10.8114 12.4935 10.1885 11.9595 9.38936C11.4256 8.59022 11.1406 7.65069 11.1406 6.68958C11.1421 5.40124 11.6545 4.16607 12.5655 3.25507C13.4765 2.34407 14.7116 1.83168 16 1.83021ZM13.7757 6.71308C13.6978 6.60581 13.6656 6.47196 13.6863 6.34098C13.7071 6.20999 13.779 6.09261 13.8862 6.01464C13.9935 5.93668 14.1274 5.90452 14.2583 5.92524C14.3893 5.94597 14.5067 6.01787 14.5847 6.12514L15.35 7.17839L17.8977 5.09139C18.0004 5.00837 18.1317 4.96934 18.2631 4.98282C18.3944 4.9963 18.5151 5.06121 18.5988 5.16336C18.6825 5.26551 18.7224 5.39662 18.7097 5.52807C18.6971 5.65951 18.633 5.78062 18.5314 5.86496L15.5738 8.28771C15.5211 8.33086 15.4602 8.3628 15.3947 8.38156C15.3293 8.40033 15.2607 8.40553 15.1931 8.39684C15.1256 8.38815 15.0605 8.36575 15.002 8.33103C14.9434 8.2963 14.8925 8.24998 14.8525 8.19489L13.7757 6.71308Z" fill="black"/>
</g>
<defs>
<clipPath id="clip0_1113_3961">
<rect width="32" height="32" fill="white"/>
</clipPath>
</defs>
</svg>
