<svg width="32" height="32" viewBox="0 0 32 32" fill="none" xmlns="http://www.w3.org/2000/svg">
<path d="M4 3H5V4H4V3Z" fill="black"/>
<path d="M6 3H7V4H6V3Z" fill="black"/>
<path d="M8 3H9V4H8V3Z" fill="black"/>
<path d="M4.5 14H12.5C12.6326 14 12.7598 13.9473 12.8536 13.8536C12.9473 13.7598 13 13.6326 13 13.5V8.5C13 8.36739 12.9473 8.24021 12.8536 8.14645C12.7598 8.05268 12.6326 8 12.5 8H4.5C4.36739 8 4.24021 8.05268 4.14645 8.14645C4.05268 8.24021 4 8.36739 4 8.5V13.5C4 13.6326 4.05268 13.7598 4.14645 13.8536C4.24021 13.9473 4.36739 14 4.5 14ZM5 9H12V13H5V9Z" fill="black"/>
<path d="M17 8.5H25V9.5H17V8.5Z" fill="black"/>
<path d="M15 10.5H24V11.5H15V10.5Z" fill="black"/>
<path d="M15 12.5H22V13.5H15V12.5Z" fill="black"/>
<path d="M6 16H19V17H6V16Z" fill="black"/>
<path d="M4 18H17V19H4V18Z" fill="black"/>
<path d="M4 20H15V21H4V20Z" fill="black"/>
<path d="M4 22H15V23H4V22Z" fill="black"/>
<path d="M4 24H15V25H4V24Z" fill="black"/>
<path d="M4 16H5V17H4V16Z" fill="black"/>
<path d="M28.5 4H28V3.5C28 2.83696 27.7366 2.20107 27.2678 1.73223C26.7989 1.26339 26.163 1 25.5 1H3.5C2.83696 1 2.20107 1.26339 1.73223 1.73223C1.26339 2.20107 1 2.83696 1 3.5V25.5C1 26.163 1.26339 26.7989 1.73223 27.2678C2.20107 27.7366 2.83696 28 3.5 28H4V28.5C4 29.163 4.26339 29.7989 4.73223 30.2678C5.20107 30.7366 5.83696 31 6.5 31H28.5C29.163 31 29.7989 30.7366 30.2678 30.2678C30.7366 29.7989 31 29.163 31 28.5V6.5C31 5.83696 30.7366 5.20107 30.2678 4.73223C29.7989 4.26339 29.163 4 28.5 4ZM27.605 11.77L29.73 13.895L28.315 15.31L26.19 13.185L27.605 11.77ZM18.565 21.825L18.96 20.8L20.7 22.54L19.675 22.935L18.565 21.825ZM18.655 23.325L17.87 23.63L18.175 22.845L18.655 23.325ZM20.18 20.61L19.475 19.905L25.485 13.895L26.19 14.6L20.18 20.61ZM26.9 15.31L27.605 16.015L21.595 22.025L20.89 21.32L26.9 15.31ZM2 3.5C2.00119 3.10254 2.1596 2.7217 2.44065 2.44065C2.7217 2.1596 3.10254 2.00119 3.5 2H25.5C25.8975 2.00119 26.2783 2.1596 26.5593 2.44065C26.8404 2.7217 26.9988 3.10254 27 3.5V5H2V3.5ZM3.5 27C3.10254 26.9988 2.7217 26.8404 2.44065 26.5593C2.1596 26.2783 2.00119 25.8975 2 25.5V6H27V10.965L18.415 19.55C18.3649 19.5997 18.3257 19.6593 18.3 19.725L16.535 24.32C16.4987 24.4101 16.4898 24.5089 16.5093 24.6041C16.5289 24.6992 16.5761 24.7865 16.645 24.855C16.7396 24.9483 16.8672 25.0004 17 25C17.0617 25.0005 17.1229 24.9886 17.18 24.965L21.775 23.2C21.8407 23.1743 21.9003 23.1351 21.95 23.085L27 18.035V25.5C26.9988 25.8975 26.8404 26.2783 26.5593 26.5593C26.2783 26.8404 25.8975 26.9988 25.5 27H3.5ZM30 28.5C29.9988 28.8975 29.8404 29.2783 29.5593 29.5593C29.2783 29.8404 28.8975 29.9988 28.5 30H6.5C6.10254 29.9988 5.7217 29.8404 5.44065 29.5593C5.1596 29.2783 5.00119 28.8975 5 28.5V28H25.5C26.163 28 26.7989 27.7366 27.2678 27.2678C27.7366 26.7989 28 26.163 28 25.5V17.035L30 15.035V28.5ZM30 12.75L28 10.75V9H30V12.75ZM30 8H28V5H28.5C28.8975 5.00119 29.2783 5.1596 29.5593 5.44065C29.8404 5.7217 29.9988 6.10254 30 6.5V8Z" fill="black"/>
<path d="M15 8.5H16V9.5H15V8.5Z" fill="black"/>
</svg>
