<svg width="18" height="15" viewBox="0 0 18 15" fill="none" xmlns="http://www.w3.org/2000/svg">
<path d="M17.3984 8.39844L11.1484 14.6484C10.888 14.8828 10.5885 15 10.25 15C9.91146 15 9.61198 14.8828 9.35156 14.6484C9.11719 14.388 9 14.0885 9 13.75C9 13.4115 9.11719 13.112 9.35156 12.8516L13.4922 8.75H1.5C1.13542 8.75 0.835938 8.63281 0.601562 8.39844C0.367188 8.16406 0.25 7.86458 0.25 7.5C0.25 7.13542 0.367188 6.83594 0.601562 6.60156C0.835938 6.36719 1.13542 6.25 1.5 6.25H13.4922L9.35156 2.14844C9.11719 1.88802 9 1.58854 9 1.25C9 0.911458 9.11719 0.611979 9.35156 0.351562C9.61198 0.117188 9.91146 0 10.25 0C10.5885 0 10.888 0.117188 11.1484 0.351562L17.3984 6.60156C17.6328 6.86198 17.75 7.16146 17.75 7.5C17.75 7.83854 17.6328 8.13802 17.3984 8.39844Z" fill="white"/>
</svg>
